<mxfile host="app.diagrams.net" modified="2024-01-07T09:35:06.766Z" agent="Mozilla/5.0 (Windows NT 10.0; Win64; x64) AppleWebKit/537.36 (KHTML, like Gecko) Chrome/120.0.0.0 Safari/537.36 Edg/120.0.0.0" etag="1hlvWlle61a9vJGu3mRu" version="22.1.16" type="github">
  <diagram name="第 1 页" id="QSU95TlAZI9r_D9fF6My">
    <mxGraphModel dx="2960" dy="2383" grid="1" gridSize="10" guides="1" tooltips="1" connect="1" arrows="1" fold="1" page="1" pageScale="1" pageWidth="827" pageHeight="1169" math="0" shadow="0">
      <root>
        <mxCell id="0" />
        <mxCell id="1" parent="0" />
        <UserObject label="" plantUmlData="{&quot;data&quot;:&quot;@startuml\n\nleft to right direction\nskinparam packageStyle rectangle\n\nrectangle \&quot;巴士管理系统\&quot; {\n\n  package \&quot;用户界面\&quot; {\n    [登录] as (login)\n    [主界面] as (main)\n  }\n\n  package \&quot;功能模块\&quot; {\n    rectangle \&quot;巴士信息管理\&quot; {\n      [巴士信息录入]\n      [巴士信息删除]\n      [巴士信息修改]\n    }\n    rectangle \&quot;行程调度管理\&quot; {\n      [行程安排]\n      [行程跟踪]\n      [维护记录]\n    }\n    rectangle \&quot;人员信息管理\&quot; {\n      [司机信息管理]\n      [管理员信息管理]\n    }\n    rectangle \&quot;信息查询\&quot; {\n      [巴士信息查询]\n      [司机信息查询]\n      [行程信息查询]\n    }\n  }\n\n  package \&quot;数据存储\&quot; {\n    [数据库] as (db)\n  }\n\n  (login) --&gt; (main)\n  (main) --&gt; (db)\n\n  (main) -down-&gt; \&quot;巴士信息管理\&quot;\n  (main) -down-&gt; \&quot;行程调度管理\&quot;\n  (main) -down-&gt; \&quot;人员信息管理\&quot;\n  (main) -down-&gt; \&quot;信息查询\&quot;\n\n  \&quot;巴士信息管理\&quot; --&gt; (db)\n  \&quot;行程调度管理\&quot; --&gt; (db)\n  \&quot;人员信息管理\&quot; --&gt; (db)\n  \&quot;信息查询\&quot; --&gt; (db)\n}\n\n@enduml\n&quot;,&quot;format&quot;:&quot;svg&quot;}" id="fYDE9vizx6uy-5a_bvqT-1">
          <mxCell style="shape=image;noLabel=1;verticalAlign=top;aspect=fixed;imageAspect=0;image=data:image/svg+xml,PD94bWwgdmVyc2lvbj0iMS4wIiBlbmNvZGluZz0idXMtYXNjaWkiIHN0YW5kYWxvbmU9Im5vIj8+PHN2ZyB4bWxucz0iaHR0cDovL3d3dy53My5vcmcvMjAwMC9zdmciIHhtbG5zOnhsaW5rPSJodHRwOi8vd3d3LnczLm9yZy8xOTk5L3hsaW5rIiBjb250ZW50U3R5bGVUeXBlPSJ0ZXh0L2NzcyIgaGVpZ2h0PSIxMDE5cHgiIHByZXNlcnZlQXNwZWN0UmF0aW89Im5vbmUiIHN0eWxlPSJ3aWR0aDoxMTUycHg7aGVpZ2h0OjEwMTlweDtiYWNrZ3JvdW5kOiNGRkZGRkY7IiB2ZXJzaW9uPSIxLjEiIHZpZXdCb3g9IjAgMCAxMTUyIDEwMTkiIHdpZHRoPSIxMTUycHgiIHpvb21BbmRQYW49Im1hZ25pZnkiPjxkZWZzLz48Zz48IS0tY2x1c3RlciA/Pz8/Pz8tLT48ZyBpZD0iY2x1c3Rlcl8mIzI0MDUyOyYjMjI3NjM7JiMzMTY0OTsmIzI5NzAyOyYjMzE5OTU7JiMzMjQ3OTsiPjxyZWN0IGZpbGw9Im5vbmUiIGhlaWdodD0iOTU3IiByeD0iMi41IiByeT0iMi41IiBzdHlsZT0ic3Ryb2tlOiMxODE4MTg7c3Ryb2tlLXdpZHRoOjEuMDsiIHdpZHRoPSIxMTM5IiB4PSI3IiB5PSIyMS40NSIvPjx0ZXh0IGZpbGw9IiMwMDAwMDAiIGZvbnQtZmFtaWx5PSJzYW5zLXNlcmlmIiBmb250LXNpemU9IjE0IiBmb250LXdlaWdodD0iYm9sZCIgbGVuZ3RoQWRqdXN0PSJzcGFjaW5nIiB0ZXh0TGVuZ3RoPSI4NCIgeD0iNTM0LjUiIHk9IjM2LjY4NDQiPiYjMjQwNTI7JiMyMjc2MzsmIzMxNjQ5OyYjMjk3MDI7JiMzMTk5NTsmIzMyNDc5OzwvdGV4dD48L2c+PCEtLWNsdXN0ZXIgPz8/Py0tPjxnIGlkPSJjbHVzdGVyXyYjMjk5OTI7JiMyNTE0MzsmIzMwMDI4OyYjMzg3NTQ7Ij48cmVjdCBmaWxsPSJub25lIiBoZWlnaHQ9Ijc3IiByeD0iMi41IiByeT0iMi41IiBzdHlsZT0ic3Ryb2tlOiMxODE4MTg7c3Ryb2tlLXdpZHRoOjEuMDsiIHdpZHRoPSIyMzciIHg9IjMxIiB5PSI1MTYuNDUiLz48dGV4dCBmaWxsPSIjMDAwMDAwIiBmb250LWZhbWlseT0ic2Fucy1zZXJpZiIgZm9udC1zaXplPSIxNCIgZm9udC13ZWlnaHQ9ImJvbGQiIGxlbmd0aEFkanVzdD0ic3BhY2luZyIgdGV4dExlbmd0aD0iNTYiIHg9IjEyMS41IiB5PSI1MzEuNjg0NCI+JiMyOTk5MjsmIzI1MTQzOyYjMzAwMjg7JiMzODc1NDs8L3RleHQ+PC9nPjwhLS1jbHVzdGVyID8/Pz8tLT48ZyBpZD0iY2x1c3Rlcl8mIzIxMTUxOyYjMzMwMjE7JiMyNzE2OTsmIzIyMzU5OyI+PHJlY3QgZmlsbD0ibm9uZSIgaGVpZ2h0PSI3OTEiIHJ4PSIyLjUiIHJ5PSIyLjUiIHN0eWxlPSJzdHJva2U6IzE4MTgxODtzdHJva2Utd2lkdGg6MS4wOyIgd2lkdGg9IjgzMCIgeD0iMjkyIiB5PSI2Mi40NSIvPjx0ZXh0IGZpbGw9IiMwMDAwMDAiIGZvbnQtZmFtaWx5PSJzYW5zLXNlcmlmIiBmb250LXNpemU9IjE0IiBmb250LXdlaWdodD0iYm9sZCIgbGVuZ3RoQWRqdXN0PSJzcGFjaW5nIiB0ZXh0TGVuZ3RoPSI1NiIgeD0iNjc5IiB5PSI3Ny42ODQ0Ij4mIzIxMTUxOyYjMzMwMjE7JiMyNzE2OTsmIzIyMzU5OzwvdGV4dD48L2c+PCEtLWNsdXN0ZXIgPz8/Pz8/LS0+PGcgaWQ9ImNsdXN0ZXJfJiMyNDA1MjsmIzIyNzYzOyYjMjA0NDk7JiMyNDY4NzsmIzMxNjQ5OyYjMjk3MDI7Ij48cmVjdCBmaWxsPSJub25lIiBoZWlnaHQ9IjIxMCIgcng9IjIuNSIgcnk9IjIuNSIgc3R5bGU9InN0cm9rZTojMTgxODE4O3N0cm9rZS13aWR0aDoxLjA7IiB3aWR0aD0iMzYzIiB4PSIzMzEiIHk9IjExMS40NSIvPjx0ZXh0IGZpbGw9IiMwMDAwMDAiIGZvbnQtZmFtaWx5PSJzYW5zLXNlcmlmIiBmb250LXNpemU9IjE0IiBmb250LXdlaWdodD0iYm9sZCIgbGVuZ3RoQWRqdXN0PSJzcGFjaW5nIiB0ZXh0TGVuZ3RoPSI4NCIgeD0iNDcwLjUiIHk9IjEyNi42ODQ0Ij4mIzI0MDUyOyYjMjI3NjM7JiMyMDQ0OTsmIzI0Njg3OyYjMzE2NDk7JiMyOTcwMjs8L3RleHQ+PC9nPjwhLS1jbHVzdGVyID8/Pz8/Py0tPjxnIGlkPSJjbHVzdGVyXyYjMzQ4OTI7JiMzMTI0MzsmIzM1ODQzOyYjMjQyMzA7JiMzMTY0OTsmIzI5NzAyOyI+PHJlY3QgZmlsbD0ibm9uZSIgaGVpZ2h0PSIyMTAiIHJ4PSIyLjUiIHJ5PSIyLjUiIHN0eWxlPSJzdHJva2U6IzE4MTgxODtzdHJva2Utd2lkdGg6MS4wOyIgd2lkdGg9IjMzNSIgeD0iMzQ1IiB5PSIzNjEuNDUiLz48dGV4dCBmaWxsPSIjMDAwMDAwIiBmb250LWZhbWlseT0ic2Fucy1zZXJpZiIgZm9udC1zaXplPSIxNCIgZm9udC13ZWlnaHQ9ImJvbGQiIGxlbmd0aEFkanVzdD0ic3BhY2luZyIgdGV4dExlbmd0aD0iODQiIHg9IjQ3MC41IiB5PSIzNzYuNjg0NCI+JiMzNDg5MjsmIzMxMjQzOyYjMzU4NDM7JiMyNDIzMDsmIzMxNjQ5OyYjMjk3MDI7PC90ZXh0PjwvZz48IS0tY2x1c3RlciA/Pz8/Pz8tLT48ZyBpZD0iY2x1c3Rlcl8mIzIwMTU0OyYjMjE1OTI7JiMyMDQ0OTsmIzI0Njg3OyYjMzE2NDk7JiMyOTcwMjsiPjxyZWN0IGZpbGw9Im5vbmUiIGhlaWdodD0iMjEwIiByeD0iMi41IiByeT0iMi41IiBzdHlsZT0ic3Ryb2tlOiMxODE4MTg7c3Ryb2tlLXdpZHRoOjEuMDsiIHdpZHRoPSIxODYiIHg9IjMyNCIgeT0iNjExLjQ1Ii8+PHRleHQgZmlsbD0iIzAwMDAwMCIgZm9udC1mYW1pbHk9InNhbnMtc2VyaWYiIGZvbnQtc2l6ZT0iMTQiIGZvbnQtd2VpZ2h0PSJib2xkIiBsZW5ndGhBZGp1c3Q9InNwYWNpbmciIHRleHRMZW5ndGg9Ijg0IiB4PSIzNzUiIHk9IjYyNi42ODQ0Ij4mIzIwMTU0OyYjMjE1OTI7JiMyMDQ0OTsmIzI0Njg3OyYjMzE2NDk7JiMyOTcwMjs8L3RleHQ+PC9nPjwhLS1jbHVzdGVyID8/Pz8tLT48ZyBpZD0iY2x1c3Rlcl8mIzIwNDQ5OyYjMjQ2ODc7JiMyNjU5NzsmIzM1ODEwOyI+PHJlY3QgZmlsbD0ibm9uZSIgaGVpZ2h0PSIyMTAiIHJ4PSIyLjUiIHJ5PSIyLjUiIHN0eWxlPSJzdHJva2U6IzE4MTgxODtzdHJva2Utd2lkdGg6MS4wOyIgd2lkdGg9IjM1NiIgeD0iNzM0IiB5PSIxMTEuNDUiLz48dGV4dCBmaWxsPSIjMDAwMDAwIiBmb250LWZhbWlseT0ic2Fucy1zZXJpZiIgZm9udC1zaXplPSIxNCIgZm9udC13ZWlnaHQ9ImJvbGQiIGxlbmd0aEFkanVzdD0ic3BhY2luZyIgdGV4dExlbmd0aD0iNTYiIHg9Ijg4NCIgeT0iMTI2LjY4NDQiPiYjMjA0NDk7JiMyNDY4NzsmIzI2NTk3OyYjMzU4MTA7PC90ZXh0PjwvZz48IS0tY2x1c3RlciA/Pz8/LS0+PGcgaWQ9ImNsdXN0ZXJfJiMyNTk2ODsmIzI1NDU0OyYjMjMzODQ7JiMyMDY0ODsiPjxyZWN0IGZpbGw9Im5vbmUiIGhlaWdodD0iNzciIHJ4PSIyLjUiIHJ5PSIyLjUiIHN0eWxlPSJzdHJva2U6IzE4MTgxODtzdHJva2Utd2lkdGg6MS4wOyIgd2lkdGg9IjExNCIgeD0iOTQ3IiB5PSI4NzcuNDUiLz48dGV4dCBmaWxsPSIjMDAwMDAwIiBmb250LWZhbWlseT0ic2Fucy1zZXJpZiIgZm9udC1zaXplPSIxNCIgZm9udC13ZWlnaHQ9ImJvbGQiIGxlbmd0aEFkanVzdD0ic3BhY2luZyIgdGV4dExlbmd0aD0iNTYiIHg9Ijk3NiIgeT0iODkyLjY4NDQiPiYjMjU5Njg7JiMyNTQ1NDsmIzIzMzg0OyYjMjA2NDg7PC90ZXh0PjwvZz48ZyBpZD0iZWxlbV9sb2dpbiI+PGVsbGlwc2UgY3g9Ijc4LjI4NDMiIGN5PSI1NjMuNTQ1NiIgZmlsbD0iI0YxRjFGMSIgcng9IjMxLjI4NDMiIHJ5PSIxMy41OTU2IiBzdHlsZT0ic3Ryb2tlOiMxODE4MTg7c3Ryb2tlLXdpZHRoOjAuNTsiLz48dGV4dCBmaWxsPSIjMDAwMDAwIiBmb250LWZhbWlseT0ic2Fucy1zZXJpZiIgZm9udC1zaXplPSIxNCIgbGVuZ3RoQWRqdXN0PSJzcGFjaW5nIiB0ZXh0TGVuZ3RoPSIyOCIgeD0iNjQuMjg0MyIgeT0iNTY3LjI4NzciPiYjMzAzMzE7JiMyNDQwNTs8L3RleHQ+PC9nPjxnIGlkPSJlbGVtX21haW4iPjxlbGxpcHNlIGN4PSIyMTEuMTgzOCIgY3k9IjU2My41NDU2IiBmaWxsPSIjRjFGMUYxIiByeD0iNDEuMTgzOCIgcnk9IjEzLjU5NTYiIHN0eWxlPSJzdHJva2U6IzE4MTgxODtzdHJva2Utd2lkdGg6MC41OyIvPjx0ZXh0IGZpbGw9IiMwMDAwMDAiIGZvbnQtZmFtaWx5PSJzYW5zLXNlcmlmIiBmb250LXNpemU9IjE0IiBsZW5ndGhBZGp1c3Q9InNwYWNpbmciIHRleHRMZW5ndGg9IjQyIiB4PSIxOTAuMTgzOCIgeT0iNTY3LjI4NzciPiYjMjAwMjc7JiMzMDAyODsmIzM4NzU0OzwvdGV4dD48L2c+PCEtLWVudGl0eSA/Pz8/Pz8tLT48ZyBpZD0iZWxlbV8mIzI0MDUyOyYjMjI3NjM7JiMyMDQ0OTsmIzI0Njg3OyYjMjQ0MDU7JiMyMDgzNzsiPjxyZWN0IGZpbGw9IiNGMUYxRjEiIGhlaWdodD0iNDQuOTg0NCIgcng9IjIuNSIgcnk9IjIuNSIgc3R5bGU9InN0cm9rZTojMTgxODE4O3N0cm9rZS13aWR0aDowLjU7IiB3aWR0aD0iMTI0IiB4PSIzNTUiIHk9IjIzMi45NSIvPjxyZWN0IGZpbGw9IiNGMUYxRjEiIGhlaWdodD0iMTAiIHN0eWxlPSJzdHJva2U6IzE4MTgxODtzdHJva2Utd2lkdGg6MC41OyIgd2lkdGg9IjE1IiB4PSI0NTkiIHk9IjIzNy45NSIvPjxyZWN0IGZpbGw9IiNGMUYxRjEiIGhlaWdodD0iMiIgc3R5bGU9InN0cm9rZTojMTgxODE4O3N0cm9rZS13aWR0aDowLjU7IiB3aWR0aD0iNCIgeD0iNDU3IiB5PSIyMzkuOTUiLz48cmVjdCBmaWxsPSIjRjFGMUYxIiBoZWlnaHQ9IjIiIHN0eWxlPSJzdHJva2U6IzE4MTgxODtzdHJva2Utd2lkdGg6MC41OyIgd2lkdGg9IjQiIHg9IjQ1NyIgeT0iMjQzLjk1Ii8+PHRleHQgZmlsbD0iIzAwMDAwMCIgZm9udC1mYW1pbHk9InNhbnMtc2VyaWYiIGZvbnQtc2l6ZT0iMTQiIGxlbmd0aEFkanVzdD0ic3BhY2luZyIgdGV4dExlbmd0aD0iODQiIHg9IjM3MCIgeT0iMjY2LjE4NDQiPiYjMjQwNTI7JiMyMjc2MzsmIzIwNDQ5OyYjMjQ2ODc7JiMyNDQwNTsmIzIwODM3OzwvdGV4dD48L2c+PCEtLWVudGl0eSA/Pz8/Pz8tLT48ZyBpZD0iZWxlbV8mIzI0MDUyOyYjMjI3NjM7JiMyMDQ0OTsmIzI0Njg3OyYjMjEwMjQ7JiMzODUwMDsiPjxyZWN0IGZpbGw9IiNGMUYxRjEiIGhlaWdodD0iNDQuOTg0NCIgcng9IjIuNSIgcnk9IjIuNSIgc3R5bGU9InN0cm9rZTojMTgxODE4O3N0cm9rZS13aWR0aDowLjU7IiB3aWR0aD0iMTI0IiB4PSIzNTUiIHk9IjE1Mi45NSIvPjxyZWN0IGZpbGw9IiNGMUYxRjEiIGhlaWdodD0iMTAiIHN0eWxlPSJzdHJva2U6IzE4MTgxODtzdHJva2Utd2lkdGg6MC41OyIgd2lkdGg9IjE1IiB4PSI0NTkiIHk9IjE1Ny45NSIvPjxyZWN0IGZpbGw9IiNGMUYxRjEiIGhlaWdodD0iMiIgc3R5bGU9InN0cm9rZTojMTgxODE4O3N0cm9rZS13aWR0aDowLjU7IiB3aWR0aD0iNCIgeD0iNDU3IiB5PSIxNTkuOTUiLz48cmVjdCBmaWxsPSIjRjFGMUYxIiBoZWlnaHQ9IjIiIHN0eWxlPSJzdHJva2U6IzE4MTgxODtzdHJva2Utd2lkdGg6MC41OyIgd2lkdGg9IjQiIHg9IjQ1NyIgeT0iMTYzLjk1Ii8+PHRleHQgZmlsbD0iIzAwMDAwMCIgZm9udC1mYW1pbHk9InNhbnMtc2VyaWYiIGZvbnQtc2l6ZT0iMTQiIGxlbmd0aEFkanVzdD0ic3BhY2luZyIgdGV4dExlbmd0aD0iODQiIHg9IjM3MCIgeT0iMTg2LjE4NDQiPiYjMjQwNTI7JiMyMjc2MzsmIzIwNDQ5OyYjMjQ2ODc7JiMyMTAyNDsmIzM4NTAwOzwvdGV4dD48L2c+PCEtLWVudGl0eSA/Pz8/Pz8tLT48ZyBpZD0iZWxlbV8mIzI0MDUyOyYjMjI3NjM7JiMyMDQ0OTsmIzI0Njg3OyYjMjA0NjI7JiMyNTkxMzsiPjxyZWN0IGZpbGw9IiNGMUYxRjEiIGhlaWdodD0iNDQuOTg0NCIgcng9IjIuNSIgcnk9IjIuNSIgc3R5bGU9InN0cm9rZTojMTgxODE4O3N0cm9rZS13aWR0aDowLjU7IiB3aWR0aD0iMTI0IiB4PSI1NDYiIHk9IjIzMi45NSIvPjxyZWN0IGZpbGw9IiNGMUYxRjEiIGhlaWdodD0iMTAiIHN0eWxlPSJzdHJva2U6IzE4MTgxODtzdHJva2Utd2lkdGg6MC41OyIgd2lkdGg9IjE1IiB4PSI2NTAiIHk9IjIzNy45NSIvPjxyZWN0IGZpbGw9IiNGMUYxRjEiIGhlaWdodD0iMiIgc3R5bGU9InN0cm9rZTojMTgxODE4O3N0cm9rZS13aWR0aDowLjU7IiB3aWR0aD0iNCIgeD0iNjQ4IiB5PSIyMzkuOTUiLz48cmVjdCBmaWxsPSIjRjFGMUYxIiBoZWlnaHQ9IjIiIHN0eWxlPSJzdHJva2U6IzE4MTgxODtzdHJva2Utd2lkdGg6MC41OyIgd2lkdGg9IjQiIHg9IjY0OCIgeT0iMjQzLjk1Ii8+PHRleHQgZmlsbD0iIzAwMDAwMCIgZm9udC1mYW1pbHk9InNhbnMtc2VyaWYiIGZvbnQtc2l6ZT0iMTQiIGxlbmd0aEFkanVzdD0ic3BhY2luZyIgdGV4dExlbmd0aD0iODQiIHg9IjU2MSIgeT0iMjY2LjE4NDQiPiYjMjQwNTI7JiMyMjc2MzsmIzIwNDQ5OyYjMjQ2ODc7JiMyMDQ2MjsmIzI1OTEzOzwvdGV4dD48L2c+PCEtLWVudGl0eSA/Pz8/LS0+PGcgaWQ9ImVsZW1fJiMzNDg5MjsmIzMxMjQzOyYjMjM0MzM7JiMyNTQ5MDsiPjxyZWN0IGZpbGw9IiNGMUYxRjEiIGhlaWdodD0iNDQuOTg0NCIgcng9IjIuNSIgcnk9IjIuNSIgc3R5bGU9InN0cm9rZTojMTgxODE4O3N0cm9rZS13aWR0aDowLjU7IiB3aWR0aD0iOTYiIHg9IjM2OSIgeT0iNDgyLjk1Ii8+PHJlY3QgZmlsbD0iI0YxRjFGMSIgaGVpZ2h0PSIxMCIgc3R5bGU9InN0cm9rZTojMTgxODE4O3N0cm9rZS13aWR0aDowLjU7IiB3aWR0aD0iMTUiIHg9IjQ0NSIgeT0iNDg3Ljk1Ii8+PHJlY3QgZmlsbD0iI0YxRjFGMSIgaGVpZ2h0PSIyIiBzdHlsZT0ic3Ryb2tlOiMxODE4MTg7c3Ryb2tlLXdpZHRoOjAuNTsiIHdpZHRoPSI0IiB4PSI0NDMiIHk9IjQ4OS45NSIvPjxyZWN0IGZpbGw9IiNGMUYxRjEiIGhlaWdodD0iMiIgc3R5bGU9InN0cm9rZTojMTgxODE4O3N0cm9rZS13aWR0aDowLjU7IiB3aWR0aD0iNCIgeD0iNDQzIiB5PSI0OTMuOTUiLz48dGV4dCBmaWxsPSIjMDAwMDAwIiBmb250LWZhbWlseT0ic2Fucy1zZXJpZiIgZm9udC1zaXplPSIxNCIgbGVuZ3RoQWRqdXN0PSJzcGFjaW5nIiB0ZXh0TGVuZ3RoPSI1NiIgeD0iMzg0IiB5PSI1MTYuMTg0NCI+JiMzNDg5MjsmIzMxMjQzOyYjMjM0MzM7JiMyNTQ5MDs8L3RleHQ+PC9nPjwhLS1lbnRpdHkgPz8/Py0tPjxnIGlkPSJlbGVtXyYjMzQ4OTI7JiMzMTI0MzsmIzM2MzE5OyYjMzYzOTQ7Ij48cmVjdCBmaWxsPSIjRjFGMUYxIiBoZWlnaHQ9IjQ0Ljk4NDQiIHJ4PSIyLjUiIHJ5PSIyLjUiIHN0eWxlPSJzdHJva2U6IzE4MTgxODtzdHJva2Utd2lkdGg6MC41OyIgd2lkdGg9Ijk2IiB4PSIzNjkiIHk9IjQwMi45NSIvPjxyZWN0IGZpbGw9IiNGMUYxRjEiIGhlaWdodD0iMTAiIHN0eWxlPSJzdHJva2U6IzE4MTgxODtzdHJva2Utd2lkdGg6MC41OyIgd2lkdGg9IjE1IiB4PSI0NDUiIHk9IjQwNy45NSIvPjxyZWN0IGZpbGw9IiNGMUYxRjEiIGhlaWdodD0iMiIgc3R5bGU9InN0cm9rZTojMTgxODE4O3N0cm9rZS13aWR0aDowLjU7IiB3aWR0aD0iNCIgeD0iNDQzIiB5PSI0MDkuOTUiLz48cmVjdCBmaWxsPSIjRjFGMUYxIiBoZWlnaHQ9IjIiIHN0eWxlPSJzdHJva2U6IzE4MTgxODtzdHJva2Utd2lkdGg6MC41OyIgd2lkdGg9IjQiIHg9IjQ0MyIgeT0iNDEzLjk1Ii8+PHRleHQgZmlsbD0iIzAwMDAwMCIgZm9udC1mYW1pbHk9InNhbnMtc2VyaWYiIGZvbnQtc2l6ZT0iMTQiIGxlbmd0aEFkanVzdD0ic3BhY2luZyIgdGV4dExlbmd0aD0iNTYiIHg9IjM4NCIgeT0iNDM2LjE4NDQiPiYjMzQ4OTI7JiMzMTI0MzsmIzM2MzE5OyYjMzYzOTQ7PC90ZXh0PjwvZz48IS0tZW50aXR5ID8/Pz8tLT48ZyBpZD0iZWxlbV8mIzMyNTAwOyYjMjUyNTI7JiMzNTc2MDsmIzI0NDA1OyI+PHJlY3QgZmlsbD0iI0YxRjFGMSIgaGVpZ2h0PSI0NC45ODQ0IiByeD0iMi41IiByeT0iMi41IiBzdHlsZT0ic3Ryb2tlOiMxODE4MTg7c3Ryb2tlLXdpZHRoOjAuNTsiIHdpZHRoPSI5NiIgeD0iNTYwIiB5PSI0ODIuOTUiLz48cmVjdCBmaWxsPSIjRjFGMUYxIiBoZWlnaHQ9IjEwIiBzdHlsZT0ic3Ryb2tlOiMxODE4MTg7c3Ryb2tlLXdpZHRoOjAuNTsiIHdpZHRoPSIxNSIgeD0iNjM2IiB5PSI0ODcuOTUiLz48cmVjdCBmaWxsPSIjRjFGMUYxIiBoZWlnaHQ9IjIiIHN0eWxlPSJzdHJva2U6IzE4MTgxODtzdHJva2Utd2lkdGg6MC41OyIgd2lkdGg9IjQiIHg9IjYzNCIgeT0iNDg5Ljk1Ii8+PHJlY3QgZmlsbD0iI0YxRjFGMSIgaGVpZ2h0PSIyIiBzdHlsZT0ic3Ryb2tlOiMxODE4MTg7c3Ryb2tlLXdpZHRoOjAuNTsiIHdpZHRoPSI0IiB4PSI2MzQiIHk9IjQ5My45NSIvPjx0ZXh0IGZpbGw9IiMwMDAwMDAiIGZvbnQtZmFtaWx5PSJzYW5zLXNlcmlmIiBmb250LXNpemU9IjE0IiBsZW5ndGhBZGp1c3Q9InNwYWNpbmciIHRleHRMZW5ndGg9IjU2IiB4PSI1NzUiIHk9IjUxNi4xODQ0Ij4mIzMyNTAwOyYjMjUyNTI7JiMzNTc2MDsmIzI0NDA1OzwvdGV4dD48L2c+PCEtLWVudGl0eSA/Pz8/Pz8tLT48ZyBpZD0iZWxlbV8mIzIxNDk2OyYjMjY0MjY7JiMyMDQ0OTsmIzI0Njg3OyYjMzE2NDk7JiMyOTcwMjsiPjxyZWN0IGZpbGw9IiNGMUYxRjEiIGhlaWdodD0iNDQuOTg0NCIgcng9IjIuNSIgcnk9IjIuNSIgc3R5bGU9InN0cm9rZTojMTgxODE4O3N0cm9rZS13aWR0aDowLjU7IiB3aWR0aD0iMTI0IiB4PSIzNTUiIHk9IjY1Mi45NSIvPjxyZWN0IGZpbGw9IiNGMUYxRjEiIGhlaWdodD0iMTAiIHN0eWxlPSJzdHJva2U6IzE4MTgxODtzdHJva2Utd2lkdGg6MC41OyIgd2lkdGg9IjE1IiB4PSI0NTkiIHk9IjY1Ny45NSIvPjxyZWN0IGZpbGw9IiNGMUYxRjEiIGhlaWdodD0iMiIgc3R5bGU9InN0cm9rZTojMTgxODE4O3N0cm9rZS13aWR0aDowLjU7IiB3aWR0aD0iNCIgeD0iNDU3IiB5PSI2NTkuOTUiLz48cmVjdCBmaWxsPSIjRjFGMUYxIiBoZWlnaHQ9IjIiIHN0eWxlPSJzdHJva2U6IzE4MTgxODtzdHJva2Utd2lkdGg6MC41OyIgd2lkdGg9IjQiIHg9IjQ1NyIgeT0iNjYzLjk1Ii8+PHRleHQgZmlsbD0iIzAwMDAwMCIgZm9udC1mYW1pbHk9InNhbnMtc2VyaWYiIGZvbnQtc2l6ZT0iMTQiIGxlbmd0aEFkanVzdD0ic3BhY2luZyIgdGV4dExlbmd0aD0iODQiIHg9IjM3MCIgeT0iNjg2LjE4NDQiPiYjMjE0OTY7JiMyNjQyNjsmIzIwNDQ5OyYjMjQ2ODc7JiMzMTY0OTsmIzI5NzAyOzwvdGV4dD48L2c+PCEtLWVudGl0eSA/Pz8/Pz8/LS0+PGcgaWQ9ImVsZW1fJiMzMTY0OTsmIzI5NzAyOyYjMjE1OTI7JiMyMDQ0OTsmIzI0Njg3OyYjMzE2NDk7JiMyOTcwMjsiPjxyZWN0IGZpbGw9IiNGMUYxRjEiIGhlaWdodD0iNDQuOTg0NCIgcng9IjIuNSIgcnk9IjIuNSIgc3R5bGU9InN0cm9rZTojMTgxODE4O3N0cm9rZS13aWR0aDowLjU7IiB3aWR0aD0iMTM4IiB4PSIzNDgiIHk9IjczMi45NSIvPjxyZWN0IGZpbGw9IiNGMUYxRjEiIGhlaWdodD0iMTAiIHN0eWxlPSJzdHJva2U6IzE4MTgxODtzdHJva2Utd2lkdGg6MC41OyIgd2lkdGg9IjE1IiB4PSI0NjYiIHk9IjczNy45NSIvPjxyZWN0IGZpbGw9IiNGMUYxRjEiIGhlaWdodD0iMiIgc3R5bGU9InN0cm9rZTojMTgxODE4O3N0cm9rZS13aWR0aDowLjU7IiB3aWR0aD0iNCIgeD0iNDY0IiB5PSI3MzkuOTUiLz48cmVjdCBmaWxsPSIjRjFGMUYxIiBoZWlnaHQ9IjIiIHN0eWxlPSJzdHJva2U6IzE4MTgxODtzdHJva2Utd2lkdGg6MC41OyIgd2lkdGg9IjQiIHg9IjQ2NCIgeT0iNzQzLjk1Ii8+PHRleHQgZmlsbD0iIzAwMDAwMCIgZm9udC1mYW1pbHk9InNhbnMtc2VyaWYiIGZvbnQtc2l6ZT0iMTQiIGxlbmd0aEFkanVzdD0ic3BhY2luZyIgdGV4dExlbmd0aD0iOTgiIHg9IjM2MyIgeT0iNzY2LjE4NDQiPiYjMzE2NDk7JiMyOTcwMjsmIzIxNTkyOyYjMjA0NDk7JiMyNDY4NzsmIzMxNjQ5OyYjMjk3MDI7PC90ZXh0PjwvZz48IS0tZW50aXR5ID8/Pz8/Py0tPjxnIGlkPSJlbGVtXyYjMjQwNTI7JiMyMjc2MzsmIzIwNDQ5OyYjMjQ2ODc7JiMyNjU5NzsmIzM1ODEwOyI+PHJlY3QgZmlsbD0iI0YxRjFGMSIgaGVpZ2h0PSI0NC45ODQ0IiByeD0iMi41IiByeT0iMi41IiBzdHlsZT0ic3Ryb2tlOiMxODE4MTg7c3Ryb2tlLXdpZHRoOjAuNTsiIHdpZHRoPSIxMjQiIHg9Ijc1OCIgeT0iMjMyLjk1Ii8+PHJlY3QgZmlsbD0iI0YxRjFGMSIgaGVpZ2h0PSIxMCIgc3R5bGU9InN0cm9rZTojMTgxODE4O3N0cm9rZS13aWR0aDowLjU7IiB3aWR0aD0iMTUiIHg9Ijg2MiIgeT0iMjM3Ljk1Ii8+PHJlY3QgZmlsbD0iI0YxRjFGMSIgaGVpZ2h0PSIyIiBzdHlsZT0ic3Ryb2tlOiMxODE4MTg7c3Ryb2tlLXdpZHRoOjAuNTsiIHdpZHRoPSI0IiB4PSI4NjAiIHk9IjIzOS45NSIvPjxyZWN0IGZpbGw9IiNGMUYxRjEiIGhlaWdodD0iMiIgc3R5bGU9InN0cm9rZTojMTgxODE4O3N0cm9rZS13aWR0aDowLjU7IiB3aWR0aD0iNCIgeD0iODYwIiB5PSIyNDMuOTUiLz48dGV4dCBmaWxsPSIjMDAwMDAwIiBmb250LWZhbWlseT0ic2Fucy1zZXJpZiIgZm9udC1zaXplPSIxNCIgbGVuZ3RoQWRqdXN0PSJzcGFjaW5nIiB0ZXh0TGVuZ3RoPSI4NCIgeD0iNzczIiB5PSIyNjYuMTg0NCI+JiMyNDA1MjsmIzIyNzYzOyYjMjA0NDk7JiMyNDY4NzsmIzI2NTk3OyYjMzU4MTA7PC90ZXh0PjwvZz48IS0tZW50aXR5ID8/Pz8/Py0tPjxnIGlkPSJlbGVtXyYjMjE0OTY7JiMyNjQyNjsmIzIwNDQ5OyYjMjQ2ODc7JiMyNjU5NzsmIzM1ODEwOyI+PHJlY3QgZmlsbD0iI0YxRjFGMSIgaGVpZ2h0PSI0NC45ODQ0IiByeD0iMi41IiByeT0iMi41IiBzdHlsZT0ic3Ryb2tlOiMxODE4MTg7c3Ryb2tlLXdpZHRoOjAuNTsiIHdpZHRoPSIxMjQiIHg9Ijc1OCIgeT0iMTUyLjk1Ii8+PHJlY3QgZmlsbD0iI0YxRjFGMSIgaGVpZ2h0PSIxMCIgc3R5bGU9InN0cm9rZTojMTgxODE4O3N0cm9rZS13aWR0aDowLjU7IiB3aWR0aD0iMTUiIHg9Ijg2MiIgeT0iMTU3Ljk1Ii8+PHJlY3QgZmlsbD0iI0YxRjFGMSIgaGVpZ2h0PSIyIiBzdHlsZT0ic3Ryb2tlOiMxODE4MTg7c3Ryb2tlLXdpZHRoOjAuNTsiIHdpZHRoPSI0IiB4PSI4NjAiIHk9IjE1OS45NSIvPjxyZWN0IGZpbGw9IiNGMUYxRjEiIGhlaWdodD0iMiIgc3R5bGU9InN0cm9rZTojMTgxODE4O3N0cm9rZS13aWR0aDowLjU7IiB3aWR0aD0iNCIgeD0iODYwIiB5PSIxNjMuOTUiLz48dGV4dCBmaWxsPSIjMDAwMDAwIiBmb250LWZhbWlseT0ic2Fucy1zZXJpZiIgZm9udC1zaXplPSIxNCIgbGVuZ3RoQWRqdXN0PSJzcGFjaW5nIiB0ZXh0TGVuZ3RoPSI4NCIgeD0iNzczIiB5PSIxODYuMTg0NCI+JiMyMTQ5NjsmIzI2NDI2OyYjMjA0NDk7JiMyNDY4NzsmIzI2NTk3OyYjMzU4MTA7PC90ZXh0PjwvZz48IS0tZW50aXR5ID8/Pz8/Py0tPjxnIGlkPSJlbGVtXyYjMzQ4OTI7JiMzMTI0MzsmIzIwNDQ5OyYjMjQ2ODc7JiMyNjU5NzsmIzM1ODEwOyI+PHJlY3QgZmlsbD0iI0YxRjFGMSIgaGVpZ2h0PSI0NC45ODQ0IiByeD0iMi41IiByeT0iMi41IiBzdHlsZT0ic3Ryb2tlOiMxODE4MTg7c3Ryb2tlLXdpZHRoOjAuNTsiIHdpZHRoPSIxMjQiIHg9Ijk0MiIgeT0iMjMyLjk1Ii8+PHJlY3QgZmlsbD0iI0YxRjFGMSIgaGVpZ2h0PSIxMCIgc3R5bGU9InN0cm9rZTojMTgxODE4O3N0cm9rZS13aWR0aDowLjU7IiB3aWR0aD0iMTUiIHg9IjEwNDYiIHk9IjIzNy45NSIvPjxyZWN0IGZpbGw9IiNGMUYxRjEiIGhlaWdodD0iMiIgc3R5bGU9InN0cm9rZTojMTgxODE4O3N0cm9rZS13aWR0aDowLjU7IiB3aWR0aD0iNCIgeD0iMTA0NCIgeT0iMjM5Ljk1Ii8+PHJlY3QgZmlsbD0iI0YxRjFGMSIgaGVpZ2h0PSIyIiBzdHlsZT0ic3Ryb2tlOiMxODE4MTg7c3Ryb2tlLXdpZHRoOjAuNTsiIHdpZHRoPSI0IiB4PSIxMDQ0IiB5PSIyNDMuOTUiLz48dGV4dCBmaWxsPSIjMDAwMDAwIiBmb250LWZhbWlseT0ic2Fucy1zZXJpZiIgZm9udC1zaXplPSIxNCIgbGVuZ3RoQWRqdXN0PSJzcGFjaW5nIiB0ZXh0TGVuZ3RoPSI4NCIgeD0iOTU3IiB5PSIyNjYuMTg0NCI+JiMzNDg5MjsmIzMxMjQzOyYjMjA0NDk7JiMyNDY4NzsmIzI2NTk3OyYjMzU4MTA7PC90ZXh0PjwvZz48ZyBpZD0iZWxlbV9kYiI+PGVsbGlwc2UgY3g9IjEwMDQuMTgzOCIgY3k9IjkyNC41NDU2IiBmaWxsPSIjRjFGMUYxIiByeD0iNDEuMTgzOCIgcnk9IjEzLjU5NTYiIHN0eWxlPSJzdHJva2U6IzE4MTgxODtzdHJva2Utd2lkdGg6MC41OyIvPjx0ZXh0IGZpbGw9IiMwMDAwMDAiIGZvbnQtZmFtaWx5PSJzYW5zLXNlcmlmIiBmb250LXNpemU9IjE0IiBsZW5ndGhBZGp1c3Q9InNwYWNpbmciIHRleHRMZW5ndGg9IjQyIiB4PSI5ODMuMTgzOCIgeT0iOTI4LjI4NzciPiYjMjU5Njg7JiMyNTQ1NDsmIzI0MjExOzwvdGV4dD48L2c+PCEtLWxpbmsgbG9naW4gdG8gbWFpbi0tPjxnIGlkPSJsaW5rX2xvZ2luX21haW4iPjxwYXRoIGQ9Ik0xMTAuMSw1NjMuNDUgQzEyNy44OCw1NjMuNDUgMTQ0LjQ5LDU2My40NSAxNjMuNzEsNTYzLjQ1ICIgZmlsbD0ibm9uZSIgaWQ9ImxvZ2luLXRvLW1haW4iIHN0eWxlPSJzdHJva2U6IzE4MTgxODtzdHJva2Utd2lkdGg6MS4wOyIvPjxwb2x5Z29uIGZpbGw9IiMxODE4MTgiIHBvaW50cz0iMTY5LjcxLDU2My40NSwxNjAuNzEsNTU5LjQ1LDE2NC43MSw1NjMuNDUsMTYwLjcxLDU2Ny40NSwxNjkuNzEsNTYzLjQ1IiBzdHlsZT0ic3Ryb2tlOiMxODE4MTg7c3Ryb2tlLXdpZHRoOjEuMDsiLz48L2c+PCEtLWxpbmsgbWFpbiB0byBkYi0tPjxnIGlkPSJsaW5rX21haW5fZGIiPjxwYXRoIGQ9Ik0yMTMuNzUsNTc2Ljk2IEMyMjAuMzgsNjI2LjEgMjQ1LjU2LDc5NC4yMSAyODQsODI5LjQ1IEM0ODMuNzgsMTAxMi41OSA4NTAuMDM5Nyw5NTYuMTEyNSA5NjMuNDQ5Nyw5MzMuMTEyNSAiIGZpbGw9Im5vbmUiIGlkPSJtYWluLXRvLWRiIiBzdHlsZT0ic3Ryb2tlOiMxODE4MTg7c3Ryb2tlLXdpZHRoOjEuMDsiLz48cG9seWdvbiBmaWxsPSIjMTgxODE4IiBwb2ludHM9Ijk2OS4zMyw5MzEuOTIsOTU5LjcxNDUsOTI5Ljc4ODYsOTY0LjQyOTgsOTMyLjkxMzgsOTYxLjMwNDYsOTM3LjYyOSw5NjkuMzMsOTMxLjkyIiBzdHlsZT0ic3Ryb2tlOiMxODE4MTg7c3Ryb2tlLXdpZHRoOjEuMDsiLz48L2c+PCEtLWxpbmsgbWFpbiB0byA/Pz8/Pz8tLT48ZyBpZD0ibGlua19tYWluXyYjMjQwNTI7JiMyMjc2MzsmIzIwNDQ5OyYjMjQ2ODc7JiMzMTY0OTsmIzI5NzAyOyI+PHBhdGggZD0iTTIxNC4zMiw1NDkuODQgQzIyMC40LDUxNy44IDIzOS41MSw0MzYuNTYgMjg0LDM4Ni40NSBDMzA1LjkwNSwzNjEuNzc1IDMzOC4yMjUsMzQzLjcwNSAzNjUuNDAxMywzMzEuNzE2MyBDMzcyLjE5NTMsMzI4LjcxOTEgMzc4LjY2NzksMzI2LjEwMiAzODQuNTc1OSwzMjMuODU2NyBDMzg2LjA1MjksMzIzLjI5NTQgMzg3LjQ5NDYsMzIyLjc1NzQgMzg4Ljg5NzIsMzIyLjI0MjQgQzM4OS41OTg1LDMyMS45ODUgMzg0LjY0NjUsMzIzLjc3MDUgMzg1LjMyNzgsMzIzLjUyNDUgIiBmaWxsPSJub25lIiBpZD0ibWFpbi10by0mIzI0MDUyOyYjMjI3NjM7JiMyMDQ0OTsmIzI0Njg3OyYjMzE2NDk7JiMyOTcwMjsiIHN0eWxlPSJzdHJva2U6IzE4MTgxODtzdHJva2Utd2lkdGg6MS4wOyIvPjxwb2x5Z29uIGZpbGw9IiMxODE4MTgiIHBvaW50cz0iMzkwLjk3MTQsMzIxLjQ4NzMsMzgxLjE0NzksMzIwLjc4MDcsMzg2LjI2ODQsMzIzLjE4NSwzODMuODY0MSwzMjguMzA1NSwzOTAuOTcxNCwzMjEuNDg3MyIgc3R5bGU9InN0cm9rZTojMTgxODE4O3N0cm9rZS13aWR0aDoxLjA7Ii8+PC9nPjwhLS1saW5rIG1haW4gdG8gPz8/Pz8/LS0+PGcgaWQ9ImxpbmtfbWFpbl8mIzM0ODkyOyYjMzEyNDM7JiMzNTg0MzsmIzI0MjMwOyYjMzE2NDk7JiMyOTcwMjsiPjxwYXRoIGQ9Ik0yNTIuMyw1NjMuNDUgQzI2Ni45MzI1LDU2My40NSAyODQuMjc2OSw1NjMuNDUgMzAyLjExMjIsNTYzLjQ1IEMzMTEuMDI5OCw1NjMuNDUgMzIwLjA3MDIsNTYzLjQ1IDMyOC45NTU3LDU2My40NSBDMzMzLjM5ODUsNTYzLjQ1IDMzNy44MDI1LDU2My40NSAzNDIuMTMzMSw1NjMuNDUgQzM0Mi42NzQ1LDU2My40NSAzNDMuMjE0Niw1NjMuNDUgMzQzLjc1MzYsNTYzLjQ1IEMzNDQuMDIzMSw1NjMuNDUgMzM4LjI5MjMsNTYzLjQ1IDMzOC41NjExLDU2My40NSAiIGZpbGw9Im5vbmUiIGlkPSJtYWluLXRvLSYjMzQ4OTI7JiMzMTI0MzsmIzM1ODQzOyYjMjQyMzA7JiMzMTY0OTsmIzI5NzAyOyIgc3R5bGU9InN0cm9rZTojMTgxODE4O3N0cm9rZS13aWR0aDoxLjA7Ii8+PHBvbHlnb24gZmlsbD0iIzE4MTgxOCIgcG9pbnRzPSIzNDQuNTYxMSw1NjMuNDUsMzM1LjU2MTEsNTU5LjQ1LDMzOS41NjExLDU2My40NSwzMzUuNTYxMSw1NjcuNDUsMzQ0LjU2MTEsNTYzLjQ1IiBzdHlsZT0ic3Ryb2tlOiMxODE4MTg7c3Ryb2tlLXdpZHRoOjEuMDsiLz48L2c+PCEtLWxpbmsgbWFpbiB0byA/Pz8/Pz8tLT48ZyBpZD0ibGlua19tYWluXyYjMjAxNTQ7JiMyMTU5MjsmIzIwNDQ5OyYjMjQ2ODc7JiMzMTY0OTsmIzI5NzAyOyI+PHBhdGggZD0iTTIxMS42NCw1NzcuMDIgQzIxMS4zNyw2MTcuMzEgMjE2LjU0LDczNi45NiAyODQsNzk0LjQ1IEMyOTUuMTAyNSw4MDMuOTEyNSAzMDguNzM0NCw4MDkuODY4MSAzMjIuOTc4NCw4MTMuNDY5OCBDMzIzLjIwMSw4MTMuNTI2MSAzMTcuNTk5Myw4MTIuMTQwOSAzMTcuODIyMiw4MTIuMTk2MSAiIGZpbGw9Im5vbmUiIGlkPSJtYWluLXRvLSYjMjAxNTQ7JiMyMTU5MjsmIzIwNDQ5OyYjMjQ2ODc7JiMzMTY0OTsmIzI5NzAyOyIgc3R5bGU9InN0cm9rZTojMTgxODE4O3N0cm9rZS13aWR0aDoxLjA7Ii8+PHBvbHlnb24gZmlsbD0iIzE4MTgxOCIgcG9pbnRzPSIzMjMuNjQ2Niw4MTMuNjM3LDMxNS44NzA1LDgwNy41OTI3LDMxOC43OTI5LDgxMi40MzYyLDMxMy45NDkzLDgxNS4zNTg2LDMyMy42NDY2LDgxMy42MzciIHN0eWxlPSJzdHJva2U6IzE4MTgxODtzdHJva2Utd2lkdGg6MS4wOyIvPjwvZz48IS0tbGluayBtYWluIHRvID8/Pz8tLT48ZyBpZD0ibGlua19tYWluXyYjMjA0NDk7JiMyNDY4NzsmIzI2NTk3OyYjMzU4MTA7Ij48cGF0aCBkPSJNMjEyLjA2LDU0OS45NCBDMjEyLjY1LDQ4My4zOCAyMTguOTgsMTkxLjQyIDI4NCwxMzYuNDUgQzQyOC41OCwxNC4yMSA1NzIuNzgsNiA3MTAsMTM2LjQ1IEM3MjIuNzQsMTQ4LjU2IDcwNi40NCwyODEuMjEgNzE4LDI5NC40NSBDNzIxLjY5NjMsMjk4LjY4MzggNzI2LjAxMiwzMDIuMTYzMyA3MzAuNzM4OSwzMDUuMDEwMSBDNzMxLjMyOTgsMzA1LjM2NTkgNzMxLjkyNzEsMzA1LjcxMTkgNzMyLjUzMDQsMzA2LjA0ODIgQzczMi44MzIsMzA2LjIxNjQgNzMzLjEzNTIsMzA2LjM4MjEgNzMzLjQzOTgsMzA2LjU0NTUgQzczMy41OTIxLDMwNi42MjcyIDcyOC40MzQ2LDMwMy45MTUgNzI4LjU4NzYsMzAzLjk5NTUgIiBmaWxsPSJub25lIiBpZD0ibWFpbi10by0mIzIwNDQ5OyYjMjQ2ODc7JiMyNjU5NzsmIzM1ODEwOyIgc3R5bGU9InN0cm9rZTojMTgxODE4O3N0cm9rZS13aWR0aDoxLjA7Ii8+PHBvbHlnb24gZmlsbD0iIzE4MTgxOCIgcG9pbnRzPSI3MzMuODk3OCwzMDYuNzg4OCw3MjcuNzk0NywyOTkuMDU4OCw3MjkuNDcyNywzMDQuNDYxLDcyNC4wNzA0LDMwNi4xMzksNzMzLjg5NzgsMzA2Ljc4ODgiIHN0eWxlPSJzdHJva2U6IzE4MTgxODtzdHJva2Utd2lkdGg6MS4wOyIvPjwvZz48IS0tbGluayA/Pz8/Pz8gdG8gZGItLT48ZyBpZD0ibGlua18mIzI0MDUyOyYjMjI3NjM7JiMyMDQ0OTsmIzI0Njg3OyYjMzE2NDk7JiMyOTcwMjtfZGIiPjxwYXRoIGQ9Ik00MzkuNDI0NSwzMjEuNDc5MyBDNDM5LjU3MDYsMzIxLjU0MSA0MzkuNzE3MiwzMjEuNjAzMSA0MzkuODY0MywzMjEuNjY1NiBDNDQwLjQ1MjgsMzIxLjkxNTUgNDQxLjA0OTYsMzIyLjE3MTEgNDQxLjY1NDQsMzIyLjQzMjYgQzQ0Mi44NjM5LDMyMi45NTU0IDQ0NC4xMDUsMzIzLjUwMTMgNDQ1LjM3NDEsMzI0LjA3MDMgQzQ1MC40NTA1LDMyNi4zNDY0IDQ1NS45NzQ3LDMyOC45OTI1IDQ2MS43MTM4LDMzMi4wMTI1IEM0ODQuNjcsMzQ0LjA5MjUgNTExLjA2NSwzNjIuMTU1IDUyNiwzODYuNDUgQzU2My4wNyw0NDYuNzUgNTExLjk3LDQ4Mi4zOCA1NDYsNTQ0LjQ1IEM1NjAuMDgsNTcwLjEyIDkwMy44MjAzLDg0NS4zMDc1IDk4Mi41OTAzLDkwOC4xNjc1ICIgZmlsbD0ibm9uZSIgaWQ9IiYjMjQwNTI7JiMyMjc2MzsmIzIwNDQ5OyYjMjQ2ODc7JiMzMTY0OTsmIzI5NzAyOy10by1kYiIgc3R5bGU9InN0cm9rZTojMTgxODE4O3N0cm9rZS13aWR0aDoxLjA7Ii8+PHBvbHlnb24gZmlsbD0iIzE4MTgxOCIgcG9pbnRzPSI5ODcuMjgsOTExLjkxLDk4Mi43NDA0LDkwMy4xNjk4LDk4My4zNzE5LDkwOC43OTEyLDk3Ny43NTA0LDkwOS40MjI3LDk4Ny4yOCw5MTEuOTEiIHN0eWxlPSJzdHJva2U6IzE4MTgxODtzdHJva2Utd2lkdGg6MS4wOyIvPjwvZz48IS0tbGluayA/Pz8/Pz8gdG8gZGItLT48ZyBpZD0ibGlua18mIzM0ODkyOyYjMzEyNDM7JiMzNTg0MzsmIzI0MjMwOyYjMzE2NDk7JiMyOTcwMjtfZGIiPjxwYXRoIGQ9Ik00MzcuODgwOCw1NzEuNTU0NCBDNDM4LjAyMDcsNTcxLjYxNzMgNDM4LjE2MTIsNTcxLjY4MDYgNDM4LjMwMjMsNTcxLjc0NDMgQzQzOC41ODQ0LDU3MS44NzE2IDQzOC44Njg2LDU3Mi4wMDA0IDQzOS4xNTQ5LDU3Mi4xMzA2IEM0MzkuNzI3Niw1NzIuMzkxIDQ0MC4zMDg2LDU3Mi42NTcyIDQ0MC44OTc2LDU3Mi45MjkxIEM0NDIuMDc1Niw1NzMuNDcyOSA0NDMuMjg1Myw1NzQuMDM5NyA0NDQuNTIzNSw1NzQuNjI5MyBDNDQ5LjQ3NjMsNTc2Ljk4NzcgNDU0Ljg4NDEsNTc5LjcxMTMgNDYwLjUzMTMsNTgyLjc5MjUgQzQ4My4xMiw1OTUuMTE3NSA1MDkuNTQsNjEzLjE2NSA1MjYsNjM2LjQ1IEM1NDYuNDEsNjY1LjMyIDUyMy4zMyw2ODYuMzIgNTQ2LDcxMy40NSBDNTc2LjQ3LDc0OS45MSA4NzkuNDc4OSw4NzQuNDY3MyA5NzEuNjA4OSw5MTEuNzg3MyAiIGZpbGw9Im5vbmUiIGlkPSImIzM0ODkyOyYjMzEyNDM7JiMzNTg0MzsmIzI0MjMwOyYjMzE2NDk7JiMyOTcwMjstdG8tZGIiIHN0eWxlPSJzdHJva2U6IzE4MTgxODtzdHJva2Utd2lkdGg6MS4wOyIvPjxwb2x5Z29uIGZpbGw9IiMxODE4MTgiIHBvaW50cz0iOTc3LjE3LDkxNC4wNCw5NzAuMzMwMiw5MDYuOTUzNiw5NzIuNTM1OCw5MTIuMTYyOCw5NjcuMzI2Niw5MTQuMzY4NCw5NzcuMTcsOTE0LjA0IiBzdHlsZT0ic3Ryb2tlOiMxODE4MTg7c3Ryb2tlLXdpZHRoOjEuMDsiLz48L2c+PCEtLWxpbmsgPz8/Pz8/IHRvIGRiLS0+PGcgaWQ9ImxpbmtfJiMyMDE1NDsmIzIxNTkyOyYjMjA0NDk7JiMyNDY4NzsmIzMxNjQ5OyYjMjk3MDI7X2RiIj48cGF0aCBkPSJNNDYwLjg4MDksODIxLjU3NTYgQzQ2MS43MjQ4LDgyMS43MzU1IDQ2Mi41Nzk2LDgyMS44OTc1IDQ2My40NDUyLDgyMi4wNjE2IEM0OTEuMTQyMiw4MjcuMzEwNiA1MjkuODMwNiw4MzQuNjQzOCA1NzQuNzg4OCw4NDMuMTY3NSBDNjY0LjcwNSw4NjAuMjE1IDc3OS43LDg4Mi4wMjUgODgyLDkwMS40NSBDOTEwLjk5LDkwNi45NSA5MzcuOTk1NCw5MTIuMDkwMSA5NjIuMTU1NCw5MTYuNjgwMSAiIGZpbGw9Im5vbmUiIGlkPSImIzIwMTU0OyYjMjE1OTI7JiMyMDQ0OTsmIzI0Njg3OyYjMzE2NDk7JiMyOTcwMjstdG8tZGIiIHN0eWxlPSJzdHJva2U6IzE4MTgxODtzdHJva2Utd2lkdGg6MS4wOyIvPjxwb2x5Z29uIGZpbGw9IiMxODE4MTgiIHBvaW50cz0iOTY4LjA1LDkxNy44LDk1OS45NTQ3LDkxMi4xOTA1LDk2My4xMzc5LDkxNi44NjY4LDk1OC40NjE2LDkyMC4wNDk5LDk2OC4wNSw5MTcuOCIgc3R5bGU9InN0cm9rZTojMTgxODE4O3N0cm9rZS13aWR0aDoxLjA7Ii8+PC9nPjwhLS1saW5rID8/Pz8gdG8gZGItLT48ZyBpZD0ibGlua18mIzIwNDQ5OyYjMjQ2ODc7JiMyNjU5NzsmIzM1ODEwO19kYiI+PHBhdGggZD0iTTgyMy4zOTYzLDMyMS41MDM3IEM4MjMuNDc3NiwzMjEuNzc2NiA4MjMuNTYwOCwzMjIuMDU2MSA4MjMuNjQ2LDMyMi4zNDIxIEM4MjMuODE2NCwzMjIuOTE0MSA4MjMuOTk0NiwzMjMuNTEyMyA4MjQuMTgwNCwzMjQuMTM2MSBDODI0LjU1MjEsMzI1LjM4MzggODI0Ljk1NDQsMzI2LjczNDMgODI1LjM4NjMsMzI4LjE4NDEgQzgyNi4yNSwzMzEuMDgzOCA4MjcuMjMyMSwzMzQuMzgwOCA4MjguMzI0NCwzMzguMDQ3NiBDODMyLjY5MzUsMzUyLjcxNDkgODM4LjgyNTIsMzczLjI5OTIgODQ2LjE5NDEsMzk4LjAzNzIgQzg2MC45MzE5LDQ0Ny41MTMxIDg4MC42MTg4LDUxMy42MDM4IDkwMS4wNTI1LDU4Mi4yMDI1IEM5NDEuOTIsNzE5LjQgOTg0LjA2MjYsODYwLjg3OTYgOTk3LjI4NzYsOTA1LjI4OTYgIiBmaWxsPSJub25lIiBpZD0iJiMyMDQ0OTsmIzI0Njg3OyYjMjY1OTc7JiMzNTgxMDstdG8tZGIiIHN0eWxlPSJzdHJva2U6IzE4MTgxODtzdHJva2Utd2lkdGg6MS4wOyIvPjxwb2x5Z29uIGZpbGw9IiMxODE4MTgiIHBvaW50cz0iOTk5LDkxMS4wNCwxMDAwLjI2NSw5MDEuMjcyNyw5OTcuNTczLDkwNi4yNDgsOTkyLjU5NzcsOTAzLjU1Niw5OTksOTExLjA0IiBzdHlsZT0ic3Ryb2tlOiMxODE4MTg7c3Ryb2tlLXdpZHRoOjEuMDsiLz48L2c+PCEtLVNSQz1bVFBCREppOTA1OE50Vk9lOUFydG0yaHc0SXpENVhMZVJJYWtXWUo2YzJvS1FIRm83MjhjYTVqNHE2V2s5OTYwUm1panFWZFdCTW1QQUl1VWtma1N4Q19WRXRBRThIcGhHREwyTWZNQ1R2RU1vY0REYkpVS2cxTGFqMk1NWDI0ZjJoWTE4dWh2LWdlV1duODhnQUlCN0hLa0dXVUNIVkZfNlplS1ZobDJsWHBxcDB5dXUzZ3BzV1dua3NnV3NuZ3Q2bERpQjZHWS0wenBudUJKNTB3NDJUWEhEYWpMVGdsaUpacGVmQVdnSzY4YUpPVHFhckljb0JUWHpNUHNPUWljVk1VWHlHMWpSY084MlNIWHEwMnlfVTJRZ2xTcXhWSVJvUG12Z19iNWFSRE9jTFdGUkRzSE9YVXZkZ1pRNXFCYjZUcXp5S1lIWmFxby04WDV4OHJKbDRzU09GWEF4YWstd3lCNnp4UFJ0NF9KZ25rN3d3Q05sbmpQakRIT01QN3dHR01fQjZyQjhpbWZsODdoSEQzOUl5cU1qOFJmcnU0eVJOalhIT2ZRWS1xb0phSi1DU2g0QzRDWGN6elE5ZUdrZ1hUd09iRFRFcjQxY3ZPSlhPYW9LdU05Q1ctTUFsc1ZPNFpFaEtTLTBkUVN1UHdLV21IQ0paOFpuM20wMF0tLT48L2c+PC9zdmc+;" vertex="1" parent="1">
            <mxGeometry x="-440" y="-30" width="1152" height="1019" as="geometry" />
          </mxCell>
        </UserObject>
        <UserObject label="" plantUmlData="{&#xa;  &quot;data&quot;: &quot;@startuml\n&#39; 设置方向和样式\nleft to right direction\nskinparam rectangle {\n  BorderColor Black\n  BackgroundColor White\n}\n\n&#39; 定义数据流节点\nrectangle \&quot;用户接口\&quot; as UI\nrectangle \&quot;业务逻辑处理\&quot; as BL {\n  rectangle \&quot;巴士信息处理\&quot; as BIP\n  rectangle \&quot;人员信息处理\&quot; as PIP\n  rectangle \&quot;行程信息处理\&quot; as TIP\n}\nrectangle \&quot;数据存储\&quot; as DS\n\n&#39; 定义数据流\nUI -right-&gt; BIP : 输入/更新\\n巴士数据\nUI -right-&gt; PIP : 输入/更新\\n人员数据\nUI -right-&gt; TIP : 输入/更新\\n行程数据\nBIP --&gt; DS : 存储/查询\\n巴士数据\nPIP --&gt; DS : 存储/查询\\n人员数据\nTIP --&gt; DS : 存储/查询\\n行程数据\n\n@enduml\n&quot;,&#xa;  &quot;format&quot;: &quot;svg&quot;&#xa;}" id="fYDE9vizx6uy-5a_bvqT-2">
          <mxCell style="shape=image;noLabel=1;verticalAlign=top;aspect=fixed;imageAspect=0;image=data:image/svg+xml,PD94bWwgdmVyc2lvbj0iMS4wIiBlbmNvZGluZz0idXMtYXNjaWkiIHN0YW5kYWxvbmU9Im5vIj8+PHN2ZyB4bWxucz0iaHR0cDovL3d3dy53My5vcmcvMjAwMC9zdmciIHhtbG5zOnhsaW5rPSJodHRwOi8vd3d3LnczLm9yZy8xOTk5L3hsaW5rIiBjb250ZW50U3R5bGVUeXBlPSJ0ZXh0L2NzcyIgaGVpZ2h0PSIzMjBweCIgcHJlc2VydmVBc3BlY3RSYXRpbz0ibm9uZSIgc3R5bGU9IndpZHRoOjQyNXB4O2hlaWdodDozMjBweDtiYWNrZ3JvdW5kOiNGRkZGRkY7IiB2ZXJzaW9uPSIxLjEiIHZpZXdCb3g9IjAgMCA0MjUgMzIwIiB3aWR0aD0iNDI1cHgiIHpvb21BbmRQYW49Im1hZ25pZnkiPjxkZWZzLz48Zz48IS0tY2x1c3RlciBCTC0tPjxnIGlkPSJjbHVzdGVyX0JMIj48cmVjdCBmaWxsPSIjRkZGRkZGIiBoZWlnaHQ9IjIyNSIgcng9IjIuNSIgcnk9IjIuNSIgc3R5bGU9InN0cm9rZTojMDAwMDAwO3N0cm9rZS13aWR0aDoxLjA7IiB3aWR0aD0iMTM2IiB4PSIxMDAuMTIiIHk9IjciLz48dGV4dCBmaWxsPSIjMDAwMDAwIiBmb250LWZhbWlseT0ic2Fucy1zZXJpZiIgZm9udC1zaXplPSIxNCIgZm9udC13ZWlnaHQ9ImJvbGQiIGxlbmd0aEFkanVzdD0ic3BhY2luZyIgdGV4dExlbmd0aD0iODQiIHg9IjEyNi4xMiIgeT0iMjIuMjM0NCI+JiMxOTk5NDsmIzIxMTUzOyYjMzY5MjM7JiMzNjc1MzsmIzIyNzg4OyYjMjk3MDI7PC90ZXh0PjwvZz48IS0tZW50aXR5IEJJUC0tPjxnIGlkPSJlbGVtX0JJUCI+PHJlY3QgZmlsbD0iI0ZGRkZGRiIgaGVpZ2h0PSIzNC45ODQ0IiByeD0iMi41IiByeT0iMi41IiBzdHlsZT0ic3Ryb2tlOiMwMDAwMDA7c3Ryb2tlLXdpZHRoOjAuNTsiIHdpZHRoPSIxMDQiIHg9IjExNi4xMiIgeT0iNDAuNSIvPjx0ZXh0IGZpbGw9IiMwMDAwMDAiIGZvbnQtZmFtaWx5PSJzYW5zLXNlcmlmIiBmb250LXNpemU9IjE0IiBsZW5ndGhBZGp1c3Q9InNwYWNpbmciIHRleHRMZW5ndGg9Ijg0IiB4PSIxMjYuMTIiIHk9IjYzLjczNDQiPiYjMjQwNTI7JiMyMjc2MzsmIzIwNDQ5OyYjMjQ2ODc7JiMyMjc4ODsmIzI5NzAyOzwvdGV4dD48L2c+PCEtLWVudGl0eSBQSVAtLT48ZyBpZD0iZWxlbV9QSVAiPjxyZWN0IGZpbGw9IiNGRkZGRkYiIGhlaWdodD0iMzQuOTg0NCIgcng9IjIuNSIgcnk9IjIuNSIgc3R5bGU9InN0cm9rZTojMDAwMDAwO3N0cm9rZS13aWR0aDowLjU7IiB3aWR0aD0iMTA0IiB4PSIxMTYuMTIiIHk9IjExMC41Ii8+PHRleHQgZmlsbD0iIzAwMDAwMCIgZm9udC1mYW1pbHk9InNhbnMtc2VyaWYiIGZvbnQtc2l6ZT0iMTQiIGxlbmd0aEFkanVzdD0ic3BhY2luZyIgdGV4dExlbmd0aD0iODQiIHg9IjEyNi4xMiIgeT0iMTMzLjczNDQiPiYjMjAxNTQ7JiMyMTU5MjsmIzIwNDQ5OyYjMjQ2ODc7JiMyMjc4ODsmIzI5NzAyOzwvdGV4dD48L2c+PCEtLWVudGl0eSBUSVAtLT48ZyBpZD0iZWxlbV9USVAiPjxyZWN0IGZpbGw9IiNGRkZGRkYiIGhlaWdodD0iMzQuOTg0NCIgcng9IjIuNSIgcnk9IjIuNSIgc3R5bGU9InN0cm9rZTojMDAwMDAwO3N0cm9rZS13aWR0aDowLjU7IiB3aWR0aD0iMTA0IiB4PSIxMTYuMTIiIHk9IjE4MC41Ii8+PHRleHQgZmlsbD0iIzAwMDAwMCIgZm9udC1mYW1pbHk9InNhbnMtc2VyaWYiIGZvbnQtc2l6ZT0iMTQiIGxlbmd0aEFkanVzdD0ic3BhY2luZyIgdGV4dExlbmd0aD0iODQiIHg9IjEyNi4xMiIgeT0iMjAzLjczNDQiPiYjMzQ4OTI7JiMzMTI0MzsmIzIwNDQ5OyYjMjQ2ODc7JiMyMjc4ODsmIzI5NzAyOzwvdGV4dD48L2c+PCEtLWVudGl0eSBVSS0tPjxnIGlkPSJlbGVtX1VJIj48cmVjdCBmaWxsPSIjRkZGRkZGIiBoZWlnaHQ9IjM0Ljk4NDQiIHJ4PSIyLjUiIHJ5PSIyLjUiIHN0eWxlPSJzdHJva2U6IzAwMDAwMDtzdHJva2Utd2lkdGg6MC41OyIgd2lkdGg9Ijc2IiB4PSIxMzAuMTIiIHk9IjI3OS41Ii8+PHRleHQgZmlsbD0iIzAwMDAwMCIgZm9udC1mYW1pbHk9InNhbnMtc2VyaWYiIGZvbnQtc2l6ZT0iMTQiIGxlbmd0aEFkanVzdD0ic3BhY2luZyIgdGV4dExlbmd0aD0iNTYiIHg9IjE0MC4xMiIgeT0iMzAyLjczNDQiPiYjMjk5OTI7JiMyNTE0MzsmIzI1NTA5OyYjMjE0NzU7PC90ZXh0PjwvZz48IS0tZW50aXR5IERTLS0+PGcgaWQ9ImVsZW1fRFMiPjxyZWN0IGZpbGw9IiNGRkZGRkYiIGhlaWdodD0iMzQuOTg0NCIgcng9IjIuNSIgcnk9IjIuNSIgc3R5bGU9InN0cm9rZTojMDAwMDAwO3N0cm9rZS13aWR0aDowLjU7IiB3aWR0aD0iNzYiIHg9IjM0My4xMiIgeT0iMTEwLjUiLz48dGV4dCBmaWxsPSIjMDAwMDAwIiBmb250LWZhbWlseT0ic2Fucy1zZXJpZiIgZm9udC1zaXplPSIxNCIgbGVuZ3RoQWRqdXN0PSJzcGFjaW5nIiB0ZXh0TGVuZ3RoPSI1NiIgeD0iMzUzLjEyIiB5PSIxMzMuNzM0NCI+JiMyNTk2ODsmIzI1NDU0OyYjMjMzODQ7JiMyMDY0ODs8L3RleHQ+PC9nPjwhLS1saW5rIFVJIHRvIEJJUC0tPjxnIGlkPSJsaW5rX1VJX0JJUCI+PHBhdGggZD0iTTEzOC45MywyNzkuNCBDOTEuMzksMjQ4LjQxIDYsMTgxLjU5IDQyLjEyLDEyMC41IEM1Ny44NCw5My45MSA4My4wODg4LDgwLjIwOTggMTEwLjM3ODgsNzEuMjU5OCAiIGZpbGw9Im5vbmUiIGlkPSJVSS10by1CSVAiIHN0eWxlPSJzdHJva2U6IzE4MTgxODtzdHJva2Utd2lkdGg6MS4wOyIvPjxwb2x5Z29uIGZpbGw9IiMxODE4MTgiIHBvaW50cz0iMTE2LjA4LDY5LjM5LDEwNi4yODE3LDY4LjM5MzgsMTExLjMyOSw3MC45NDgxLDEwOC43NzQ3LDc1Ljk5NTUsMTE2LjA4LDY5LjM5IiBzdHlsZT0ic3Ryb2tlOiMxODE4MTg7c3Ryb2tlLXdpZHRoOjEuMDsiLz48dGV4dCBmaWxsPSIjMDAwMDAwIiBmb250LWZhbWlseT0ic2Fucy1zZXJpZiIgZm9udC1zaXplPSIxMyIgbGVuZ3RoQWRqdXN0PSJzcGFjaW5nIiB0ZXh0TGVuZ3RoPSI1OSIgeD0iMjQuMTIiIHk9IjEzMy43ODkxIj4mIzM2NzU1OyYjMjA4Mzc7LyYjMjYzNTY7JiMyNjAzMjs8L3RleHQ+PHRleHQgZmlsbD0iIzAwMDAwMCIgZm9udC1mYW1pbHk9InNhbnMtc2VyaWYiIGZvbnQtc2l6ZT0iMTMiIGxlbmd0aEFkanVzdD0ic3BhY2luZyIgdGV4dExlbmd0aD0iNTIiIHg9IjI3LjYyIiB5PSIxNDcuNzAzMSI+JiMyNDA1MjsmIzIyNzYzOyYjMjU5Njg7JiMyNTQ1NDs8L3RleHQ+PC9nPjwhLS1saW5rIFVJIHRvIFBJUC0tPjxnIGlkPSJsaW5rX1VJX1BJUCI+PHBhdGggZD0iTTEzMC4xLDI4Ny40MyBDMTAwLjM2LDI3Ny43MiA2MC45OCwyNTkuNDUgNDIuMTIsMjI3LjUgQzE5Ljk0LDE4OS45NCA2Ni4zNjUxLDE2My4yNjEzIDExMC4xNTUxLDE0Ni41MzEzICIgZmlsbD0ibm9uZSIgaWQ9IlVJLXRvLVBJUCIgc3R5bGU9InN0cm9rZTojMTgxODE4O3N0cm9rZS13aWR0aDoxLjA7Ii8+PHBvbHlnb24gZmlsbD0iIzE4MTgxOCIgcG9pbnRzPSIxMTUuNzYsMTQ0LjM5LDEwNS45MjUxLDE0My44NjU0LDExMS4wODkzLDE0Ni4xNzQ1LDEwOC43ODAzLDE1MS4zMzg2LDExNS43NiwxNDQuMzkiIHN0eWxlPSJzdHJva2U6IzE4MTgxODtzdHJva2Utd2lkdGg6MS4wOyIvPjx0ZXh0IGZpbGw9IiMwMDAwMDAiIGZvbnQtZmFtaWx5PSJzYW5zLXNlcmlmIiBmb250LXNpemU9IjEzIiBsZW5ndGhBZGp1c3Q9InNwYWNpbmciIHRleHRMZW5ndGg9IjU5IiB4PSIyNC4xMiIgeT0iMjExLjc4OTEiPiYjMzY3NTU7JiMyMDgzNzsvJiMyNjM1NjsmIzI2MDMyOzwvdGV4dD48dGV4dCBmaWxsPSIjMDAwMDAwIiBmb250LWZhbWlseT0ic2Fucy1zZXJpZiIgZm9udC1zaXplPSIxMyIgbGVuZ3RoQWRqdXN0PSJzcGFjaW5nIiB0ZXh0TGVuZ3RoPSI1MiIgeD0iMjcuNjIiIHk9IjIyNS43MDMxIj4mIzIwMTU0OyYjMjE1OTI7JiMyNTk2ODsmIzI1NDU0OzwvdGV4dD48L2c+PCEtLWxpbmsgVUkgdG8gVElQLS0+PGcgaWQ9ImxpbmtfVUlfVElQIj48cGF0aCBkPSJNMTY4LjEyLDI3OS4zIEMxNjguMTIsMjYxLjI4IDE2OC4xMiwyMzkuNTEgMTY4LjEyLDIyMS41NSAiIGZpbGw9Im5vbmUiIGlkPSJVSS10by1USVAiIHN0eWxlPSJzdHJva2U6IzE4MTgxODtzdHJva2Utd2lkdGg6MS4wOyIvPjxwb2x5Z29uIGZpbGw9IiMxODE4MTgiIHBvaW50cz0iMTY4LjEyLDIxNS41NSwxNjQuMTIsMjI0LjU1LDE2OC4xMiwyMjAuNTUsMTcyLjEyLDIyNC41NSwxNjguMTIsMjE1LjU1IiBzdHlsZT0ic3Ryb2tlOiMxODE4MTg7c3Ryb2tlLXdpZHRoOjEuMDsiLz48dGV4dCBmaWxsPSIjMDAwMDAwIiBmb250LWZhbWlseT0ic2Fucy1zZXJpZiIgZm9udC1zaXplPSIxMyIgbGVuZ3RoQWRqdXN0PSJzcGFjaW5nIiB0ZXh0TGVuZ3RoPSI1OSIgeD0iMTIxLjEyIiB5PSIyNDYuMjg5MSI+JiMzNjc1NTsmIzIwODM3Oy8mIzI2MzU2OyYjMjYwMzI7PC90ZXh0Pjx0ZXh0IGZpbGw9IiMwMDAwMDAiIGZvbnQtZmFtaWx5PSJzYW5zLXNlcmlmIiBmb250LXNpemU9IjEzIiBsZW5ndGhBZGp1c3Q9InNwYWNpbmciIHRleHRMZW5ndGg9IjUyIiB4PSIxMjQuNjIiIHk9IjI2MC4yMDMxIj4mIzM0ODkyOyYjMzEyNDM7JiMyNTk2ODsmIzI1NDU0OzwvdGV4dD48L2c+PCEtLWxpbmsgQklQIHRvIERTLS0+PGcgaWQ9ImxpbmtfQklQX0RTIj48cGF0aCBkPSJNMjIwLjM1LDcwLjIzIEMyNDguMTIsNzcuMzYgMjgyLjg1LDg3LjA5IDMxMy4xMiw5OCBDMzIzLjE5LDEwMS42MyAzMjguMzkyMiwxMDMuNjYxOCAzMzguMTkyMiwxMDguMDQxOCAiIGZpbGw9Im5vbmUiIGlkPSJCSVAtdG8tRFMiIHN0eWxlPSJzdHJva2U6IzE4MTgxODtzdHJva2Utd2lkdGg6MS4wOyIvPjxwb2x5Z29uIGZpbGw9IiMxODE4MTgiIHBvaW50cz0iMzQzLjY3LDExMC40OSwzMzcuMDg1NSwxMDMuMTY1OCwzMzkuMTA1MiwxMDguNDQ5OCwzMzMuODIxMiwxMTAuNDY5NSwzNDMuNjcsMTEwLjQ5IiBzdHlsZT0ic3Ryb2tlOiMxODE4MTg7c3Ryb2tlLXdpZHRoOjEuMDsiLz48dGV4dCBmaWxsPSIjMDAwMDAwIiBmb250LWZhbWlseT0ic2Fucy1zZXJpZiIgZm9udC1zaXplPSIxMyIgbGVuZ3RoQWRqdXN0PSJzcGFjaW5nIiB0ZXh0TGVuZ3RoPSI1OSIgeD0iMjUzLjEyIiB5PSI2NC4yODkxIj4mIzIzMzg0OyYjMjA2NDg7LyYjMjY1OTc7JiMzNTgxMDs8L3RleHQ+PHRleHQgZmlsbD0iIzAwMDAwMCIgZm9udC1mYW1pbHk9InNhbnMtc2VyaWYiIGZvbnQtc2l6ZT0iMTMiIGxlbmd0aEFkanVzdD0ic3BhY2luZyIgdGV4dExlbmd0aD0iNTIiIHg9IjI1Ni42MiIgeT0iNzguMjAzMSI+JiMyNDA1MjsmIzIyNzYzOyYjMjU5Njg7JiMyNTQ1NDs8L3RleHQ+PC9nPjwhLS1saW5rIFBJUCB0byBEUy0tPjxnIGlkPSJsaW5rX1BJUF9EUyI+PHBhdGggZD0iTTIyMC40NywxMzAuMTUgQzIzMC45NCwxMzAuNSAyNDEuODgsMTMwLjgyIDI1Mi4xMiwxMzEgQzI3OS4yMywxMzEuNDkgMjg2LjAyLDEzMS42MSAzMTMuMTIsMTMxIEMzMjIuNzgsMTMwLjc4IDMyNy4yMjU5LDEzMC42NTU3IDMzNi45MjU5LDEzMC4yMjU3ICIgZmlsbD0ibm9uZSIgaWQ9IlBJUC10by1EUyIgc3R5bGU9InN0cm9rZTojMTgxODE4O3N0cm9rZS13aWR0aDoxLjA7Ii8+PHBvbHlnb24gZmlsbD0iIzE4MTgxOCIgcG9pbnRzPSIzNDIuOTIsMTI5Ljk2LDMzMy43NTE3LDEyNi4zNjI1LDMzNy45MjQ5LDEzMC4xODE0LDMzNC4xMDYsMTM0LjM1NDcsMzQyLjkyLDEyOS45NiIgc3R5bGU9InN0cm9rZTojMTgxODE4O3N0cm9rZS13aWR0aDoxLjA7Ii8+PHRleHQgZmlsbD0iIzAwMDAwMCIgZm9udC1mYW1pbHk9InNhbnMtc2VyaWYiIGZvbnQtc2l6ZT0iMTMiIGxlbmd0aEFkanVzdD0ic3BhY2luZyIgdGV4dExlbmd0aD0iNTkiIHg9IjI1My4xMiIgeT0iMTE1LjI4OTEiPiYjMjMzODQ7JiMyMDY0ODsvJiMyNjU5NzsmIzM1ODEwOzwvdGV4dD48dGV4dCBmaWxsPSIjMDAwMDAwIiBmb250LWZhbWlseT0ic2Fucy1zZXJpZiIgZm9udC1zaXplPSIxMyIgbGVuZ3RoQWRqdXN0PSJzcGFjaW5nIiB0ZXh0TGVuZ3RoPSI1MiIgeD0iMjU2LjYyIiB5PSIxMjkuMjAzMSI+JiMyMDE1NDsmIzIxNTkyOyYjMjU5Njg7JiMyNTQ1NDs8L3RleHQ+PC9nPjwhLS1saW5rIFRJUCB0byBEUy0tPjxnIGlkPSJsaW5rX1RJUF9EUyI+PHBhdGggZD0iTTIyMC4zNCwxOTIuMTQgQzI0OC40MiwxODcuODMgMjgzLjQ1LDE4MC42NCAzMTMuMTIsMTY5IEMzMjguMjMsMTYzLjA3IDMzOC43ODMzLDE1Ny4xMzY2IDM1MS4wODMzLDE0OC45MDY2ICIgZmlsbD0ibm9uZSIgaWQ9IlRJUC10by1EUyIgc3R5bGU9InN0cm9rZTojMTgxODE4O3N0cm9rZS13aWR0aDoxLjA7Ii8+PHBvbHlnb24gZmlsbD0iIzE4MTgxOCIgcG9pbnRzPSIzNTYuMDcsMTQ1LjU3LDM0Ni4zNjU2LDE0Ny4yNTA1LDM1MS45MTQ0LDE0OC4zNTA1LDM1MC44MTQ0LDE1My44OTk0LDM1Ni4wNywxNDUuNTciIHN0eWxlPSJzdHJva2U6IzE4MTgxODtzdHJva2Utd2lkdGg6MS4wOyIvPjx0ZXh0IGZpbGw9IiMwMDAwMDAiIGZvbnQtZmFtaWx5PSJzYW5zLXNlcmlmIiBmb250LXNpemU9IjEzIiBsZW5ndGhBZGp1c3Q9InNwYWNpbmciIHRleHRMZW5ndGg9IjU5IiB4PSIyNTMuMTIiIHk9IjE1My4yODkxIj4mIzIzMzg0OyYjMjA2NDg7LyYjMjY1OTc7JiMzNTgxMDs8L3RleHQ+PHRleHQgZmlsbD0iIzAwMDAwMCIgZm9udC1mYW1pbHk9InNhbnMtc2VyaWYiIGZvbnQtc2l6ZT0iMTMiIGxlbmd0aEFkanVzdD0ic3BhY2luZyIgdGV4dExlbmd0aD0iNTIiIHg9IjI1Ni42MiIgeT0iMTY3LjIwMzEiPiYjMzQ4OTI7JiMzMTI0MzsmIzI1OTY4OyYjMjU0NTQ7PC90ZXh0PjwvZz48IS0tU1JDPVtWVDJfSmk5RzUwUm1fSng1MkdpSk9OVG1HMU9JWG9QME41bVFnRDFHTXRFZmFvNEhlYU9IMVZuMzIwd0FJNDlZQjBtTzExTFZma1VzbGVMamh1YTU2d09jZnh6eHBfVlRDRFo2dEZlcU02a0FaSVBVclRaMzEzX2dIOTVzVEQwcmU3OGtocURNZmI5NmJwTUw1MGtva1lUSVNIVlNZUVpjNTBhRTI0MUNlcmM5UmNZQUhZNmNZOWMyRXRDLUVRaGpncmEtdHloQmthSEFYOEcxWk91dkZNRXQ4dFBYaURVb05Rck9iSWR2a3A5YXRHcE93T0hUemg3VTJ1NU9YN0oyX3pqeXdzMnItdHR1UmktUi03SGFES3V5NURscW1sV1dKaVJPVXBRX2tnbXl6Q0U0aUVaQ3NHb1J4TnpFTTdQc2pzT0RwbC12YkVEQV9lMnk2aHdxaUpCbUgzbVBxOWthNG4zbmRaWW94Y1EyRFIzZHJ0WlNaeEF4Q01rRGpiTVVkbnpPcTRBR3ZZcTJUMmY4eW93X3NqcVVTTUd5d0syVUV5aGstX1JtU0ljNGkwOGt4NC1qV0Z4TEZtMDBdLS0+PC9nPjwvc3ZnPg==;" vertex="1" parent="1">
            <mxGeometry x="730" y="425" width="425" height="320" as="geometry" />
          </mxCell>
        </UserObject>
        <UserObject label="" plantUmlData="{&quot;data&quot;:&quot;@startuml\n&#39; 定义参与者\nactor 用户\n\n&#39; 定义系统界面和模块\nrectangle \&quot;巴士管理系统\&quot; {\n\n  &#39; 系统的主要功能模块\n  rectangle \&quot;用户界面\&quot; as UI {\n    usecase \&quot;登录\&quot; as UC1\n    usecase \&quot;主窗口\&quot; as UC2\n  }\n\n  rectangle \&quot;功能模块\&quot; {\n    rectangle \&quot;巴士信息管理\&quot; {\n      usecase \&quot;添加/修改巴士信息\&quot; as UC3\n      usecase \&quot;查询巴士信息\&quot; as UC4\n    }\n\n    rectangle \&quot;行程管理\&quot; {\n      usecase \&quot;添加/修改行程信息\&quot; as UC5\n      usecase \&quot;查询行程信息\&quot; as UC6\n    }\n\n    rectangle \&quot;票务管理\&quot; {\n      usecase \&quot;添加/修改票务信息\&quot; as UC7\n      usecase \&quot;查询票务信息\&quot; as UC8\n    }\n\n    rectangle \&quot;司机信息管理\&quot; {\n      usecase \&quot;添加/修改司机信息\&quot; as UC9\n      usecase \&quot;查询司机信息\&quot; as UC10\n    }\n\n    rectangle \&quot;用户管理\&quot; {\n      usecase \&quot;添加/修改用户信息\&quot; as UC11\n      usecase \&quot;查询用户信息\&quot; as UC12\n    }\n  }\n\n  &#39; 数据存储\n  database \&quot;数据库\&quot; as DB {\n    rectangle \&quot;巴士信息表\&quot; as DB1\n    rectangle \&quot;行程信息表\&quot; as DB2\n    rectangle \&quot;票务信息表\&quot; as DB3\n    rectangle \&quot;司机信息表\&quot; as DB4\n    rectangle \&quot;用户信息表\&quot; as DB5\n  }\n}\n\n&#39; 定义数据流\n用户 --&gt; UC1\nUC1 --&gt; UC2 : 凭证验证\\n成功\nUC2 --&gt; UC3 : 选择\\n巴士管理\nUC2 --&gt; UC5 : 选择\\n行程管理\nUC2 --&gt; UC7 : 选择\\n票务管理\nUC2 --&gt; UC9 : 选择\\n司机管理\nUC2 --&gt; UC11 : 选择\\n用户管理\nUC3 --&gt; DB1 : 更新\\n巴士信息\nUC5 --&gt; DB2 : 更新\\n行程信息\nUC7 --&gt; DB3 : 更新\\n票务信息\nUC9 --&gt; DB4 : 更新\\n司机信息\nUC11 --&gt; DB5 : 更新\\n用户信息\nDB1 &lt;.. UC4 : 返回\\n查询结果\nDB2 &lt;.. UC6 : 返回\\n查询结果\nDB3 &lt;.. UC8 : 返回\\n查询结果\nDB4 &lt;.. UC10 : 返回\\n查询结果\nDB5 &lt;.. UC12 : 返回\\n查询结果\n\n@enduml\n&quot;,&quot;format&quot;:&quot;svg&quot;}" id="fYDE9vizx6uy-5a_bvqT-3">
          <mxCell style="shape=image;noLabel=1;verticalAlign=top;aspect=fixed;imageAspect=0;image=data:image/svg+xml,PD94bWwgdmVyc2lvbj0iMS4wIiBlbmNvZGluZz0idXMtYXNjaWkiIHN0YW5kYWxvbmU9Im5vIj8+PHN2ZyB4bWxucz0iaHR0cDovL3d3dy53My5vcmcvMjAwMC9zdmciIHhtbG5zOnhsaW5rPSJodHRwOi8vd3d3LnczLm9yZy8xOTk5L3hsaW5rIiBjb250ZW50U3R5bGVUeXBlPSJ0ZXh0L2NzcyIgaGVpZ2h0PSI2NDNweCIgcHJlc2VydmVBc3BlY3RSYXRpbz0ibm9uZSIgc3R5bGU9IndpZHRoOjE5NzBweDtoZWlnaHQ6NjQzcHg7YmFja2dyb3VuZDojRkZGRkZGOyIgdmVyc2lvbj0iMS4xIiB2aWV3Qm94PSIwIDAgMTk3MCA2NDMiIHdpZHRoPSIxOTcwcHgiIHpvb21BbmRQYW49Im1hZ25pZnkiPjxkZWZzLz48Zz48IS0tY2x1c3RlciA/Pz8/Pz8tLT48ZyBpZD0iY2x1c3Rlcl8mIzI0MDUyOyYjMjI3NjM7JiMzMTY0OTsmIzI5NzAyOyYjMzE5OTU7JiMzMjQ3OTsiPjxyZWN0IGZpbGw9Im5vbmUiIGhlaWdodD0iNTEwIiByeD0iMi41IiByeT0iMi41IiBzdHlsZT0ic3Ryb2tlOiMxODE4MTg7c3Ryb2tlLXdpZHRoOjEuMDsiIHdpZHRoPSIxOTU3IiB4PSI3IiB5PSIxMjcuNSIvPjx0ZXh0IGZpbGw9IiMwMDAwMDAiIGZvbnQtZmFtaWx5PSJzYW5zLXNlcmlmIiBmb250LXNpemU9IjE0IiBmb250LXdlaWdodD0iYm9sZCIgbGVuZ3RoQWRqdXN0PSJzcGFjaW5nIiB0ZXh0TGVuZ3RoPSI4NCIgeD0iOTQzLjUiIHk9IjE0Mi43MzQ0Ij4mIzI0MDUyOyYjMjI3NjM7JiMzMTY0OTsmIzI5NzAyOyYjMzE5OTU7JiMzMjQ3OTs8L3RleHQ+PC9nPjwhLS1jbHVzdGVyIFVJLS0+PGcgaWQ9ImNsdXN0ZXJfVUkiPjxyZWN0IGZpbGw9Im5vbmUiIGhlaWdodD0iMjMwIiByeD0iMi41IiByeT0iMi41IiBzdHlsZT0ic3Ryb2tlOiMxODE4MTg7c3Ryb2tlLXdpZHRoOjEuMDsiIHdpZHRoPSIxMjEiIHg9IjE0NzkiIHk9IjE2OC41Ii8+PHRleHQgZmlsbD0iIzAwMDAwMCIgZm9udC1mYW1pbHk9InNhbnMtc2VyaWYiIGZvbnQtc2l6ZT0iMTQiIGZvbnQtd2VpZ2h0PSJib2xkIiBsZW5ndGhBZGp1c3Q9InNwYWNpbmciIHRleHRMZW5ndGg9IjU2IiB4PSIxNTExLjUiIHk9IjE4My43MzQ0Ij4mIzI5OTkyOyYjMjUxNDM7JiMzMDAyODsmIzM4NzU0OzwvdGV4dD48L2c+PCEtLWNsdXN0ZXIgPz8/Py0tPjxnIGlkPSJjbHVzdGVyXyYjMjExNTE7JiMzMzAyMTsmIzI3MTY5OyYjMjIzNTk7Ij48cmVjdCBmaWxsPSJub25lIiBoZWlnaHQ9IjE1MCIgcng9IjIuNSIgcnk9IjIuNSIgc3R5bGU9InN0cm9rZTojMTgxODE4O3N0cm9rZS13aWR0aDoxLjA7IiB3aWR0aD0iMTkwOSIgeD0iMzEiIHk9IjQ2My41Ii8+PHRleHQgZmlsbD0iIzAwMDAwMCIgZm9udC1mYW1pbHk9InNhbnMtc2VyaWYiIGZvbnQtc2l6ZT0iMTQiIGZvbnQtd2VpZ2h0PSJib2xkIiBsZW5ndGhBZGp1c3Q9InNwYWNpbmciIHRleHRMZW5ndGg9IjU2IiB4PSI5NTcuNSIgeT0iNDc4LjczNDQiPiYjMjExNTE7JiMzMzAyMTsmIzI3MTY5OyYjMjIzNTk7PC90ZXh0PjwvZz48IS0tY2x1c3RlciA/Pz8/Pz8tLT48ZyBpZD0iY2x1c3Rlcl8mIzI0MDUyOyYjMjI3NjM7JiMyMDQ0OTsmIzI0Njg3OyYjMzE2NDk7JiMyOTcwMjsiPjxyZWN0IGZpbGw9Im5vbmUiIGhlaWdodD0iODUiIHJ4PSIyLjUiIHJ5PSIyLjUiIHN0eWxlPSJzdHJva2U6IzE4MTgxODtzdHJva2Utd2lkdGg6MS4wOyIgd2lkdGg9IjM1MyIgeD0iNTUiIHk9IjUwNC41Ii8+PHRleHQgZmlsbD0iIzAwMDAwMCIgZm9udC1mYW1pbHk9InNhbnMtc2VyaWYiIGZvbnQtc2l6ZT0iMTQiIGZvbnQtd2VpZ2h0PSJib2xkIiBsZW5ndGhBZGp1c3Q9InNwYWNpbmciIHRleHRMZW5ndGg9Ijg0IiB4PSIxODkuNSIgeT0iNTE5LjczNDQiPiYjMjQwNTI7JiMyMjc2MzsmIzIwNDQ5OyYjMjQ2ODc7JiMzMTY0OTsmIzI5NzAyOzwvdGV4dD48L2c+PCEtLWNsdXN0ZXIgPz8/Py0tPjxnIGlkPSJjbHVzdGVyXyYjMzQ4OTI7JiMzMTI0MzsmIzMxNjQ5OyYjMjk3MDI7Ij48cmVjdCBmaWxsPSJub25lIiBoZWlnaHQ9Ijg1IiByeD0iMi41IiByeT0iMi41IiBzdHlsZT0ic3Ryb2tlOiMxODE4MTg7c3Ryb2tlLXdpZHRoOjEuMDsiIHdpZHRoPSIzNTMiIHg9IjQzMiIgeT0iNTA0LjUiLz48dGV4dCBmaWxsPSIjMDAwMDAwIiBmb250LWZhbWlseT0ic2Fucy1zZXJpZiIgZm9udC1zaXplPSIxNCIgZm9udC13ZWlnaHQ9ImJvbGQiIGxlbmd0aEFkanVzdD0ic3BhY2luZyIgdGV4dExlbmd0aD0iNTYiIHg9IjU4MC41IiB5PSI1MTkuNzM0NCI+JiMzNDg5MjsmIzMxMjQzOyYjMzE2NDk7JiMyOTcwMjs8L3RleHQ+PC9nPjwhLS1jbHVzdGVyID8/Pz8tLT48ZyBpZD0iY2x1c3Rlcl8mIzMxMDgwOyYjMjExNTM7JiMzMTY0OTsmIzI5NzAyOyI+PHJlY3QgZmlsbD0ibm9uZSIgaGVpZ2h0PSI4NSIgcng9IjIuNSIgcnk9IjIuNSIgc3R5bGU9InN0cm9rZTojMTgxODE4O3N0cm9rZS13aWR0aDoxLjA7IiB3aWR0aD0iMzUzIiB4PSI4MDkiIHk9IjUwNC41Ii8+PHRleHQgZmlsbD0iIzAwMDAwMCIgZm9udC1mYW1pbHk9InNhbnMtc2VyaWYiIGZvbnQtc2l6ZT0iMTQiIGZvbnQtd2VpZ2h0PSJib2xkIiBsZW5ndGhBZGp1c3Q9InNwYWNpbmciIHRleHRMZW5ndGg9IjU2IiB4PSI5NTcuNSIgeT0iNTE5LjczNDQiPiYjMzEwODA7JiMyMTE1MzsmIzMxNjQ5OyYjMjk3MDI7PC90ZXh0PjwvZz48IS0tY2x1c3RlciA/Pz8/Pz8tLT48ZyBpZD0iY2x1c3Rlcl8mIzIxNDk2OyYjMjY0MjY7JiMyMDQ0OTsmIzI0Njg3OyYjMzE2NDk7JiMyOTcwMjsiPjxyZWN0IGZpbGw9Im5vbmUiIGhlaWdodD0iODUiIHJ4PSIyLjUiIHJ5PSIyLjUiIHN0eWxlPSJzdHJva2U6IzE4MTgxODtzdHJva2Utd2lkdGg6MS4wOyIgd2lkdGg9IjM1MyIgeD0iMTE4NiIgeT0iNTA0LjUiLz48dGV4dCBmaWxsPSIjMDAwMDAwIiBmb250LWZhbWlseT0ic2Fucy1zZXJpZiIgZm9udC1zaXplPSIxNCIgZm9udC13ZWlnaHQ9ImJvbGQiIGxlbmd0aEFkanVzdD0ic3BhY2luZyIgdGV4dExlbmd0aD0iODQiIHg9IjEzMjAuNSIgeT0iNTE5LjczNDQiPiYjMjE0OTY7JiMyNjQyNjsmIzIwNDQ5OyYjMjQ2ODc7JiMzMTY0OTsmIzI5NzAyOzwvdGV4dD48L2c+PCEtLWNsdXN0ZXIgPz8/Py0tPjxnIGlkPSJjbHVzdGVyXyYjMjk5OTI7JiMyNTE0MzsmIzMxNjQ5OyYjMjk3MDI7Ij48cmVjdCBmaWxsPSJub25lIiBoZWlnaHQ9Ijg1IiByeD0iMi41IiByeT0iMi41IiBzdHlsZT0ic3Ryb2tlOiMxODE4MTg7c3Ryb2tlLXdpZHRoOjEuMDsiIHdpZHRoPSIzNTMiIHg9IjE1NjMiIHk9IjUwNC41Ii8+PHRleHQgZmlsbD0iIzAwMDAwMCIgZm9udC1mYW1pbHk9InNhbnMtc2VyaWYiIGZvbnQtc2l6ZT0iMTQiIGZvbnQtd2VpZ2h0PSJib2xkIiBsZW5ndGhBZGp1c3Q9InNwYWNpbmciIHRleHRMZW5ndGg9IjU2IiB4PSIxNzExLjUiIHk9IjUxOS43MzQ0Ij4mIzI5OTkyOyYjMjUxNDM7JiMzMTY0OTsmIzI5NzAyOzwvdGV4dD48L2c+PCEtLWNsdXN0ZXIgREItLT48ZyBpZD0iY2x1c3Rlcl9EQiI+PHBhdGggZD0iTTUyMCwzMTMuNSBDNTIwLDMwMy41IDgzMSwzMDMuNSA4MzEsMzAzLjUgQzgzMSwzMDMuNSAxMTQyLDMwMy41IDExNDIsMzEzLjUgTDExNDIsMzkyLjUgQzExNDIsNDAyLjUgODMxLDQwMi41IDgzMSw0MDIuNSBDODMxLDQwMi41IDUyMCw0MDIuNSA1MjAsMzkyLjUgTDUyMCwzMTMuNSAiIGZpbGw9Im5vbmUiIHN0eWxlPSJzdHJva2U6IzE4MTgxODtzdHJva2Utd2lkdGg6MS4wOyIvPjxwYXRoIGQ9Ik01MjAsMzEzLjUgQzUyMCwzMjMuNSA4MzEsMzIzLjUgODMxLDMyMy41IEM4MzEsMzIzLjUgMTE0MiwzMjMuNSAxMTQyLDMxMy41ICIgZmlsbD0ibm9uZSIgc3R5bGU9InN0cm9rZTojMTgxODE4O3N0cm9rZS13aWR0aDoxLjA7Ii8+PHRleHQgZmlsbD0iIzAwMDAwMCIgZm9udC1mYW1pbHk9InNhbnMtc2VyaWYiIGZvbnQtc2l6ZT0iMTQiIGZvbnQtd2VpZ2h0PSJib2xkIiBsZW5ndGhBZGp1c3Q9InNwYWNpbmciIHRleHRMZW5ndGg9IjQyIiB4PSI4MTAiIHk9IjMzOC43MzQ0Ij4mIzI1OTY4OyYjMjU0NTQ7JiMyNDIxMTs8L3RleHQ+PC9nPjxnIGlkPSJlbGVtX1VDMSI+PGVsbGlwc2UgY3g9IjE1MjkuNzg0MyIgY3k9IjIxNS4wOTU2IiBmaWxsPSIjRjFGMUYxIiByeD0iMzEuMjg0MyIgcnk9IjEzLjU5NTYiIHN0eWxlPSJzdHJva2U6IzE4MTgxODtzdHJva2Utd2lkdGg6MC41OyIvPjx0ZXh0IGZpbGw9IiMwMDAwMDAiIGZvbnQtZmFtaWx5PSJzYW5zLXNlcmlmIiBmb250LXNpemU9IjE0IiBsZW5ndGhBZGp1c3Q9InNwYWNpbmciIHRleHRMZW5ndGg9IjI4IiB4PSIxNTE1Ljc4NDMiIHk9IjIxOC44Mzc3Ij4mIzMwMzMxOyYjMjQ0MDU7PC90ZXh0PjwvZz48ZyBpZD0iZWxlbV9VQzIiPjxlbGxpcHNlIGN4PSIxNTM2LjE4MzgiIGN5PSIzNjkuMDk1NiIgZmlsbD0iI0YxRjFGMSIgcng9IjQxLjE4MzgiIHJ5PSIxMy41OTU2IiBzdHlsZT0ic3Ryb2tlOiMxODE4MTg7c3Ryb2tlLXdpZHRoOjAuNTsiLz48dGV4dCBmaWxsPSIjMDAwMDAwIiBmb250LWZhbWlseT0ic2Fucy1zZXJpZiIgZm9udC1zaXplPSIxNCIgbGVuZ3RoQWRqdXN0PSJzcGFjaW5nIiB0ZXh0TGVuZ3RoPSI0MiIgeD0iMTUxNS4xODM4IiB5PSIzNzIuODM3NyI+JiMyMDAyNzsmIzMxMzgzOyYjMjE0NzU7PC90ZXh0PjwvZz48ZyBpZD0iZWxlbV9VQzMiPjxlbGxpcHNlIGN4PSIzMTIuOTU1OCIgY3k9IjU1NS41OTEyIiBmaWxsPSIjRjFGMUYxIiByeD0iNzguNDU1OCIgcnk9IjE4LjA5MTIiIHN0eWxlPSJzdHJva2U6IzE4MTgxODtzdHJva2Utd2lkdGg6MC41OyIvPjx0ZXh0IGZpbGw9IiMwMDAwMDAiIGZvbnQtZmFtaWx5PSJzYW5zLXNlcmlmIiBmb250LXNpemU9IjE0IiBsZW5ndGhBZGp1c3Q9InNwYWNpbmciIHRleHRMZW5ndGg9IjExOSIgeD0iMjUzLjQ1NTgiIHk9IjU1OS4zMzMzIj4mIzI4MTU1OyYjMjExNTI7LyYjMjA0NjI7JiMyNTkxMzsmIzI0MDUyOyYjMjI3NjM7JiMyMDQ0OTsmIzI0Njg3OzwvdGV4dD48L2c+PGcgaWQ9ImVsZW1fVUM0Ij48ZWxsaXBzZSBjeD0iMTM0Ljg4NzgiIGN5PSI1NTUuNjc3NiIgZmlsbD0iI0YxRjFGMSIgcng9IjYzLjg4NzgiIHJ5PSIxNS4xNzc2IiBzdHlsZT0ic3Ryb2tlOiMxODE4MTg7c3Ryb2tlLXdpZHRoOjAuNTsiLz48dGV4dCBmaWxsPSIjMDAwMDAwIiBmb250LWZhbWlseT0ic2Fucy1zZXJpZiIgZm9udC1zaXplPSIxNCIgbGVuZ3RoQWRqdXN0PSJzcGFjaW5nIiB0ZXh0TGVuZ3RoPSI4NCIgeD0iOTIuODg3OCIgeT0iNTU5LjQxOTciPiYjMjY1OTc7JiMzNTgxMDsmIzI0MDUyOyYjMjI3NjM7JiMyMDQ0OTsmIzI0Njg3OzwvdGV4dD48L2c+PGcgaWQ9ImVsZW1fVUM1Ij48ZWxsaXBzZSBjeD0iNjg5Ljk1NTgiIGN5PSI1NTUuNTkxMiIgZmlsbD0iI0YxRjFGMSIgcng9Ijc4LjQ1NTgiIHJ5PSIxOC4wOTEyIiBzdHlsZT0ic3Ryb2tlOiMxODE4MTg7c3Ryb2tlLXdpZHRoOjAuNTsiLz48dGV4dCBmaWxsPSIjMDAwMDAwIiBmb250LWZhbWlseT0ic2Fucy1zZXJpZiIgZm9udC1zaXplPSIxNCIgbGVuZ3RoQWRqdXN0PSJzcGFjaW5nIiB0ZXh0TGVuZ3RoPSIxMTkiIHg9IjYzMC40NTU4IiB5PSI1NTkuMzMzMyI+JiMyODE1NTsmIzIxMTUyOy8mIzIwNDYyOyYjMjU5MTM7JiMzNDg5MjsmIzMxMjQzOyYjMjA0NDk7JiMyNDY4Nzs8L3RleHQ+PC9nPjxnIGlkPSJlbGVtX1VDNiI+PGVsbGlwc2UgY3g9IjUxMS44ODc4IiBjeT0iNTU1LjY3NzYiIGZpbGw9IiNGMUYxRjEiIHJ4PSI2My44ODc4IiByeT0iMTUuMTc3NiIgc3R5bGU9InN0cm9rZTojMTgxODE4O3N0cm9rZS13aWR0aDowLjU7Ii8+PHRleHQgZmlsbD0iIzAwMDAwMCIgZm9udC1mYW1pbHk9InNhbnMtc2VyaWYiIGZvbnQtc2l6ZT0iMTQiIGxlbmd0aEFkanVzdD0ic3BhY2luZyIgdGV4dExlbmd0aD0iODQiIHg9IjQ2OS44ODc4IiB5PSI1NTkuNDE5NyI+JiMyNjU5NzsmIzM1ODEwOyYjMzQ4OTI7JiMzMTI0MzsmIzIwNDQ5OyYjMjQ2ODc7PC90ZXh0PjwvZz48ZyBpZD0iZWxlbV9VQzciPjxlbGxpcHNlIGN4PSIxMDY2Ljk1NTgiIGN5PSI1NTUuNTkxMiIgZmlsbD0iI0YxRjFGMSIgcng9Ijc4LjQ1NTgiIHJ5PSIxOC4wOTEyIiBzdHlsZT0ic3Ryb2tlOiMxODE4MTg7c3Ryb2tlLXdpZHRoOjAuNTsiLz48dGV4dCBmaWxsPSIjMDAwMDAwIiBmb250LWZhbWlseT0ic2Fucy1zZXJpZiIgZm9udC1zaXplPSIxNCIgbGVuZ3RoQWRqdXN0PSJzcGFjaW5nIiB0ZXh0TGVuZ3RoPSIxMTkiIHg9IjEwMDcuNDU1OCIgeT0iNTU5LjMzMzMiPiYjMjgxNTU7JiMyMTE1MjsvJiMyMDQ2MjsmIzI1OTEzOyYjMzEwODA7JiMyMTE1MzsmIzIwNDQ5OyYjMjQ2ODc7PC90ZXh0PjwvZz48ZyBpZD0iZWxlbV9VQzgiPjxlbGxpcHNlIGN4PSI4ODguODg3OCIgY3k9IjU1NS42Nzc2IiBmaWxsPSIjRjFGMUYxIiByeD0iNjMuODg3OCIgcnk9IjE1LjE3NzYiIHN0eWxlPSJzdHJva2U6IzE4MTgxODtzdHJva2Utd2lkdGg6MC41OyIvPjx0ZXh0IGZpbGw9IiMwMDAwMDAiIGZvbnQtZmFtaWx5PSJzYW5zLXNlcmlmIiBmb250LXNpemU9IjE0IiBsZW5ndGhBZGp1c3Q9InNwYWNpbmciIHRleHRMZW5ndGg9Ijg0IiB4PSI4NDYuODg3OCIgeT0iNTU5LjQxOTciPiYjMjY1OTc7JiMzNTgxMDsmIzMxMDgwOyYjMjExNTM7JiMyMDQ0OTsmIzI0Njg3OzwvdGV4dD48L2c+PGcgaWQ9ImVsZW1fVUM5Ij48ZWxsaXBzZSBjeD0iMTQ0My45NTU4IiBjeT0iNTU1LjU5MTIiIGZpbGw9IiNGMUYxRjEiIHJ4PSI3OC40NTU4IiByeT0iMTguMDkxMiIgc3R5bGU9InN0cm9rZTojMTgxODE4O3N0cm9rZS13aWR0aDowLjU7Ii8+PHRleHQgZmlsbD0iIzAwMDAwMCIgZm9udC1mYW1pbHk9InNhbnMtc2VyaWYiIGZvbnQtc2l6ZT0iMTQiIGxlbmd0aEFkanVzdD0ic3BhY2luZyIgdGV4dExlbmd0aD0iMTE5IiB4PSIxMzg0LjQ1NTgiIHk9IjU1OS4zMzMzIj4mIzI4MTU1OyYjMjExNTI7LyYjMjA0NjI7JiMyNTkxMzsmIzIxNDk2OyYjMjY0MjY7JiMyMDQ0OTsmIzI0Njg3OzwvdGV4dD48L2c+PGcgaWQ9ImVsZW1fVUMxMCI+PGVsbGlwc2UgY3g9IjEyNjUuODg3OCIgY3k9IjU1NS42Nzc2IiBmaWxsPSIjRjFGMUYxIiByeD0iNjMuODg3OCIgcnk9IjE1LjE3NzYiIHN0eWxlPSJzdHJva2U6IzE4MTgxODtzdHJva2Utd2lkdGg6MC41OyIvPjx0ZXh0IGZpbGw9IiMwMDAwMDAiIGZvbnQtZmFtaWx5PSJzYW5zLXNlcmlmIiBmb250LXNpemU9IjE0IiBsZW5ndGhBZGp1c3Q9InNwYWNpbmciIHRleHRMZW5ndGg9Ijg0IiB4PSIxMjIzLjg4NzgiIHk9IjU1OS40MTk3Ij4mIzI2NTk3OyYjMzU4MTA7JiMyMTQ5NjsmIzI2NDI2OyYjMjA0NDk7JiMyNDY4Nzs8L3RleHQ+PC9nPjxnIGlkPSJlbGVtX1VDMTEiPjxlbGxpcHNlIGN4PSIxODIwLjk1NTgiIGN5PSI1NTUuNTkxMiIgZmlsbD0iI0YxRjFGMSIgcng9Ijc4LjQ1NTgiIHJ5PSIxOC4wOTEyIiBzdHlsZT0ic3Ryb2tlOiMxODE4MTg7c3Ryb2tlLXdpZHRoOjAuNTsiLz48dGV4dCBmaWxsPSIjMDAwMDAwIiBmb250LWZhbWlseT0ic2Fucy1zZXJpZiIgZm9udC1zaXplPSIxNCIgbGVuZ3RoQWRqdXN0PSJzcGFjaW5nIiB0ZXh0TGVuZ3RoPSIxMTkiIHg9IjE3NjEuNDU1OCIgeT0iNTU5LjMzMzMiPiYjMjgxNTU7JiMyMTE1MjsvJiMyMDQ2MjsmIzI1OTEzOyYjMjk5OTI7JiMyNTE0MzsmIzIwNDQ5OyYjMjQ2ODc7PC90ZXh0PjwvZz48ZyBpZD0iZWxlbV9VQzEyIj48ZWxsaXBzZSBjeD0iMTY0Mi44ODc4IiBjeT0iNTU1LjY3NzYiIGZpbGw9IiNGMUYxRjEiIHJ4PSI2My44ODc4IiByeT0iMTUuMTc3NiIgc3R5bGU9InN0cm9rZTojMTgxODE4O3N0cm9rZS13aWR0aDowLjU7Ii8+PHRleHQgZmlsbD0iIzAwMDAwMCIgZm9udC1mYW1pbHk9InNhbnMtc2VyaWYiIGZvbnQtc2l6ZT0iMTQiIGxlbmd0aEFkanVzdD0ic3BhY2luZyIgdGV4dExlbmd0aD0iODQiIHg9IjE2MDAuODg3OCIgeT0iNTU5LjQxOTciPiYjMjY1OTc7JiMzNTgxMDsmIzI5OTkyOyYjMjUxNDM7JiMyMDQ0OTsmIzI0Njg3OzwvdGV4dD48L2c+PCEtLWVudGl0eSBEQjEtLT48ZyBpZD0iZWxlbV9EQjEiPjxyZWN0IGZpbGw9IiNGMUYxRjEiIGhlaWdodD0iMzQuOTg0NCIgcng9IjIuNSIgcnk9IjIuNSIgc3R5bGU9InN0cm9rZTojMTgxODE4O3N0cm9rZS13aWR0aDowLjU7IiB3aWR0aD0iOTAiIHg9IjUzNiIgeT0iMzUxLjUiLz48dGV4dCBmaWxsPSIjMDAwMDAwIiBmb250LWZhbWlseT0ic2Fucy1zZXJpZiIgZm9udC1zaXplPSIxNCIgbGVuZ3RoQWRqdXN0PSJzcGFjaW5nIiB0ZXh0TGVuZ3RoPSI3MCIgeD0iNTQ2IiB5PSIzNzQuNzM0NCI+JiMyNDA1MjsmIzIyNzYzOyYjMjA0NDk7JiMyNDY4NzsmIzM0OTIwOzwvdGV4dD48L2c+PCEtLWVudGl0eSBEQjItLT48ZyBpZD0iZWxlbV9EQjIiPjxyZWN0IGZpbGw9IiNGMUYxRjEiIGhlaWdodD0iMzQuOTg0NCIgcng9IjIuNSIgcnk9IjIuNSIgc3R5bGU9InN0cm9rZTojMTgxODE4O3N0cm9rZS13aWR0aDowLjU7IiB3aWR0aD0iOTAiIHg9IjY2MSIgeT0iMzUxLjUiLz48dGV4dCBmaWxsPSIjMDAwMDAwIiBmb250LWZhbWlseT0ic2Fucy1zZXJpZiIgZm9udC1zaXplPSIxNCIgbGVuZ3RoQWRqdXN0PSJzcGFjaW5nIiB0ZXh0TGVuZ3RoPSI3MCIgeD0iNjcxIiB5PSIzNzQuNzM0NCI+JiMzNDg5MjsmIzMxMjQzOyYjMjA0NDk7JiMyNDY4NzsmIzM0OTIwOzwvdGV4dD48L2c+PCEtLWVudGl0eSBEQjMtLT48ZyBpZD0iZWxlbV9EQjMiPjxyZWN0IGZpbGw9IiNGMUYxRjEiIGhlaWdodD0iMzQuOTg0NCIgcng9IjIuNSIgcnk9IjIuNSIgc3R5bGU9InN0cm9rZTojMTgxODE4O3N0cm9rZS13aWR0aDowLjU7IiB3aWR0aD0iOTAiIHg9Ijc4NiIgeT0iMzUxLjUiLz48dGV4dCBmaWxsPSIjMDAwMDAwIiBmb250LWZhbWlseT0ic2Fucy1zZXJpZiIgZm9udC1zaXplPSIxNCIgbGVuZ3RoQWRqdXN0PSJzcGFjaW5nIiB0ZXh0TGVuZ3RoPSI3MCIgeD0iNzk2IiB5PSIzNzQuNzM0NCI+JiMzMTA4MDsmIzIxMTUzOyYjMjA0NDk7JiMyNDY4NzsmIzM0OTIwOzwvdGV4dD48L2c+PCEtLWVudGl0eSBEQjQtLT48ZyBpZD0iZWxlbV9EQjQiPjxyZWN0IGZpbGw9IiNGMUYxRjEiIGhlaWdodD0iMzQuOTg0NCIgcng9IjIuNSIgcnk9IjIuNSIgc3R5bGU9InN0cm9rZTojMTgxODE4O3N0cm9rZS13aWR0aDowLjU7IiB3aWR0aD0iOTAiIHg9IjkxMSIgeT0iMzUxLjUiLz48dGV4dCBmaWxsPSIjMDAwMDAwIiBmb250LWZhbWlseT0ic2Fucy1zZXJpZiIgZm9udC1zaXplPSIxNCIgbGVuZ3RoQWRqdXN0PSJzcGFjaW5nIiB0ZXh0TGVuZ3RoPSI3MCIgeD0iOTIxIiB5PSIzNzQuNzM0NCI+JiMyMTQ5NjsmIzI2NDI2OyYjMjA0NDk7JiMyNDY4NzsmIzM0OTIwOzwvdGV4dD48L2c+PCEtLWVudGl0eSBEQjUtLT48ZyBpZD0iZWxlbV9EQjUiPjxyZWN0IGZpbGw9IiNGMUYxRjEiIGhlaWdodD0iMzQuOTg0NCIgcng9IjIuNSIgcnk9IjIuNSIgc3R5bGU9InN0cm9rZTojMTgxODE4O3N0cm9rZS13aWR0aDowLjU7IiB3aWR0aD0iOTAiIHg9IjEwMzYiIHk9IjM1MS41Ii8+PHRleHQgZmlsbD0iIzAwMDAwMCIgZm9udC1mYW1pbHk9InNhbnMtc2VyaWYiIGZvbnQtc2l6ZT0iMTQiIGxlbmd0aEFkanVzdD0ic3BhY2luZyIgdGV4dExlbmd0aD0iNzAiIHg9IjEwNDYiIHk9IjM3NC43MzQ0Ij4mIzI5OTkyOyYjMjUxNDM7JiMyMDQ0OTsmIzI0Njg3OyYjMzQ5MjA7PC90ZXh0PjwvZz48IS0tZW50aXR5ID8/LS0+PGcgaWQ9ImVsZW1fJiMyOTk5MjsmIzI1MTQzOyI+PGVsbGlwc2UgY3g9IjE1MzAiIGN5PSIxNCIgZmlsbD0iI0YxRjFGMSIgcng9IjgiIHJ5PSI4IiBzdHlsZT0ic3Ryb2tlOiMxODE4MTg7c3Ryb2tlLXdpZHRoOjAuNTsiLz48cGF0aCBkPSJNMTUzMCwyMiBMMTUzMCw0OSBNMTUxNywzMCBMMTU0MywzMCBNMTUzMCw0OSBMMTUxNyw2NCBNMTUzMCw0OSBMMTU0Myw2NCAiIGZpbGw9Im5vbmUiIHN0eWxlPSJzdHJva2U6IzE4MTgxODtzdHJva2Utd2lkdGg6MC41OyIvPjx0ZXh0IGZpbGw9IiMwMDAwMDAiIGZvbnQtZmFtaWx5PSJzYW5zLXNlcmlmIiBmb250LXNpemU9IjE0IiBsZW5ndGhBZGp1c3Q9InNwYWNpbmciIHRleHRMZW5ndGg9IjI4IiB4PSIxNTE2IiB5PSI3OC43MzQ0Ij4mIzI5OTkyOyYjMjUxNDM7PC90ZXh0PjwvZz48IS0tbGluayA/PyB0byBVQzEtLT48ZyBpZD0ibGlua18mIzI5OTkyOyYjMjUxNDM7X1VDMSI+PHBhdGggZD0iTTE1MzAsODAuODkgQzE1MzAsMTE4Ljk3IDE1MzAsMTcwLjI3IDE1MzAsMTk1LjQyICIgZmlsbD0ibm9uZSIgaWQ9IiYjMjk5OTI7JiMyNTE0MzstdG8tVUMxIiBzdHlsZT0ic3Ryb2tlOiMxODE4MTg7c3Ryb2tlLXdpZHRoOjEuMDsiLz48cG9seWdvbiBmaWxsPSIjMTgxODE4IiBwb2ludHM9IjE1MzAsMjAxLjQyLDE1MzQsMTkyLjQyLDE1MzAsMTk2LjQyLDE1MjYsMTkyLjQyLDE1MzAsMjAxLjQyIiBzdHlsZT0ic3Ryb2tlOiMxODE4MTg7c3Ryb2tlLXdpZHRoOjEuMDsiLz48L2c+PCEtLWxpbmsgVUMxIHRvIFVDMi0tPjxnIGlkPSJsaW5rX1VDMV9VQzIiPjxwYXRoIGQ9Ik0xNTMwLjUsMjI4LjcgQzE1MzEuNjMsMjU3LjM4IDE1MzQuMTQ0OCwzMjAuOTA0NiAxNTM1LjI2NDgsMzQ5LjQ1NDYgIiBmaWxsPSJub25lIiBpZD0iVUMxLXRvLVVDMiIgc3R5bGU9InN0cm9rZTojMTgxODE4O3N0cm9rZS13aWR0aDoxLjA7Ii8+PHBvbHlnb24gZmlsbD0iIzE4MTgxOCIgcG9pbnRzPSIxNTM1LjUsMzU1LjQ1LDE1MzkuMTQ0MSwzNDYuMzAwMSwxNTM1LjMwNCwzNTAuNDUzOCwxNTMxLjE1MDMsMzQ2LjYxMzcsMTUzNS41LDM1NS40NSIgc3R5bGU9InN0cm9rZTojMTgxODE4O3N0cm9rZS13aWR0aDoxLjA7Ii8+PHRleHQgZmlsbD0iIzAwMDAwMCIgZm9udC1mYW1pbHk9InNhbnMtc2VyaWYiIGZvbnQtc2l6ZT0iMTMiIGxlbmd0aEFkanVzdD0ic3BhY2luZyIgdGV4dExlbmd0aD0iNTIiIHg9IjE1MzMiIHk9IjI3MS43ODkxIj4mIzIwOTczOyYjMzU3Nzc7JiMzOTU2NDsmIzM1Nzc3OzwvdGV4dD48dGV4dCBmaWxsPSIjMDAwMDAwIiBmb250LWZhbWlseT0ic2Fucy1zZXJpZiIgZm9udC1zaXplPSIxMyIgbGVuZ3RoQWRqdXN0PSJzcGFjaW5nIiB0ZXh0TGVuZ3RoPSIyNiIgeD0iMTU0NiIgeT0iMjg1LjcwMzEiPiYjMjUxMDQ7JiMyMTE1MTs8L3RleHQ+PC9nPjwhLS1saW5rIFVDMiB0byBVQzMtLT48ZyBpZD0ibGlua19VQzJfVUMzIj48cGF0aCBkPSJNMTQ5Ny43MywzNzMuOTEgQzE0NTYuOTEsMzc5LjMyIDEzOTEuMzMsMzkxLjY2IDEzNDEsNDE4LjUgQzEzMjQuMDYsNDI3LjUzIDEzMjYuODgsNDQwLjUxIDEzMDksNDQ3LjUgQzEyNjMuNjIsNDY1LjI0IDQ3Ny43NCw0MzguNzIgNDMyLDQ1NS41IEMzODYuODQsNDcyLjA2IDM1MC41MzU0LDUwOS4yOTggMzMwLjQ0NTQsNTMyLjkzOCAiIGZpbGw9Im5vbmUiIGlkPSJVQzItdG8tVUMzIiBzdHlsZT0ic3Ryb2tlOiMxODE4MTg7c3Ryb2tlLXdpZHRoOjEuMDsiLz48cG9seWdvbiBmaWxsPSIjMTgxODE4IiBwb2ludHM9IjMyNi41Niw1MzcuNTEsMzM1LjQzNjIsNTMzLjI0MjMsMzI5Ljc5NzksNTMzLjcsMzI5LjM0MDIsNTI4LjA2MTcsMzI2LjU2LDUzNy41MSIgc3R5bGU9InN0cm9rZTojMTgxODE4O3N0cm9rZS13aWR0aDoxLjA7Ii8+PHRleHQgZmlsbD0iIzAwMDAwMCIgZm9udC1mYW1pbHk9InNhbnMtc2VyaWYiIGZvbnQtc2l6ZT0iMTMiIGxlbmd0aEFkanVzdD0ic3BhY2luZyIgdGV4dExlbmd0aD0iMjYiIHg9IjEzNTUiIHk9IjQzMS43ODkxIj4mIzM2ODczOyYjMjUzMjE7PC90ZXh0Pjx0ZXh0IGZpbGw9IiMwMDAwMDAiIGZvbnQtZmFtaWx5PSJzYW5zLXNlcmlmIiBmb250LXNpemU9IjEzIiBsZW5ndGhBZGp1c3Q9InNwYWNpbmciIHRleHRMZW5ndGg9IjUyIiB4PSIxMzQyIiB5PSI0NDUuNzAzMSI+JiMyNDA1MjsmIzIyNzYzOyYjMzE2NDk7JiMyOTcwMjs8L3RleHQ+PC9nPjwhLS1saW5rIFVDMiB0byBVQzUtLT48ZyBpZD0ibGlua19VQzJfVUM1Ij48cGF0aCBkPSJNMTUxMC44NCwzNzkuNjkgQzE0ODkuNzMsMzg4LjM3IDE0NTkuMjEsNDAyLjIyIDE0MzUsNDE4LjUgQzE0MTkuMDcsNDI5LjIxIDE0MjAuODYsNDQwLjQ3IDE0MDMsNDQ3LjUgQzEzNzIuMjksNDU5LjU4IDgzOS45Niw0NDQuMDcgODA5LDQ1NS41IEM3NjMuODcsNDcyLjE2IDcyNy41NTg1LDUwOS4zNTA2IDcwNy40NTg1LDUzMi45NzA2ICIgZmlsbD0ibm9uZSIgaWQ9IlVDMi10by1VQzUiIHN0eWxlPSJzdHJva2U6IzE4MTgxODtzdHJva2Utd2lkdGg6MS4wOyIvPjxwb2x5Z29uIGZpbGw9IiMxODE4MTgiIHBvaW50cz0iNzAzLjU3LDUzNy41NCw3MTIuNDQ5LDUzMy4yNzgyLDcwNi44MTA0LDUzMy43MzIxLDcwNi4zNTY0LDUyOC4wOTM1LDcwMy41Nyw1MzcuNTQiIHN0eWxlPSJzdHJva2U6IzE4MTgxODtzdHJva2Utd2lkdGg6MS4wOyIvPjx0ZXh0IGZpbGw9IiMwMDAwMDAiIGZvbnQtZmFtaWx5PSJzYW5zLXNlcmlmIiBmb250LXNpemU9IjEzIiBsZW5ndGhBZGp1c3Q9InNwYWNpbmciIHRleHRMZW5ndGg9IjI2IiB4PSIxNDQ5IiB5PSI0MzEuNzg5MSI+JiMzNjg3MzsmIzI1MzIxOzwvdGV4dD48dGV4dCBmaWxsPSIjMDAwMDAwIiBmb250LWZhbWlseT0ic2Fucy1zZXJpZiIgZm9udC1zaXplPSIxMyIgbGVuZ3RoQWRqdXN0PSJzcGFjaW5nIiB0ZXh0TGVuZ3RoPSI1MiIgeD0iMTQzNiIgeT0iNDQ1LjcwMzEiPiYjMzQ4OTI7JiMzMTI0MzsmIzMxNjQ5OyYjMjk3MDI7PC90ZXh0PjwvZz48IS0tbGluayBVQzIgdG8gVUM3LS0+PGcgaWQ9ImxpbmtfVUMyX1VDNyI+PHBhdGggZD0iTTE1MzMuNzgsMzgyLjYgQzE1MjkuODgsNDAwLjU2IDE1MTkuOSw0MzIuOTggMTQ5Nyw0NDcuNSBDMTQ2Ny44MSw0NjYuMDEgMTIxOC4zNSw0NDMuMzMgMTE4Niw0NTUuNSBDMTE0MC45OCw0NzIuNDQgMTEwNC42MzA0LDUwOS41MzA4IDEwODQuNTAwNCw1MzMuMDYwOCAiIGZpbGw9Im5vbmUiIGlkPSJVQzItdG8tVUM3IiBzdHlsZT0ic3Ryb2tlOiMxODE4MTg7c3Ryb2tlLXdpZHRoOjEuMDsiLz48cG9seWdvbiBmaWxsPSIjMTgxODE4IiBwb2ludHM9IjEwODAuNiw1MzcuNjIsMTA4OS40OTAxLDUzMy4zODE0LDEwODMuODUwNCw1MzMuODIwNiwxMDgzLjQxMTIsNTI4LjE4MDksMTA4MC42LDUzNy42MiIgc3R5bGU9InN0cm9rZTojMTgxODE4O3N0cm9rZS13aWR0aDoxLjA7Ii8+PHRleHQgZmlsbD0iIzAwMDAwMCIgZm9udC1mYW1pbHk9InNhbnMtc2VyaWYiIGZvbnQtc2l6ZT0iMTMiIGxlbmd0aEFkanVzdD0ic3BhY2luZyIgdGV4dExlbmd0aD0iMjYiIHg9IjE1MzQiIHk9IjQzMS43ODkxIj4mIzM2ODczOyYjMjUzMjE7PC90ZXh0Pjx0ZXh0IGZpbGw9IiMwMDAwMDAiIGZvbnQtZmFtaWx5PSJzYW5zLXNlcmlmIiBmb250LXNpemU9IjEzIiBsZW5ndGhBZGp1c3Q9InNwYWNpbmciIHRleHRMZW5ndGg9IjUyIiB4PSIxNTIxIiB5PSI0NDUuNzAzMSI+JiMzMTA4MDsmIzIxMTUzOyYjMzE2NDk7JiMyOTcwMjs8L3RleHQ+PC9nPjwhLS1saW5rIFVDMiB0byBVQzktLT48ZyBpZD0ibGlua19VQzJfVUM5Ij48cGF0aCBkPSJNMTU1My44OCwzODEuMTggQzE1NzUuOTMsMzk2LjM4IDE2MDguNDksNDI0LjMyIDE1OTEsNDQ3LjUgQzE1ODMuMjEsNDU3LjgzIDE1NzQuNDQsNDQ5LjQ1IDE1NjMsNDU1LjUgQzE1MjEuNDIsNDc3LjQ3IDE0ODUuMjYzNSw1MTEuMzY5IDE0NjMuODkzNSw1MzMuMzM5ICIgZmlsbD0ibm9uZSIgaWQ9IlVDMi10by1VQzkiIHN0eWxlPSJzdHJva2U6IzE4MTgxODtzdHJva2Utd2lkdGg6MS4wOyIvPjxwb2x5Z29uIGZpbGw9IiMxODE4MTgiIHBvaW50cz0iMTQ1OS43MSw1MzcuNjQsMTQ2OC44NTI2LDUzMy45Nzc2LDE0NjMuMTk2Myw1MzQuMDU1OSwxNDYzLjExNzksNTI4LjM5OTYsMTQ1OS43MSw1MzcuNjQiIHN0eWxlPSJzdHJva2U6IzE4MTgxODtzdHJva2Utd2lkdGg6MS4wOyIvPjx0ZXh0IGZpbGw9IiMwMDAwMDAiIGZvbnQtZmFtaWx5PSJzYW5zLXNlcmlmIiBmb250LXNpemU9IjEzIiBsZW5ndGhBZGp1c3Q9InNwYWNpbmciIHRleHRMZW5ndGg9IjI2IiB4PSIxNjA5IiB5PSI0MzEuNzg5MSI+JiMzNjg3MzsmIzI1MzIxOzwvdGV4dD48dGV4dCBmaWxsPSIjMDAwMDAwIiBmb250LWZhbWlseT0ic2Fucy1zZXJpZiIgZm9udC1zaXplPSIxMyIgbGVuZ3RoQWRqdXN0PSJzcGFjaW5nIiB0ZXh0TGVuZ3RoPSI1MiIgeD0iMTU5NiIgeT0iNDQ1LjcwMzEiPiYjMjE0OTY7JiMyNjQyNjsmIzMxNjQ5OyYjMjk3MDI7PC90ZXh0PjwvZz48IS0tbGluayBVQzIgdG8gVUMxMS0tPjxnIGlkPSJsaW5rX1VDMl9VQzExIj48cGF0aCBkPSJNMTU2NS4wNSwzNzguNiBDMTYwNC4xMiwzOTEuMTMgMTY3NC41Miw0MTcuMTYgMTcyNSw0NTUuNSBDMTc1Ny43OSw0ODAuNDEgMTc4Ni4wMjA4LDUxMS45MTkxIDE4MDMuNTMwOCw1MzIuOTQ5MSAiIGZpbGw9Im5vbmUiIGlkPSJVQzItdG8tVUMxMSIgc3R5bGU9InN0cm9rZTojMTgxODE4O3N0cm9rZS13aWR0aDoxLjA7Ii8+PHBvbHlnb24gZmlsbD0iIzE4MTgxOCIgcG9pbnRzPSIxODA3LjM3LDUzNy41NiwxODA0LjY4NTIsNTI4LjA4NDEsMTgwNC4xNzA3LDUzMy43MTc1LDE3OTguNTM3Myw1MzMuMjAzLDE4MDcuMzcsNTM3LjU2IiBzdHlsZT0ic3Ryb2tlOiMxODE4MTg7c3Ryb2tlLXdpZHRoOjEuMDsiLz48dGV4dCBmaWxsPSIjMDAwMDAwIiBmb250LWZhbWlseT0ic2Fucy1zZXJpZiIgZm9udC1zaXplPSIxMyIgbGVuZ3RoQWRqdXN0PSJzcGFjaW5nIiB0ZXh0TGVuZ3RoPSIyNiIgeD0iMTcyNSIgeT0iNDMxLjc4OTEiPiYjMzY4NzM7JiMyNTMyMTs8L3RleHQ+PHRleHQgZmlsbD0iIzAwMDAwMCIgZm9udC1mYW1pbHk9InNhbnMtc2VyaWYiIGZvbnQtc2l6ZT0iMTMiIGxlbmd0aEFkanVzdD0ic3BhY2luZyIgdGV4dExlbmd0aD0iNTIiIHg9IjE3MTIiIHk9IjQ0NS43MDMxIj4mIzI5OTkyOyYjMjUxNDM7JiMzMTY0OTsmIzI5NzAyOzwvdGV4dD48L2c+PCEtLWxpbmsgVUMzIHRvIERCMS0tPjxnIGlkPSJsaW5rX1VDM19EQjEiPjxwYXRoIGQ9Ik0zMzEuMTcsNTM3LjY4IEMzNTMuODUsNTE3LjA5IDM5NC4yNyw0ODEuNzMgNDMyLDQ1NS41IEM0NzAuMzMsNDI4Ljg2IDUxMi4xNjgyLDQwNS42MzAyIDU0My4wMjgyLDM4OS40MjAyICIgZmlsbD0ibm9uZSIgaWQ9IlVDMy10by1EQjEiIHN0eWxlPSJzdHJva2U6IzE4MTgxODtzdHJva2Utd2lkdGg6MS4wOyIvPjxwb2x5Z29uIGZpbGw9IiMxODE4MTgiIHBvaW50cz0iNTQ4LjM0LDM4Ni42Myw1MzguNTEyMiwzODcuMjc0LDU0My45MTM1LDM4OC45NTUxLDU0Mi4yMzI0LDM5NC4zNTY0LDU0OC4zNCwzODYuNjMiIHN0eWxlPSJzdHJva2U6IzE4MTgxODtzdHJva2Utd2lkdGg6MS4wOyIvPjx0ZXh0IGZpbGw9IiMwMDAwMDAiIGZvbnQtZmFtaWx5PSJzYW5zLXNlcmlmIiBmb250LXNpemU9IjEzIiBsZW5ndGhBZGp1c3Q9InNwYWNpbmciIHRleHRMZW5ndGg9IjI2IiB4PSI1MDIiIHk9IjQzMS43ODkxIj4mIzI2MzU2OyYjMjYwMzI7PC90ZXh0Pjx0ZXh0IGZpbGw9IiMwMDAwMDAiIGZvbnQtZmFtaWx5PSJzYW5zLXNlcmlmIiBmb250LXNpemU9IjEzIiBsZW5ndGhBZGp1c3Q9InNwYWNpbmciIHRleHRMZW5ndGg9IjUyIiB4PSI0ODkiIHk9IjQ0NS43MDMxIj4mIzI0MDUyOyYjMjI3NjM7JiMyMDQ0OTsmIzI0Njg3OzwvdGV4dD48L2c+PCEtLWxpbmsgVUM1IHRvIERCMi0tPjxnIGlkPSJsaW5rX1VDNV9EQjIiPjxwYXRoIGQ9Ik02ODcuMzQsNTM3LjE0IEM2ODMuODUsNTExLjEgNjc5LjA3LDQ2MC41IDY4Nyw0MTguNSBDNjg5LjA4LDQwNy40OCA2OTEuMTQzOCw0MDEuMjM0MiA2OTUuMjUzOCwzOTIuMDc0MiAiIGZpbGw9Im5vbmUiIGlkPSJVQzUtdG8tREIyIiBzdHlsZT0ic3Ryb2tlOiMxODE4MTg7c3Ryb2tlLXdpZHRoOjEuMDsiLz48cG9seWdvbiBmaWxsPSIjMTgxODE4IiBwb2ludHM9IjY5Ny43MSwzODYuNiw2OTAuMzc2MiwzOTMuMTczOCw2OTUuNjYzMSwzOTEuMTYxOCw2OTcuNjc1MSwzOTYuNDQ4OCw2OTcuNzEsMzg2LjYiIHN0eWxlPSJzdHJva2U6IzE4MTgxODtzdHJva2Utd2lkdGg6MS4wOyIvPjx0ZXh0IGZpbGw9IiMwMDAwMDAiIGZvbnQtZmFtaWx5PSJzYW5zLXNlcmlmIiBmb250LXNpemU9IjEzIiBsZW5ndGhBZGp1c3Q9InNwYWNpbmciIHRleHRMZW5ndGg9IjI2IiB4PSI3MDEiIHk9IjQzMS43ODkxIj4mIzI2MzU2OyYjMjYwMzI7PC90ZXh0Pjx0ZXh0IGZpbGw9IiMwMDAwMDAiIGZvbnQtZmFtaWx5PSJzYW5zLXNlcmlmIiBmb250LXNpemU9IjEzIiBsZW5ndGhBZGp1c3Q9InNwYWNpbmciIHRleHRMZW5ndGg9IjUyIiB4PSI2ODgiIHk9IjQ0NS43MDMxIj4mIzM0ODkyOyYjMzEyNDM7JiMyMDQ0OTsmIzI0Njg3OzwvdGV4dD48L2c+PCEtLWxpbmsgVUM3IHRvIERCMy0tPjxnIGlkPSJsaW5rX1VDN19EQjMiPjxwYXRoIGQ9Ik0xMDU2LjQyLDUzNy42MSBDMTA0MC44OSw1MTQuNDcgMTAwOS41Miw0NzMuNzMgOTcxLDQ1NS41IEM5NTEuNjUsNDQ2LjM0IDg5My4wNCw0NTkuMDMgODc1LDQ0Ny41IEM4NTMuMjMsNDMzLjU4IDg0Mi45NDcxLDQxMC41NjE0IDgzNy4xNjcxLDM5Mi4yNjE0ICIgZmlsbD0ibm9uZSIgaWQ9IlVDNy10by1EQjMiIHN0eWxlPSJzdHJva2U6IzE4MTgxODtzdHJva2Utd2lkdGg6MS4wOyIvPjxwb2x5Z29uIGZpbGw9IiMxODE4MTgiIHBvaW50cz0iODM1LjM2LDM4Ni41NCw4MzQuMjU2NCwzOTYuMzI2OCw4MzYuODY1OSwzOTEuMzA3OCw4NDEuODg0OSwzOTMuOTE3NCw4MzUuMzYsMzg2LjU0IiBzdHlsZT0ic3Ryb2tlOiMxODE4MTg7c3Ryb2tlLXdpZHRoOjEuMDsiLz48dGV4dCBmaWxsPSIjMDAwMDAwIiBmb250LWZhbWlseT0ic2Fucy1zZXJpZiIgZm9udC1zaXplPSIxMyIgbGVuZ3RoQWRqdXN0PSJzcGFjaW5nIiB0ZXh0TGVuZ3RoPSIyNiIgeD0iODg5IiB5PSI0MzEuNzg5MSI+JiMyNjM1NjsmIzI2MDMyOzwvdGV4dD48dGV4dCBmaWxsPSIjMDAwMDAwIiBmb250LWZhbWlseT0ic2Fucy1zZXJpZiIgZm9udC1zaXplPSIxMyIgbGVuZ3RoQWRqdXN0PSJzcGFjaW5nIiB0ZXh0TGVuZ3RoPSI1MiIgeD0iODc2IiB5PSI0NDUuNzAzMSI+JiMzMTA4MDsmIzIxMTUzOyYjMjA0NDk7JiMyNDY4Nzs8L3RleHQ+PC9nPjwhLS1saW5rIFVDOSB0byBEQjQtLT48ZyBpZD0ibGlua19VQzlfREI0Ij48cGF0aCBkPSJNMTQzMy41Niw1MzcuMzEgQzE0MTguMTgsNTEzLjgyIDEzODcuMDEsNDcyLjY2IDEzNDgsNDU1LjUgQzEzMTksNDQyLjc0IDEwOTIuNzIsNDU4LjQ1IDEwNjMsNDQ3LjUgQzEwNDMuNzIsNDQwLjQgMTA0My41LDQzMC43NSAxMDI3LDQxOC41IEMxMDEyLjE0LDQwNy40NiAxMDAwLjAwODksMzk5LjA3MzIgOTg2LjI5ODksMzg5LjkxMzIgIiBmaWxsPSJub25lIiBpZD0iVUM5LXRvLURCNCIgc3R5bGU9InN0cm9rZTojMTgxODE4O3N0cm9rZS13aWR0aDoxLjA7Ii8+PHBvbHlnb24gZmlsbD0iIzE4MTgxOCIgcG9pbnRzPSI5ODEuMzEsMzg2LjU4LDk4Ni41NzEzLDM5NC45MDU4LDk4NS40Njc1LDM4OS4zNTc3LDk5MS4wMTU2LDM4OC4yNTM5LDk4MS4zMSwzODYuNTgiIHN0eWxlPSJzdHJva2U6IzE4MTgxODtzdHJva2Utd2lkdGg6MS4wOyIvPjx0ZXh0IGZpbGw9IiMwMDAwMDAiIGZvbnQtZmFtaWx5PSJzYW5zLXNlcmlmIiBmb250LXNpemU9IjEzIiBsZW5ndGhBZGp1c3Q9InNwYWNpbmciIHRleHRMZW5ndGg9IjI2IiB4PSIxMDc3IiB5PSI0MzEuNzg5MSI+JiMyNjM1NjsmIzI2MDMyOzwvdGV4dD48dGV4dCBmaWxsPSIjMDAwMDAwIiBmb250LWZhbWlseT0ic2Fucy1zZXJpZiIgZm9udC1zaXplPSIxMyIgbGVuZ3RoQWRqdXN0PSJzcGFjaW5nIiB0ZXh0TGVuZ3RoPSI1MiIgeD0iMTA2NCIgeT0iNDQ1LjcwMzEiPiYjMjE0OTY7JiMyNjQyNjsmIzIwNDQ5OyYjMjQ2ODc7PC90ZXh0PjwvZz48IS0tbGluayBVQzExIHRvIERCNS0tPjxnIGlkPSJsaW5rX1VDMTFfREI1Ij48cGF0aCBkPSJNMTgxMC44NCw1MzcuNjQgQzE3OTUuNTksNTE0LjE1IDE3NjQuMzIsNDcyLjU0IDE3MjUsNDU1LjUgQzE2NzYuNjcsNDM0LjU2IDEzMDAuNTMsNDY1LjQ0IDEyNTEsNDQ3LjUgQzEyMzEuNjgsNDQwLjUgMTIzMi45LDQyOC41OCAxMjE1LDQxOC41IEMxMTg2Ljk3LDQwMi43MiAxMTU4LjU5NSwzOTIuMjIzMyAxMTMxLjc5NSwzODMuOTgzMyAiIGZpbGw9Im5vbmUiIGlkPSJVQzExLXRvLURCNSIgc3R5bGU9InN0cm9rZTojMTgxODE4O3N0cm9rZS13aWR0aDoxLjA7Ii8+PHBvbHlnb24gZmlsbD0iIzE4MTgxOCIgcG9pbnRzPSIxMTI2LjA2LDM4Mi4yMiwxMTMzLjQ4NywzODguNjg4MywxMTMwLjgzOTIsMzgzLjY4OTQsMTEzNS44MzgxLDM4MS4wNDE2LDExMjYuMDYsMzgyLjIyIiBzdHlsZT0ic3Ryb2tlOiMxODE4MTg7c3Ryb2tlLXdpZHRoOjEuMDsiLz48dGV4dCBmaWxsPSIjMDAwMDAwIiBmb250LWZhbWlseT0ic2Fucy1zZXJpZiIgZm9udC1zaXplPSIxMyIgbGVuZ3RoQWRqdXN0PSJzcGFjaW5nIiB0ZXh0TGVuZ3RoPSIyNiIgeD0iMTI2NSIgeT0iNDMxLjc4OTEiPiYjMjYzNTY7JiMyNjAzMjs8L3RleHQ+PHRleHQgZmlsbD0iIzAwMDAwMCIgZm9udC1mYW1pbHk9InNhbnMtc2VyaWYiIGZvbnQtc2l6ZT0iMTMiIGxlbmd0aEFkanVzdD0ic3BhY2luZyIgdGV4dExlbmd0aD0iNTIiIHg9IjEyNTIiIHk9IjQ0NS43MDMxIj4mIzI5OTkyOyYjMjUxNDM7JiMyMDQ0OTsmIzI0Njg3OzwvdGV4dD48L2c+PCEtLXJldmVyc2UgbGluayBEQjEgdG8gVUM0LS0+PGcgaWQ9ImxpbmtfREIxX1VDNCI+PHBhdGggZD0iTTUyOS44MDA1LDM3MS44NTU0IEM0NTcuMzMwNSwzNzYuMTU1NCAzMTguOTQsMzkyLjMyIDIxNyw0NTUuNSBDMTgyLjEsNDc3LjEzIDE1NS4wMSw1MTguODEgMTQyLjUzLDU0MC41NSAiIGZpbGw9Im5vbmUiIGlkPSJEQjEtYmFja3RvLVVDNCIgc3R5bGU9InN0cm9rZTojMTgxODE4O3N0cm9rZS13aWR0aDoxLjA7c3Ryb2tlLWRhc2hhcnJheTo3LjAsNy4wOyIvPjxwb2x5Z29uIGZpbGw9IiMxODE4MTgiIHBvaW50cz0iNTM1Ljc5LDM3MS41LDUyNi41Njg5LDM2OC4wNDAxLDUzMC43OTg4LDM3MS43OTYyLDUyNy4wNDI3LDM3Ni4wMjYxLDUzNS43OSwzNzEuNSIgc3R5bGU9InN0cm9rZTojMTgxODE4O3N0cm9rZS13aWR0aDoxLjA7Ii8+PHRleHQgZmlsbD0iIzAwMDAwMCIgZm9udC1mYW1pbHk9InNhbnMtc2VyaWYiIGZvbnQtc2l6ZT0iMTMiIGxlbmd0aEFkanVzdD0ic3BhY2luZyIgdGV4dExlbmd0aD0iMjYiIHg9IjMwNCIgeT0iNDMxLjc4OTEiPiYjMzY4MjA7JiMyMjIzODs8L3RleHQ+PHRleHQgZmlsbD0iIzAwMDAwMCIgZm9udC1mYW1pbHk9InNhbnMtc2VyaWYiIGZvbnQtc2l6ZT0iMTMiIGxlbmd0aEFkanVzdD0ic3BhY2luZyIgdGV4dExlbmd0aD0iNTIiIHg9IjI5MSIgeT0iNDQ1LjcwMzEiPiYjMjY1OTc7JiMzNTgxMDsmIzMyNDY3OyYjMjY1MjQ7PC90ZXh0PjwvZz48IS0tcmV2ZXJzZSBsaW5rIERCMiB0byBVQzYtLT48ZyBpZD0ibGlua19EQjJfVUM2Ij48cGF0aCBkPSJNNjc3Ljc4OTUsMzg5Ljk1MDcgQzY2Ni4xNzk1LDM5Ny44MDA3IDY1Ni43LDQwMy41OCA2NDMsNDEwLjUgQzYzNC4wOCw0MTUgNjMwLjA5LDQxMi42NCA2MjIsNDE4LjUgQzU3NC4zLDQ1My4wOCA1MzUuNzMsNTEzLjM1IDUxOS44NCw1NDAuNTIgIiBmaWxsPSJub25lIiBpZD0iREIyLWJhY2t0by1VQzYiIHN0eWxlPSJzdHJva2U6IzE4MTgxODtzdHJva2Utd2lkdGg6MS4wO3N0cm9rZS1kYXNoYXJyYXk6Ny4wLDcuMDsiLz48cG9seWdvbiBmaWxsPSIjMTgxODE4IiBwb2ludHM9IjY4Mi43NiwzODYuNTksNjczLjA2MzgsMzg4LjMxNzUsNjc4LjYxNzksMzg5LjM5MDYsNjc3LjU0NDgsMzk0Ljk0NDcsNjgyLjc2LDM4Ni41OSIgc3R5bGU9InN0cm9rZTojMTgxODE4O3N0cm9rZS13aWR0aDoxLjA7Ii8+PHRleHQgZmlsbD0iIzAwMDAwMCIgZm9udC1mYW1pbHk9InNhbnMtc2VyaWYiIGZvbnQtc2l6ZT0iMTMiIGxlbmd0aEFkanVzdD0ic3BhY2luZyIgdGV4dExlbmd0aD0iMjYiIHg9IjYzNiIgeT0iNDMxLjc4OTEiPiYjMzY4MjA7JiMyMjIzODs8L3RleHQ+PHRleHQgZmlsbD0iIzAwMDAwMCIgZm9udC1mYW1pbHk9InNhbnMtc2VyaWYiIGZvbnQtc2l6ZT0iMTMiIGxlbmd0aEFkanVzdD0ic3BhY2luZyIgdGV4dExlbmd0aD0iNTIiIHg9IjYyMyIgeT0iNDQ1LjcwMzEiPiYjMjY1OTc7JiMzNTgxMDsmIzMyNDY3OyYjMjY1MjQ7PC90ZXh0PjwvZz48IS0tcmV2ZXJzZSBsaW5rIERCMyB0byBVQzgtLT48ZyBpZD0ibGlua19EQjNfVUM4Ij48cGF0aCBkPSJNODAyLjAwMzcsMzkwLjU1NDggQzc5Mi4wODM3LDM5OC44MzQ4IDc4Ni4zMyw0MDUuOTEgNzgxLDQxOC41IEM3NzUuOTgsNDMwLjM3IDc3Ni4wNCw0MzUuNiA3ODEsNDQ3LjUgQzc5MC41NSw0NzAuNCA4NDQuMzIsNTE3LjM3IDg3Mi4yMSw1NDAuNzEgIiBmaWxsPSJub25lIiBpZD0iREIzLWJhY2t0by1VQzgiIHN0eWxlPSJzdHJva2U6IzE4MTgxODtzdHJva2Utd2lkdGg6MS4wO3N0cm9rZS1kYXNoYXJyYXk6Ny4wLDcuMDsiLz48cG9seWdvbiBmaWxsPSIjMTgxODE4IiBwb2ludHM9IjgwNi42MSwzODYuNzEsNzk3LjEzNzQsMzg5LjQwNjMsODAyLjc3MTQsMzg5LjkxNCw4MDIuMjYzOCwzOTUuNTQ4LDgwNi42MSwzODYuNzEiIHN0eWxlPSJzdHJva2U6IzE4MTgxODtzdHJva2Utd2lkdGg6MS4wOyIvPjx0ZXh0IGZpbGw9IiMwMDAwMDAiIGZvbnQtZmFtaWx5PSJzYW5zLXNlcmlmIiBmb250LXNpemU9IjEzIiBsZW5ndGhBZGp1c3Q9InNwYWNpbmciIHRleHRMZW5ndGg9IjI2IiB4PSI3OTUiIHk9IjQzMS43ODkxIj4mIzM2ODIwOyYjMjIyMzg7PC90ZXh0Pjx0ZXh0IGZpbGw9IiMwMDAwMDAiIGZvbnQtZmFtaWx5PSJzYW5zLXNlcmlmIiBmb250LXNpemU9IjEzIiBsZW5ndGhBZGp1c3Q9InNwYWNpbmciIHRleHRMZW5ndGg9IjUyIiB4PSI3ODIiIHk9IjQ0NS43MDMxIj4mIzI2NTk3OyYjMzU4MTA7JiMzMjQ2NzsmIzI2NTI0OzwvdGV4dD48L2c+PCEtLXJldmVyc2UgbGluayBEQjQgdG8gVUMxMC0tPjxnIGlkPSJsaW5rX0RCNF9VQzEwIj48cGF0aCBkPSJNOTUyLjc3NDUsMzkyLjc0MTQgQzk1MS4wMTQ1LDQxMC42OTE0IDk1Mi4xMiw0MzIuNjEgOTY5LDQ0Ny41IEM5ODUuMDksNDYxLjcgMTE0Mi4yNCw0NDcuMTIgMTE2Miw0NTUuNSBDMTIwNC42OSw0NzMuNiAxMjQwLjI0LDUxNy42NiAxMjU2LjUsNTQwLjQgIiBmaWxsPSJub25lIiBpZD0iREI0LWJhY2t0by1VQzEwIiBzdHlsZT0ic3Ryb2tlOiMxODE4MTg7c3Ryb2tlLXdpZHRoOjEuMDtzdHJva2UtZGFzaGFycmF5OjcuMCw3LjA7Ii8+PHBvbHlnb24gZmlsbD0iIzE4MTgxOCIgcG9pbnRzPSI5NTMuMzYsMzg2Ljc3LDk0OC41MDA5LDM5NS4zMzY3LDk1Mi44NzIxLDM5MS43NDYxLDk1Ni40NjI3LDM5Ni4xMTc0LDk1My4zNiwzODYuNzciIHN0eWxlPSJzdHJva2U6IzE4MTgxODtzdHJva2Utd2lkdGg6MS4wOyIvPjx0ZXh0IGZpbGw9IiMwMDAwMDAiIGZvbnQtZmFtaWx5PSJzYW5zLXNlcmlmIiBmb250LXNpemU9IjEzIiBsZW5ndGhBZGp1c3Q9InNwYWNpbmciIHRleHRMZW5ndGg9IjI2IiB4PSI5ODMiIHk9IjQzMS43ODkxIj4mIzM2ODIwOyYjMjIyMzg7PC90ZXh0Pjx0ZXh0IGZpbGw9IiMwMDAwMDAiIGZvbnQtZmFtaWx5PSJzYW5zLXNlcmlmIiBmb250LXNpemU9IjEzIiBsZW5ndGhBZGp1c3Q9InNwYWNpbmciIHRleHRMZW5ndGg9IjUyIiB4PSI5NzAiIHk9IjQ0NS43MDMxIj4mIzI2NTk3OyYjMzU4MTA7JiMzMjQ2NzsmIzI2NTI0OzwvdGV4dD48L2c+PCEtLXJldmVyc2UgbGluayBEQjUgdG8gVUMxMi0tPjxnIGlkPSJsaW5rX0RCNV9VQzEyIj48cGF0aCBkPSJNMTA5OC42MzM1LDM5MS4zNTA2IEMxMTE2LjExMzUsNDEyLjEyMDYgMTE0MS45NSw0NDAuOTkgMTE1Nyw0NDcuNSBDMTE5NS45Nyw0NjQuMzUgMTQ5OS43NSw0MzkuMzMgMTUzOSw0NTUuNSBDMTU4MS44Nyw0NzMuMTYgMTYxNy4zNSw1MTcuNDIgMTYzMy41NCw1NDAuMyAiIGZpbGw9Im5vbmUiIGlkPSJEQjUtYmFja3RvLVVDMTIiIHN0eWxlPSJzdHJva2U6IzE4MTgxODtzdHJva2Utd2lkdGg6MS4wO3N0cm9rZS1kYXNoYXJyYXk6Ny4wLDcuMDsiLz48cG9seWdvbiBmaWxsPSIjMTgxODE4IiBwb2ludHM9IjEwOTQuNzcsMzg2Ljc2LDEwOTcuNTA0OCwzOTYuMjIxNiwxMDk3Ljk4OTUsMzkwLjU4NTUsMTEwMy42MjU2LDM5MS4wNzAzLDEwOTQuNzcsMzg2Ljc2IiBzdHlsZT0ic3Ryb2tlOiMxODE4MTg7c3Ryb2tlLXdpZHRoOjEuMDsiLz48dGV4dCBmaWxsPSIjMDAwMDAwIiBmb250LWZhbWlseT0ic2Fucy1zZXJpZiIgZm9udC1zaXplPSIxMyIgbGVuZ3RoQWRqdXN0PSJzcGFjaW5nIiB0ZXh0TGVuZ3RoPSIyNiIgeD0iMTE3MSIgeT0iNDMxLjc4OTEiPiYjMzY4MjA7JiMyMjIzODs8L3RleHQ+PHRleHQgZmlsbD0iIzAwMDAwMCIgZm9udC1mYW1pbHk9InNhbnMtc2VyaWYiIGZvbnQtc2l6ZT0iMTMiIGxlbmd0aEFkanVzdD0ic3BhY2luZyIgdGV4dExlbmd0aD0iNTIiIHg9IjExNTgiIHk9IjQ0NS43MDMxIj4mIzI2NTk3OyYjMzU4MTA7JiMzMjQ2NzsmIzI2NTI0OzwvdGV4dD48L2c+PCEtLVNSQz1bYlBKREpqajA0Q1ZsLW5JaE43QTJPWmxjSXJLRlJJenpXRHd1azZkS0l2TEE5M3JMSThILUdLV1JMOTkyLUdlNktSYks5NFliSWkxMlVIZGxzZGNCeGRlc09mb2lLSGVmYVBOdnBOXy1FcEZoQjZOamxVMXdXek5OV2p4TlFGS1pTVkJiRHlpcVI3WHlsS2o4TGlOM0Z0eGVqeTljUk4xdW1oeExrRVVvbW5zb05DWU5kVUFocm1NUU9UcWhUbGV4UkJsWHJZVTBDX0dUOFBIY2dTaFQtbjNxX0VYZFhMTFJxVmpSZkswZnFlMllLMkgzZEg5el9hbmVLRjV2TW9oYWRQOTRWbFppaldkMTlxT285a0ozeW5yTUZyTFhLdUhOSUI4NEJmdkh1Y0VkMkZla2h0SldCNEM4clU1VGRyTUY3bUp6RGN6U3VtbkxybmZCUTlyNWRIQ0RjT2w5czZGMkhrSk1HY3pwQ1dGMDljSGpsRzRERVBqWTgzcHBNRE1UcDAybTJUYXZsRzRERVB6WVdETHhfRTNjbG1RMUNmSnVHaWVXbmFiWjlncUhpOUFKREk5Y2F4ZjZJWVNxZ0FhaUExalBvZmtOXzRrUk5Vb29ES195eVQ4ZkVvejAwbTh0c3Q3Z3F5VnR4dDdhVWVlcHo3aXNZZmR3UkhaNWhGamNUZVZiejJxVG5VcHV0Mmp0Um5tdTlGelI4UDEwZndPVW5OVFVWRE1wSUhTZi10bUhUSWczeXZodU5JaG96SXJubXVhQzBNODlQQjJ3bUpUX0JITm5BbWVYRGFCbW5LRjg3NEJtckszODBZdUtEczhDQ0dtaVduUUJJOS1JNElDSTJELV91anlsWHR3WEtLSncxQ0g0MjF1V2FKdTFpSDIyWHFVYUpxMW9rMTBRNzhiejBjRFo2SkdyOGRxLWQ5d01ScDIxSEZxNnNweUlwT1ZMemhWdnFHNkhGVzZQSktTaVhTb2Q4cGM1NjNGZlozcmFwMUpjN20wMF0tLT48L2c+PC9zdmc+;" vertex="1" parent="1">
            <mxGeometry x="1120" y="680" width="1970" height="643" as="geometry" />
          </mxCell>
        </UserObject>
        <UserObject label="" plantUmlData="{&quot;data&quot;:&quot;@startuml\n&#39; 定义实体以及它们之间的关系\nentity \&quot;司机\&quot; as Driver {\n  * ID : int\n  --\n  * 姓名 : string\n  * 驾照编号 : string\n}\n\nentity \&quot;巴士\&quot; as Bus {\n  * ID : int\n  --\n  * 车牌号 : string\n  * 座位数 : int\n  * 型号 : string\n}\n\nentity \&quot;行程\&quot; as Trip {\n  * ID : int\n  --\n  * 出发地 : string\n  * 目的地 : string\n  * 出发时间 : datetime\n}\n\nentity \&quot;票务\&quot; as Ticket {\n  * ID : int\n  --\n  * 购票日期 : date\n  * 座位号 : string\n}\n\nentity \&quot;用户\&quot; as User {\n  * ID : int\n  --\n  * 用户名 : string\n  * 密码 : string\n  * 邮箱 : string\n}\n\n&#39; 定义关系\nDriver ||--o{ Bus : \&quot;驾驶\&quot;\nDriver ||--o{ Trip : \&quot;安排\&quot;\nBus ||--o{ Trip : \&quot;分配\&quot;\nUser ||--o{ Ticket : \&quot;购买\&quot;\nTrip }o--|| Ticket : \&quot;包含\&quot;\n\n@enduml\n&quot;,&quot;format&quot;:&quot;svg&quot;}" id="fYDE9vizx6uy-5a_bvqT-4">
          <mxCell style="shape=image;noLabel=1;verticalAlign=top;aspect=fixed;imageAspect=0;image=data:image/svg+xml,PD94bWwgdmVyc2lvbj0iMS4wIiBlbmNvZGluZz0idXMtYXNjaWkiIHN0YW5kYWxvbmU9Im5vIj8+PHN2ZyB4bWxucz0iaHR0cDovL3d3dy53My5vcmcvMjAwMC9zdmciIHhtbG5zOnhsaW5rPSJodHRwOi8vd3d3LnczLm9yZy8xOTk5L3hsaW5rIiBjb250ZW50U3R5bGVUeXBlPSJ0ZXh0L2NzcyIgaGVpZ2h0PSI2NDBweCIgcHJlc2VydmVBc3BlY3RSYXRpbz0ibm9uZSIgc3R5bGU9IndpZHRoOjM5NHB4O2hlaWdodDo2NDBweDtiYWNrZ3JvdW5kOiNGRkZGRkY7IiB2ZXJzaW9uPSIxLjEiIHZpZXdCb3g9IjAgMCAzOTQgNjQwIiB3aWR0aD0iMzk0cHgiIHpvb21BbmRQYW49Im1hZ25pZnkiPjxkZWZzLz48Zz48IS0tY2xhc3MgRHJpdmVyLS0+PGcgaWQ9ImVsZW1fRHJpdmVyIj48cmVjdCBjb2RlTGluZT0iMiIgZmlsbD0iI0YxRjFGMSIgaGVpZ2h0PSI5Mi45NTMxIiBpZD0iRHJpdmVyIiByeD0iMi41IiByeT0iMi41IiBzdHlsZT0ic3Ryb2tlOiMxODE4MTg7c3Ryb2tlLXdpZHRoOjAuNTsiIHdpZHRoPSIxNDUiIHg9IjY4IiB5PSI3Ii8+PGVsbGlwc2UgY3g9IjEyMi4yNSIgY3k9IjIzIiBmaWxsPSIjQUREMUIyIiByeD0iMTEiIHJ5PSIxMSIgc3R5bGU9InN0cm9rZTojMTgxODE4O3N0cm9rZS13aWR0aDoxLjA7Ii8+PHBhdGggZD0iTTEyNS44NzUsMjkgTDEyNS44NzUsMjcuMjUgTDEyMC41NjI1LDI3LjI1IFExMjAuNTYyNSwyNy4yNSAxMjAuNTYyNSwyMy42ODc1IEwxMjQuODEyNSwyMy42ODc1IEwxMjQuODEyNSwyMS45Mzc1IEwxMjAuNTYyNSwyMS45Mzc1IEwxMjAuNTYyNSwxOS40Mzc1IEwxMjUuODc1LDE5LjQzNzUgTDEyNS44NzUsMTcuNjg3NSBMMTE4LjgxMjUsMTcuNjg3NSBRMTE4LjgxMjUsMTcuNjg3NSAxMTguODEyNSwyOSBMMTI1Ljg3NSwyOSBaICIgZmlsbD0iIzAwMDAwMCIvPjx0ZXh0IGZpbGw9IiMwMDAwMDAiIGZvbnQtZmFtaWx5PSJzYW5zLXNlcmlmIiBmb250LXNpemU9IjE0IiBsZW5ndGhBZGp1c3Q9InNwYWNpbmciIHRleHRMZW5ndGg9IjI4IiB4PSIxNDIuNzUiIHk9IjI4Ljc0MjIiPiYjMjE0OTY7JiMyNjQyNjs8L3RleHQ+PGxpbmUgc3R5bGU9InN0cm9rZTojMTgxODE4O3N0cm9rZS13aWR0aDowLjU7IiB4MT0iNjkiIHgyPSIyMTIiIHkxPSIzOSIgeTI9IjM5Ii8+PGVsbGlwc2UgY3g9Ijc5IiBjeT0iNTEuOTkyMiIgZmlsbD0iIzAwMDAwMCIgcng9IjMiIHJ5PSIzIiBzdHlsZT0ic3Ryb2tlOiMwMDAwMDA7c3Ryb2tlLXdpZHRoOjEuMDsiLz48dGV4dCBmaWxsPSIjMDAwMDAwIiBmb250LWZhbWlseT0ic2Fucy1zZXJpZiIgZm9udC1zaXplPSIxNCIgbGVuZ3RoQWRqdXN0PSJzcGFjaW5nIiB0ZXh0TGVuZ3RoPSI1NiIgeD0iODgiIHk9IjU2LjIzNDQiPklEIDogaW50PC90ZXh0PjxsaW5lIHN0eWxlPSJzdHJva2U6IzE4MTgxODtzdHJva2Utd2lkdGg6MS4wOyIgeDE9IjY5IiB4Mj0iMjEyIiB5MT0iNjEuOTg0NCIgeTI9IjYxLjk4NDQiLz48ZWxsaXBzZSBjeD0iNzkiIGN5PSI3NC45NzY2IiBmaWxsPSIjMDAwMDAwIiByeD0iMyIgcnk9IjMiIHN0eWxlPSJzdHJva2U6IzAwMDAwMDtzdHJva2Utd2lkdGg6MS4wOyIvPjx0ZXh0IGZpbGw9IiMwMDAwMDAiIGZvbnQtZmFtaWx5PSJzYW5zLXNlcmlmIiBmb250LXNpemU9IjE0IiBsZW5ndGhBZGp1c3Q9InNwYWNpbmciIHRleHRMZW5ndGg9IjkxIiB4PSI4OCIgeT0iNzkuMjE4OCI+JiMyMjk5NTsmIzIxNTE3OyA6IHN0cmluZzwvdGV4dD48ZWxsaXBzZSBjeD0iNzkiIGN5PSI4OS45NjA5IiBmaWxsPSIjMDAwMDAwIiByeD0iMyIgcnk9IjMiIHN0eWxlPSJzdHJva2U6IzAwMDAwMDtzdHJva2Utd2lkdGg6MS4wOyIvPjx0ZXh0IGZpbGw9IiMwMDAwMDAiIGZvbnQtZmFtaWx5PSJzYW5zLXNlcmlmIiBmb250LXNpemU9IjE0IiBsZW5ndGhBZGp1c3Q9InNwYWNpbmciIHRleHRMZW5ndGg9IjExOSIgeD0iODgiIHk9Ijk0LjIwMzEiPiYjMzk1NTA7JiMyOTAzMTsmIzMyNTM0OyYjMjE0OTU7IDogc3RyaW5nPC90ZXh0PjwvZz48IS0tY2xhc3MgQnVzLS0+PGcgaWQ9ImVsZW1fQnVzIj48cmVjdCBjb2RlTGluZT0iOSIgZmlsbD0iI0YxRjFGMSIgaGVpZ2h0PSIxMDcuOTM3NSIgaWQ9IkJ1cyIgcng9IjIuNSIgcnk9IjIuNSIgc3R5bGU9InN0cm9rZTojMTgxODE4O3N0cm9rZS13aWR0aDowLjU7IiB3aWR0aD0iMTMxIiB4PSI3IiB5PSIxNzUiLz48ZWxsaXBzZSBjeD0iNTQuMjUiIGN5PSIxOTEiIGZpbGw9IiNBREQxQjIiIHJ4PSIxMSIgcnk9IjExIiBzdHlsZT0ic3Ryb2tlOiMxODE4MTg7c3Ryb2tlLXdpZHRoOjEuMDsiLz48cGF0aCBkPSJNNTcuODc1LDE5NyBMNTcuODc1LDE5NS4yNSBMNTIuNTYyNSwxOTUuMjUgUTUyLjU2MjUsMTk1LjI1IDUyLjU2MjUsMTkxLjY4NzUgTDU2LjgxMjUsMTkxLjY4NzUgTDU2LjgxMjUsMTg5LjkzNzUgTDUyLjU2MjUsMTg5LjkzNzUgTDUyLjU2MjUsMTg3LjQzNzUgTDU3Ljg3NSwxODcuNDM3NSBMNTcuODc1LDE4NS42ODc1IEw1MC44MTI1LDE4NS42ODc1IFE1MC44MTI1LDE4NS42ODc1IDUwLjgxMjUsMTk3IEw1Ny44NzUsMTk3IFogIiBmaWxsPSIjMDAwMDAwIi8+PHRleHQgZmlsbD0iIzAwMDAwMCIgZm9udC1mYW1pbHk9InNhbnMtc2VyaWYiIGZvbnQtc2l6ZT0iMTQiIGxlbmd0aEFkanVzdD0ic3BhY2luZyIgdGV4dExlbmd0aD0iMjgiIHg9Ijc0Ljc1IiB5PSIxOTYuNzQyMiI+JiMyNDA1MjsmIzIyNzYzOzwvdGV4dD48bGluZSBzdHlsZT0ic3Ryb2tlOiMxODE4MTg7c3Ryb2tlLXdpZHRoOjAuNTsiIHgxPSI4IiB4Mj0iMTM3IiB5MT0iMjA3IiB5Mj0iMjA3Ii8+PGVsbGlwc2UgY3g9IjE4IiBjeT0iMjE5Ljk5MjIiIGZpbGw9IiMwMDAwMDAiIHJ4PSIzIiByeT0iMyIgc3R5bGU9InN0cm9rZTojMDAwMDAwO3N0cm9rZS13aWR0aDoxLjA7Ii8+PHRleHQgZmlsbD0iIzAwMDAwMCIgZm9udC1mYW1pbHk9InNhbnMtc2VyaWYiIGZvbnQtc2l6ZT0iMTQiIGxlbmd0aEFkanVzdD0ic3BhY2luZyIgdGV4dExlbmd0aD0iNTYiIHg9IjI3IiB5PSIyMjQuMjM0NCI+SUQgOiBpbnQ8L3RleHQ+PGxpbmUgc3R5bGU9InN0cm9rZTojMTgxODE4O3N0cm9rZS13aWR0aDoxLjA7IiB4MT0iOCIgeDI9IjEzNyIgeTE9IjIyOS45ODQ0IiB5Mj0iMjI5Ljk4NDQiLz48ZWxsaXBzZSBjeD0iMTgiIGN5PSIyNDIuOTc2NiIgZmlsbD0iIzAwMDAwMCIgcng9IjMiIHJ5PSIzIiBzdHlsZT0ic3Ryb2tlOiMwMDAwMDA7c3Ryb2tlLXdpZHRoOjEuMDsiLz48dGV4dCBmaWxsPSIjMDAwMDAwIiBmb250LWZhbWlseT0ic2Fucy1zZXJpZiIgZm9udC1zaXplPSIxNCIgbGVuZ3RoQWRqdXN0PSJzcGFjaW5nIiB0ZXh0TGVuZ3RoPSIxMDUiIHg9IjI3IiB5PSIyNDcuMjE4OCI+JiMzNjcxMDsmIzI5MjYwOyYjMjE0OTU7IDogc3RyaW5nPC90ZXh0PjxlbGxpcHNlIGN4PSIxOCIgY3k9IjI1Ny45NjA5IiBmaWxsPSIjMDAwMDAwIiByeD0iMyIgcnk9IjMiIHN0eWxlPSJzdHJva2U6IzAwMDAwMDtzdHJva2Utd2lkdGg6MS4wOyIvPjx0ZXh0IGZpbGw9IiMwMDAwMDAiIGZvbnQtZmFtaWx5PSJzYW5zLXNlcmlmIiBmb250LXNpemU9IjE0IiBsZW5ndGhBZGp1c3Q9InNwYWNpbmciIHRleHRMZW5ndGg9Ijg0IiB4PSIyNyIgeT0iMjYyLjIwMzEiPiYjMjQyMzE7JiMyMDMwMTsmIzI1OTY4OyA6IGludDwvdGV4dD48ZWxsaXBzZSBjeD0iMTgiIGN5PSIyNzIuOTQ1MyIgZmlsbD0iIzAwMDAwMCIgcng9IjMiIHJ5PSIzIiBzdHlsZT0ic3Ryb2tlOiMwMDAwMDA7c3Ryb2tlLXdpZHRoOjEuMDsiLz48dGV4dCBmaWxsPSIjMDAwMDAwIiBmb250LWZhbWlseT0ic2Fucy1zZXJpZiIgZm9udC1zaXplPSIxNCIgbGVuZ3RoQWRqdXN0PSJzcGFjaW5nIiB0ZXh0TGVuZ3RoPSI5MSIgeD0iMjciIHk9IjI3Ny4xODc1Ij4mIzIyNDExOyYjMjE0OTU7IDogc3RyaW5nPC90ZXh0PjwvZz48IS0tY2xhc3MgVHJpcC0tPjxnIGlkPSJlbGVtX1RyaXAiPjxyZWN0IGNvZGVMaW5lPSIxNyIgZmlsbD0iI0YxRjFGMSIgaGVpZ2h0PSIxMDcuOTM3NSIgaWQ9IlRyaXAiIHJ4PSIyLjUiIHJ5PSIyLjUiIHN0eWxlPSJzdHJva2U6IzE4MTgxODtzdHJva2Utd2lkdGg6MC41OyIgd2lkdGg9IjE2MCIgeD0iNjAuNSIgeT0iMzU4Ii8+PGVsbGlwc2UgY3g9IjEyMi4yNSIgY3k9IjM3NCIgZmlsbD0iI0FERDFCMiIgcng9IjExIiByeT0iMTEiIHN0eWxlPSJzdHJva2U6IzE4MTgxODtzdHJva2Utd2lkdGg6MS4wOyIvPjxwYXRoIGQ9Ik0xMjUuODc1LDM4MCBMMTI1Ljg3NSwzNzguMjUgTDEyMC41NjI1LDM3OC4yNSBRMTIwLjU2MjUsMzc4LjI1IDEyMC41NjI1LDM3NC42ODc1IEwxMjQuODEyNSwzNzQuNjg3NSBMMTI0LjgxMjUsMzcyLjkzNzUgTDEyMC41NjI1LDM3Mi45Mzc1IEwxMjAuNTYyNSwzNzAuNDM3NSBMMTI1Ljg3NSwzNzAuNDM3NSBMMTI1Ljg3NSwzNjguNjg3NSBMMTE4LjgxMjUsMzY4LjY4NzUgUTExOC44MTI1LDM2OC42ODc1IDExOC44MTI1LDM4MCBMMTI1Ljg3NSwzODAgWiAiIGZpbGw9IiMwMDAwMDAiLz48dGV4dCBmaWxsPSIjMDAwMDAwIiBmb250LWZhbWlseT0ic2Fucy1zZXJpZiIgZm9udC1zaXplPSIxNCIgbGVuZ3RoQWRqdXN0PSJzcGFjaW5nIiB0ZXh0TGVuZ3RoPSIyOCIgeD0iMTQyLjc1IiB5PSIzNzkuNzQyMiI+JiMzNDg5MjsmIzMxMjQzOzwvdGV4dD48bGluZSBzdHlsZT0ic3Ryb2tlOiMxODE4MTg7c3Ryb2tlLXdpZHRoOjAuNTsiIHgxPSI2MS41IiB4Mj0iMjE5LjUiIHkxPSIzOTAiIHkyPSIzOTAiLz48ZWxsaXBzZSBjeD0iNzEuNSIgY3k9IjQwMi45OTIyIiBmaWxsPSIjMDAwMDAwIiByeD0iMyIgcnk9IjMiIHN0eWxlPSJzdHJva2U6IzAwMDAwMDtzdHJva2Utd2lkdGg6MS4wOyIvPjx0ZXh0IGZpbGw9IiMwMDAwMDAiIGZvbnQtZmFtaWx5PSJzYW5zLXNlcmlmIiBmb250LXNpemU9IjE0IiBsZW5ndGhBZGp1c3Q9InNwYWNpbmciIHRleHRMZW5ndGg9IjU2IiB4PSI4MC41IiB5PSI0MDcuMjM0NCI+SUQgOiBpbnQ8L3RleHQ+PGxpbmUgc3R5bGU9InN0cm9rZTojMTgxODE4O3N0cm9rZS13aWR0aDoxLjA7IiB4MT0iNjEuNSIgeDI9IjIxOS41IiB5MT0iNDEyLjk4NDQiIHkyPSI0MTIuOTg0NCIvPjxlbGxpcHNlIGN4PSI3MS41IiBjeT0iNDI1Ljk3NjYiIGZpbGw9IiMwMDAwMDAiIHJ4PSIzIiByeT0iMyIgc3R5bGU9InN0cm9rZTojMDAwMDAwO3N0cm9rZS13aWR0aDoxLjA7Ii8+PHRleHQgZmlsbD0iIzAwMDAwMCIgZm9udC1mYW1pbHk9InNhbnMtc2VyaWYiIGZvbnQtc2l6ZT0iMTQiIGxlbmd0aEFkanVzdD0ic3BhY2luZyIgdGV4dExlbmd0aD0iMTA1IiB4PSI4MC41IiB5PSI0MzAuMjE4OCI+JiMyMDk4NjsmIzIxNDU3OyYjMjIzMjA7IDogc3RyaW5nPC90ZXh0PjxlbGxpcHNlIGN4PSI3MS41IiBjeT0iNDQwLjk2MDkiIGZpbGw9IiMwMDAwMDAiIHJ4PSIzIiByeT0iMyIgc3R5bGU9InN0cm9rZTojMDAwMDAwO3N0cm9rZS13aWR0aDoxLjA7Ii8+PHRleHQgZmlsbD0iIzAwMDAwMCIgZm9udC1mYW1pbHk9InNhbnMtc2VyaWYiIGZvbnQtc2l6ZT0iMTQiIGxlbmd0aEFkanVzdD0ic3BhY2luZyIgdGV4dExlbmd0aD0iMTA1IiB4PSI4MC41IiB5PSI0NDUuMjAzMSI+JiMzMDQ0NjsmIzMwMzQwOyYjMjIzMjA7IDogc3RyaW5nPC90ZXh0PjxlbGxpcHNlIGN4PSI3MS41IiBjeT0iNDU1Ljk0NTMiIGZpbGw9IiMwMDAwMDAiIHJ4PSIzIiByeT0iMyIgc3R5bGU9InN0cm9rZTojMDAwMDAwO3N0cm9rZS13aWR0aDoxLjA7Ii8+PHRleHQgZmlsbD0iIzAwMDAwMCIgZm9udC1mYW1pbHk9InNhbnMtc2VyaWYiIGZvbnQtc2l6ZT0iMTQiIGxlbmd0aEFkanVzdD0ic3BhY2luZyIgdGV4dExlbmd0aD0iMTM0IiB4PSI4MC41IiB5PSI0NjAuMTg3NSI+JiMyMDk4NjsmIzIxNDU3OyYjMjYxMDI7JiMzODM4ODsgOiBkYXRldGltZTwvdGV4dD48L2c+PCEtLWNsYXNzIFRpY2tldC0tPjxnIGlkPSJlbGVtX1RpY2tldCI+PHJlY3QgY29kZUxpbmU9IjI1IiBmaWxsPSIjRjFGMUYxIiBoZWlnaHQ9IjkyLjk1MzEiIGlkPSJUaWNrZXQiIHJ4PSIyLjUiIHJ5PSIyLjUiIHN0eWxlPSJzdHJva2U6IzE4MTgxODtzdHJva2Utd2lkdGg6MC41OyIgd2lkdGg9IjEzMSIgeD0iMTY2IiB5PSI1NDEiLz48ZWxsaXBzZSBjeD0iMjEzLjI1IiBjeT0iNTU3IiBmaWxsPSIjQUREMUIyIiByeD0iMTEiIHJ5PSIxMSIgc3R5bGU9InN0cm9rZTojMTgxODE4O3N0cm9rZS13aWR0aDoxLjA7Ii8+PHBhdGggZD0iTTIxNi44NzUsNTYzIEwyMTYuODc1LDU2MS4yNSBMMjExLjU2MjUsNTYxLjI1IFEyMTEuNTYyNSw1NjEuMjUgMjExLjU2MjUsNTU3LjY4NzUgTDIxNS44MTI1LDU1Ny42ODc1IEwyMTUuODEyNSw1NTUuOTM3NSBMMjExLjU2MjUsNTU1LjkzNzUgTDIxMS41NjI1LDU1My40Mzc1IEwyMTYuODc1LDU1My40Mzc1IEwyMTYuODc1LDU1MS42ODc1IEwyMDkuODEyNSw1NTEuNjg3NSBRMjA5LjgxMjUsNTUxLjY4NzUgMjA5LjgxMjUsNTYzIEwyMTYuODc1LDU2MyBaICIgZmlsbD0iIzAwMDAwMCIvPjx0ZXh0IGZpbGw9IiMwMDAwMDAiIGZvbnQtZmFtaWx5PSJzYW5zLXNlcmlmIiBmb250LXNpemU9IjE0IiBsZW5ndGhBZGp1c3Q9InNwYWNpbmciIHRleHRMZW5ndGg9IjI4IiB4PSIyMzMuNzUiIHk9IjU2Mi43NDIyIj4mIzMxMDgwOyYjMjExNTM7PC90ZXh0PjxsaW5lIHN0eWxlPSJzdHJva2U6IzE4MTgxODtzdHJva2Utd2lkdGg6MC41OyIgeDE9IjE2NyIgeDI9IjI5NiIgeTE9IjU3MyIgeTI9IjU3MyIvPjxlbGxpcHNlIGN4PSIxNzciIGN5PSI1ODUuOTkyMiIgZmlsbD0iIzAwMDAwMCIgcng9IjMiIHJ5PSIzIiBzdHlsZT0ic3Ryb2tlOiMwMDAwMDA7c3Ryb2tlLXdpZHRoOjEuMDsiLz48dGV4dCBmaWxsPSIjMDAwMDAwIiBmb250LWZhbWlseT0ic2Fucy1zZXJpZiIgZm9udC1zaXplPSIxNCIgbGVuZ3RoQWRqdXN0PSJzcGFjaW5nIiB0ZXh0TGVuZ3RoPSI1NiIgeD0iMTg2IiB5PSI1OTAuMjM0NCI+SUQgOiBpbnQ8L3RleHQ+PGxpbmUgc3R5bGU9InN0cm9rZTojMTgxODE4O3N0cm9rZS13aWR0aDoxLjA7IiB4MT0iMTY3IiB4Mj0iMjk2IiB5MT0iNTk1Ljk4NDQiIHkyPSI1OTUuOTg0NCIvPjxlbGxpcHNlIGN4PSIxNzciIGN5PSI2MDguOTc2NiIgZmlsbD0iIzAwMDAwMCIgcng9IjMiIHJ5PSIzIiBzdHlsZT0ic3Ryb2tlOiMwMDAwMDA7c3Ryb2tlLXdpZHRoOjEuMDsiLz48dGV4dCBmaWxsPSIjMDAwMDAwIiBmb250LWZhbWlseT0ic2Fucy1zZXJpZiIgZm9udC1zaXplPSIxNCIgbGVuZ3RoQWRqdXN0PSJzcGFjaW5nIiB0ZXh0TGVuZ3RoPSIxMDUiIHg9IjE4NiIgeT0iNjEzLjIxODgiPiYjMzYxNDE7JiMzMTA4MDsmIzI2MDg1OyYjMjYzOTk7IDogZGF0ZTwvdGV4dD48ZWxsaXBzZSBjeD0iMTc3IiBjeT0iNjIzLjk2MDkiIGZpbGw9IiMwMDAwMDAiIHJ4PSIzIiByeT0iMyIgc3R5bGU9InN0cm9rZTojMDAwMDAwO3N0cm9rZS13aWR0aDoxLjA7Ii8+PHRleHQgZmlsbD0iIzAwMDAwMCIgZm9udC1mYW1pbHk9InNhbnMtc2VyaWYiIGZvbnQtc2l6ZT0iMTQiIGxlbmd0aEFkanVzdD0ic3BhY2luZyIgdGV4dExlbmd0aD0iMTA1IiB4PSIxODYiIHk9IjYyOC4yMDMxIj4mIzI0MjMxOyYjMjAzMDE7JiMyMTQ5NTsgOiBzdHJpbmc8L3RleHQ+PC9nPjwhLS1jbGFzcyBVc2VyLS0+PGcgaWQ9ImVsZW1fVXNlciI+PHJlY3QgY29kZUxpbmU9IjMyIiBmaWxsPSIjRjFGMUYxIiBoZWlnaHQ9IjEwNy45Mzc1IiBpZD0iVXNlciIgcng9IjIuNSIgcnk9IjIuNSIgc3R5bGU9InN0cm9rZTojMTgxODE4O3N0cm9rZS13aWR0aDowLjU7IiB3aWR0aD0iMTMxIiB4PSIyNTYiIHk9IjM1OCIvPjxlbGxpcHNlIGN4PSIzMDMuMjUiIGN5PSIzNzQiIGZpbGw9IiNBREQxQjIiIHJ4PSIxMSIgcnk9IjExIiBzdHlsZT0ic3Ryb2tlOiMxODE4MTg7c3Ryb2tlLXdpZHRoOjEuMDsiLz48cGF0aCBkPSJNMzA2Ljg3NSwzODAgTDMwNi44NzUsMzc4LjI1IEwzMDEuNTYyNSwzNzguMjUgUTMwMS41NjI1LDM3OC4yNSAzMDEuNTYyNSwzNzQuNjg3NSBMMzA1LjgxMjUsMzc0LjY4NzUgTDMwNS44MTI1LDM3Mi45Mzc1IEwzMDEuNTYyNSwzNzIuOTM3NSBMMzAxLjU2MjUsMzcwLjQzNzUgTDMwNi44NzUsMzcwLjQzNzUgTDMwNi44NzUsMzY4LjY4NzUgTDI5OS44MTI1LDM2OC42ODc1IFEyOTkuODEyNSwzNjguNjg3NSAyOTkuODEyNSwzODAgTDMwNi44NzUsMzgwIFogIiBmaWxsPSIjMDAwMDAwIi8+PHRleHQgZmlsbD0iIzAwMDAwMCIgZm9udC1mYW1pbHk9InNhbnMtc2VyaWYiIGZvbnQtc2l6ZT0iMTQiIGxlbmd0aEFkanVzdD0ic3BhY2luZyIgdGV4dExlbmd0aD0iMjgiIHg9IjMyMy43NSIgeT0iMzc5Ljc0MjIiPiYjMjk5OTI7JiMyNTE0Mzs8L3RleHQ+PGxpbmUgc3R5bGU9InN0cm9rZTojMTgxODE4O3N0cm9rZS13aWR0aDowLjU7IiB4MT0iMjU3IiB4Mj0iMzg2IiB5MT0iMzkwIiB5Mj0iMzkwIi8+PGVsbGlwc2UgY3g9IjI2NyIgY3k9IjQwMi45OTIyIiBmaWxsPSIjMDAwMDAwIiByeD0iMyIgcnk9IjMiIHN0eWxlPSJzdHJva2U6IzAwMDAwMDtzdHJva2Utd2lkdGg6MS4wOyIvPjx0ZXh0IGZpbGw9IiMwMDAwMDAiIGZvbnQtZmFtaWx5PSJzYW5zLXNlcmlmIiBmb250LXNpemU9IjE0IiBsZW5ndGhBZGp1c3Q9InNwYWNpbmciIHRleHRMZW5ndGg9IjU2IiB4PSIyNzYiIHk9IjQwNy4yMzQ0Ij5JRCA6IGludDwvdGV4dD48bGluZSBzdHlsZT0ic3Ryb2tlOiMxODE4MTg7c3Ryb2tlLXdpZHRoOjEuMDsiIHgxPSIyNTciIHgyPSIzODYiIHkxPSI0MTIuOTg0NCIgeTI9IjQxMi45ODQ0Ii8+PGVsbGlwc2UgY3g9IjI2NyIgY3k9IjQyNS45NzY2IiBmaWxsPSIjMDAwMDAwIiByeD0iMyIgcnk9IjMiIHN0eWxlPSJzdHJva2U6IzAwMDAwMDtzdHJva2Utd2lkdGg6MS4wOyIvPjx0ZXh0IGZpbGw9IiMwMDAwMDAiIGZvbnQtZmFtaWx5PSJzYW5zLXNlcmlmIiBmb250LXNpemU9IjE0IiBsZW5ndGhBZGp1c3Q9InNwYWNpbmciIHRleHRMZW5ndGg9IjEwNSIgeD0iMjc2IiB5PSI0MzAuMjE4OCI+JiMyOTk5MjsmIzI1MTQzOyYjMjE1MTc7IDogc3RyaW5nPC90ZXh0PjxlbGxpcHNlIGN4PSIyNjciIGN5PSI0NDAuOTYwOSIgZmlsbD0iIzAwMDAwMCIgcng9IjMiIHJ5PSIzIiBzdHlsZT0ic3Ryb2tlOiMwMDAwMDA7c3Ryb2tlLXdpZHRoOjEuMDsiLz48dGV4dCBmaWxsPSIjMDAwMDAwIiBmb250LWZhbWlseT0ic2Fucy1zZXJpZiIgZm9udC1zaXplPSIxNCIgbGVuZ3RoQWRqdXN0PSJzcGFjaW5nIiB0ZXh0TGVuZ3RoPSI5MSIgeD0iMjc2IiB5PSI0NDUuMjAzMSI+JiMyMzQ5NDsmIzMwNzIxOyA6IHN0cmluZzwvdGV4dD48ZWxsaXBzZSBjeD0iMjY3IiBjeT0iNDU1Ljk0NTMiIGZpbGw9IiMwMDAwMDAiIHJ4PSIzIiByeT0iMyIgc3R5bGU9InN0cm9rZTojMDAwMDAwO3N0cm9rZS13aWR0aDoxLjA7Ii8+PHRleHQgZmlsbD0iIzAwMDAwMCIgZm9udC1mYW1pbHk9InNhbnMtc2VyaWYiIGZvbnQtc2l6ZT0iMTQiIGxlbmd0aEFkanVzdD0ic3BhY2luZyIgdGV4dExlbmd0aD0iOTEiIHg9IjI3NiIgeT0iNDYwLjE4NzUiPiYjMzcwMzg7JiMzMTY2NTsgOiBzdHJpbmc8L3RleHQ+PC9nPjwhLS1saW5rIERyaXZlciB0byBCdXMtLT48ZyBpZD0ibGlua19Ecml2ZXJfQnVzIj48cGF0aCBjb2RlTGluZT0iNDEiIGQ9Ik0xMTkuNzExMSwxMDcuNTM4NSBDMTEwLjc0MTEsMTMwLjQyODUgMTA5LjMxMTEsMTM0LjA5MjMgOTkuOTUxMSwxNTcuOTYyMyAiIGZpbGw9Im5vbmUiIGlkPSJEcml2ZXItQnVzIiBzdHlsZT0ic3Ryb2tlOiMxODE4MTg7c3Ryb2tlLXdpZHRoOjEuMDsiLz48bGluZSBzdHlsZT0ic3Ryb2tlOiMxODE4MTg7c3Ryb2tlLXdpZHRoOjEuMDsiIHgxPSIxMTcuNDQ2MyIgeDI9IjEyNC44OTQ4IiB5MT0iMTAyLjM1NDgiIHkyPSIxMDUuMjczNyIvPjxsaW5lIHN0eWxlPSJzdHJva2U6IzE4MTgxODtzdHJva2Utd2lkdGg6MS4wOyIgeDE9IjExNi4zNTE3IiB4Mj0iMTIzLjgwMDIiIHkxPSIxMDUuMTQ4IiB5Mj0iMTA4LjA2NjkiLz48bGluZSBzdHlsZT0ic3Ryb2tlOiMxODE4MTg7c3Ryb2tlLXdpZHRoOjEuMDsiIHgxPSIxMTkuNzExMSIgeDI9IjEyMi42MyIgeTE9IjEwNy41Mzg1IiB5Mj0iMTAwLjA5Ii8+PGxpbmUgc3R5bGU9InN0cm9rZTojMTgxODE4O3N0cm9rZS13aWR0aDoxLjA7IiB4MT0iOTYuMzAwNSIgeDI9Ijk4Ljk2NTkiIHkxPSIxNjcuMjcyMSIgeTI9IjE3Ni45MTA0Ii8+PGxpbmUgc3R5bGU9InN0cm9rZTojMTgxODE4O3N0cm9rZS13aWR0aDoxLjA7IiB4MT0iOTYuMzAwNSIgeDI9Ijg3Ljc5NDEiIHkxPSIxNjcuMjcyMSIgeTI9IjE3Mi41Mjk2Ii8+PGxpbmUgc3R5bGU9InN0cm9rZTojMTgxODE4O3N0cm9rZS13aWR0aDoxLjA7IiB4MT0iOTYuMzAwNSIgeDI9IjkzLjM4IiB5MT0iMTY3LjI3MjEiIHkyPSIxNzQuNzIiLz48ZWxsaXBzZSBjeD0iOTguNDkwOSIgY3k9IjE2MS42ODYyIiBmaWxsPSJub25lIiByeD0iNCIgcnk9IjQiIHN0eWxlPSJzdHJva2U6IzE4MTgxODtzdHJva2Utd2lkdGg6MS4wOyIvPjx0ZXh0IGZpbGw9IiMwMDAwMDAiIGZvbnQtZmFtaWx5PSJzYW5zLXNlcmlmIiBmb250LXNpemU9IjEzIiBsZW5ndGhBZGp1c3Q9InNwYWNpbmciIHRleHRMZW5ndGg9IjI2IiB4PSIxMTIuNSIgeT0iMTQzLjI4OTEiPiYjMzk1NTA7JiMzOTU0Mjs8L3RleHQ+PC9nPjwhLS1saW5rIERyaXZlciB0byBUcmlwLS0+PGcgaWQ9ImxpbmtfRHJpdmVyX1RyaXAiPjxwYXRoIGNvZGVMaW5lPSI0MiIgZD0iTTE0OC42MzYzLDEwOC4wNzQ1IEMxNTEuNzQ2MywxMzAuNTU0NSAxNTMuOTYsMTUwLjE3IDE1NS41LDE3NSBDMTU4LjQ3LDIyMi45MSAxNTguMywyMzUuMDggMTU1LjUsMjgzIEMxNTQuMDYsMzA3LjY4IDE1My4zNTQzLDMxNy4wNDU1IDE1MC40MTQzLDM0MC4wMjU1ICIgZmlsbD0ibm9uZSIgaWQ9IkRyaXZlci1UcmlwIiBzdHlsZT0ic3Ryb2tlOiMxODE4MTg7c3Ryb2tlLXdpZHRoOjEuMDsiLz48bGluZSBzdHlsZT0ic3Ryb2tlOiMxODE4MTg7c3Ryb2tlLXdpZHRoOjEuMDsiIHgxPSIxNDQuMTI1OSIgeDI9IjE1Mi4wNTA0IiB5MT0iMTA0LjY2MDQiIHkyPSIxMDMuNTY0MSIvPjxsaW5lIHN0eWxlPSJzdHJva2U6IzE4MTgxODtzdHJva2Utd2lkdGg6MS4wOyIgeDE9IjE0NC41MzciIHgyPSIxNTIuNDYxNSIgeTE9IjEwNy42MzIxIiB5Mj0iMTA2LjUzNTgiLz48bGluZSBzdHlsZT0ic3Ryb2tlOiMxODE4MTg7c3Ryb2tlLXdpZHRoOjEuMDsiIHgxPSIxNDguNjM2MyIgeDI9IjE0Ny41NCIgeTE9IjEwOC4wNzQ1IiB5Mj0iMTAwLjE1Ii8+PGxpbmUgc3R5bGU9InN0cm9rZTojMTgxODE4O3N0cm9rZS13aWR0aDoxLjA7IiB4MT0iMTQ5LjE0NTIiIHgyPSIxNTQuMDgxNSIgeTE9IjM0OS45NDQ3IiB5Mj0iMzU4LjY0MTQiLz48bGluZSBzdHlsZT0ic3Ryb2tlOiMxODE4MTg7c3Ryb2tlLXdpZHRoOjEuMDsiIHgxPSIxNDkuMTQ1MiIgeDI9IjE0Mi4xNzg1IiB5MT0iMzQ5Ljk0NDciIHkyPSIzNTcuMTE4NiIvPjxsaW5lIHN0eWxlPSJzdHJva2U6IzE4MTgxODtzdHJva2Utd2lkdGg6MS4wOyIgeDE9IjE0OS4xNDUyIiB4Mj0iMTQ4LjEzIiB5MT0iMzQ5Ljk0NDciIHkyPSIzNTcuODgiLz48ZWxsaXBzZSBjeD0iMTQ5LjkwNjYiIGN5PSIzNDMuOTkzMiIgZmlsbD0ibm9uZSIgcng9IjQiIHJ5PSI0IiBzdHlsZT0ic3Ryb2tlOiMxODE4MTg7c3Ryb2tlLXdpZHRoOjEuMDsiLz48dGV4dCBmaWxsPSIjMDAwMDAwIiBmb250LWZhbWlseT0ic2Fucy1zZXJpZiIgZm9udC1zaXplPSIxMyIgbGVuZ3RoQWRqdXN0PSJzcGFjaW5nIiB0ZXh0TGVuZ3RoPSIyNiIgeD0iMTU5LjUiIHk9IjIzNC43ODkxIj4mIzIzNDMzOyYjMjU0OTA7PC90ZXh0PjwvZz48IS0tbGluayBCdXMgdG8gVHJpcC0tPjxnIGlkPSJsaW5rX0J1c19UcmlwIj48cGF0aCBjb2RlTGluZT0iNDMiIGQ9Ik05NS4zNDUzLDI5MC44MTgzIEMxMDQuMTY1MywzMTQuMjc4MyAxMDUuMzQ5NSwzMTcuNDM5OSAxMTQuMTU5NSwzNDAuODg5OSAiIGZpbGw9Im5vbmUiIGlkPSJCdXMtVHJpcCIgc3R5bGU9InN0cm9rZTojMTgxODE4O3N0cm9rZS13aWR0aDoxLjA7Ii8+PGxpbmUgc3R5bGU9InN0cm9rZTojMTgxODE4O3N0cm9rZS13aWR0aDoxLjA7IiB4MT0iOTAuMTkzNSIgeDI9Ijk3LjY4MTgiIHkxPSIyODguNDgxOCIgeTI9IjI4NS42NjY1Ii8+PGxpbmUgc3R5bGU9InN0cm9rZTojMTgxODE4O3N0cm9rZS13aWR0aDoxLjA7IiB4MT0iOTEuMjQ5MiIgeDI9Ijk4LjczNzUiIHkxPSIyOTEuMjg5OSIgeTI9IjI4OC40NzQ2Ii8+PGxpbmUgc3R5bGU9InN0cm9rZTojMTgxODE4O3N0cm9rZS13aWR0aDoxLjA7IiB4MT0iOTUuMzQ1MyIgeDI9IjkyLjUzIiB5MT0iMjkwLjgxODMiIHkyPSIyODMuMzMiLz48bGluZSBzdHlsZT0ic3Ryb2tlOiMxODE4MTg7c3Ryb2tlLXdpZHRoOjEuMDsiIHgxPSIxMTcuNjc2NSIgeDI9IjEyNi4xMDY3IiB5MT0iMzUwLjI1MTEiIHkyPSIzNTUuNjI5OCIvPjxsaW5lIHN0eWxlPSJzdHJva2U6IzE4MTgxODtzdHJva2Utd2lkdGg6MS4wOyIgeDE9IjExNy42NzY1IiB4Mj0iMTE0Ljg3MzMiIHkxPSIzNTAuMjUxMSIgeTI9IjM1OS44NTAyIi8+PGxpbmUgc3R5bGU9InN0cm9rZTojMTgxODE4O3N0cm9rZS13aWR0aDoxLjA7IiB4MT0iMTE3LjY3NjUiIHgyPSIxMjAuNDkiIHkxPSIzNTAuMjUxMSIgeTI9IjM1Ny43NCIvPjxlbGxpcHNlIGN4PSIxMTUuNTY2MyIgY3k9IjM0NC42MzQ0IiBmaWxsPSJub25lIiByeD0iNCIgcnk9IjQiIHN0eWxlPSJzdHJva2U6IzE4MTgxODtzdHJva2Utd2lkdGg6MS4wOyIvPjx0ZXh0IGZpbGw9IiMwMDAwMDAiIGZvbnQtZmFtaWx5PSJzYW5zLXNlcmlmIiBmb250LXNpemU9IjEzIiBsZW5ndGhBZGp1c3Q9InNwYWNpbmciIHRleHRMZW5ndGg9IjI2IiB4PSIxMTAuNSIgeT0iMzI2LjI4OTEiPiYjMjA5OTg7JiMzNzE5Nzs8L3RleHQ+PC9nPjwhLS1saW5rIFVzZXIgdG8gVGlja2V0LS0+PGcgaWQ9ImxpbmtfVXNlcl9UaWNrZXQiPjxwYXRoIGNvZGVMaW5lPSI0NCIgZD0iTTI5MC4wNzc2LDQ3My41NzIxIEMyNzcuNzM3Niw0OTcuMzcyMSAyNzUuMzE3MSw1MDIuMDIxMiAyNjMuNDg3MSw1MjQuODMxMiAiIGZpbGw9Im5vbmUiIGlkPSJVc2VyLVRpY2tldCIgc3R5bGU9InN0cm9rZTojMTgxODE4O3N0cm9rZS13aWR0aDoxLjA7Ii8+PGxpbmUgc3R5bGU9InN0cm9rZTojMTgxODE4O3N0cm9rZS13aWR0aDoxLjA7IiB4MT0iMjg4LjM2NzgiIHgyPSIyOTUuNDY5OSIgeTE9IjQ2OC4xNzk5IiB5Mj0iNDcxLjg2MjIiLz48bGluZSBzdHlsZT0ic3Ryb2tlOiMxODE4MTg7c3Ryb2tlLXdpZHRoOjEuMDsiIHgxPSIyODYuOTg2OSIgeDI9IjI5NC4wODkiIHkxPSI0NzAuODQzMiIgeTI9IjQ3NC41MjU1Ii8+PGxpbmUgc3R5bGU9InN0cm9rZTojMTgxODE4O3N0cm9rZS13aWR0aDoxLjA7IiB4MT0iMjkwLjA3NzYiIHgyPSIyOTMuNzYiIHkxPSI0NzMuNTcyMSIgeTI9IjQ2Ni40NyIvPjxsaW5lIHN0eWxlPSJzdHJva2U6IzE4MTgxODtzdHJva2Utd2lkdGg6MS4wOyIgeDE9IjI1OC44ODMyIiB4Mj0iMjYwLjUyNjMiIHkxPSI1MzMuNzA4MyIgeTI9IjU0My41NzI0Ii8+PGxpbmUgc3R5bGU9InN0cm9rZTojMTgxODE4O3N0cm9rZS13aWR0aDoxLjA7IiB4MT0iMjU4Ljg4MzIiIHgyPSIyNDkuODczNyIgeTE9IjUzMy43MDgzIiB5Mj0iNTM4LjA0NzYiLz48bGluZSBzdHlsZT0ic3Ryb2tlOiMxODE4MTg7c3Ryb2tlLXdpZHRoOjEuMDsiIHgxPSIyNTguODgzMiIgeDI9IjI1NS4yIiB5MT0iNTMzLjcwODMiIHkyPSI1NDAuODEiLz48ZWxsaXBzZSBjeD0iMjYxLjY0NTYiIGN5PSI1MjguMzgyIiBmaWxsPSJub25lIiByeD0iNCIgcnk9IjQiIHN0eWxlPSJzdHJva2U6IzE4MTgxODtzdHJva2Utd2lkdGg6MS4wOyIvPjx0ZXh0IGZpbGw9IiMwMDAwMDAiIGZvbnQtZmFtaWx5PSJzYW5zLXNlcmlmIiBmb250LXNpemU9IjEzIiBsZW5ndGhBZGp1c3Q9InNwYWNpbmciIHRleHRMZW5ndGg9IjI2IiB4PSIyNzcuNSIgeT0iNTA5LjI4OTEiPiYjMzYxNDE7JiMyMDA4MDs8L3RleHQ+PC9nPjwhLS1saW5rIFRyaXAgdG8gVGlja2V0LS0+PGcgaWQ9ImxpbmtfVHJpcF9UaWNrZXQiPjxwYXRoIGNvZGVMaW5lPSI0NSIgZD0iTTE3Ni45MDkxLDQ4Mi40MTEzIEMxODkuMzg5MSw1MDYuMjExMyAxOTEuODUyNiw1MTAuOTE2MSAyMDMuODIyNiw1MzMuNzI2MSAiIGZpbGw9Im5vbmUiIGlkPSJUcmlwLVRpY2tldCIgc3R5bGU9InN0cm9rZTojMTgxODE4O3N0cm9rZS13aWR0aDoxLjA7Ii8+PGxpbmUgc3R5bGU9InN0cm9rZTojMTgxODE4O3N0cm9rZS13aWR0aDoxLjA7IiB4MT0iMTcyLjI2NTIiIHgyPSIxNjMuMjM2MiIgeTE9IjQ3My41NTUiIHkyPSI0NjkuMjU2NCIvPjxsaW5lIHN0eWxlPSJzdHJva2U6IzE4MTgxODtzdHJva2Utd2lkdGg6MS4wOyIgeDE9IjE3Mi4yNjUyIiB4Mj0iMTczLjg2MzgiIHkxPSI0NzMuNTU1IiB5Mj0iNDYzLjY4MzYiLz48bGluZSBzdHlsZT0ic3Ryb2tlOiMxODE4MTg7c3Ryb2tlLXdpZHRoOjEuMDsiIHgxPSIxNzIuMjY1MiIgeDI9IjE2OC41NSIgeTE9IjQ3My41NTUiIHkyPSI0NjYuNDciLz48ZWxsaXBzZSBjeD0iMTc1LjA1MTUiIGN5PSI0NzguODY4OCIgZmlsbD0ibm9uZSIgcng9IjQiIHJ5PSI0IiBzdHlsZT0ic3Ryb2tlOiMxODE4MTg7c3Ryb2tlLXdpZHRoOjEuMDsiLz48bGluZSBzdHlsZT0ic3Ryb2tlOiMxODE4MTg7c3Ryb2tlLXdpZHRoOjEuMDsiIHgxPSIyMDkuMjIzMiIgeDI9IjIwMi4xMzk0IiB5MT0iNTM1LjQwOTQiIHkyPSI1MzkuMTI2OCIvPjxsaW5lIHN0eWxlPSJzdHJva2U6IzE4MTgxODtzdHJva2Utd2lkdGg6MS4wOyIgeDE9IjIwNy44MjkyIiB4Mj0iMjAwLjc0NTQiIHkxPSI1MzIuNzUyOSIgeTI9IjUzNi40NzAzIi8+PGxpbmUgc3R5bGU9InN0cm9rZTojMTgxODE4O3N0cm9rZS13aWR0aDoxLjA7IiB4MT0iMjAzLjgyMjYiIHgyPSIyMDcuNTQiIHkxPSI1MzMuNzI2MSIgeTI9IjU0MC44MSIvPjx0ZXh0IGZpbGw9IiMwMDAwMDAiIGZvbnQtZmFtaWx5PSJzYW5zLXNlcmlmIiBmb250LXNpemU9IjEzIiBsZW5ndGhBZGp1c3Q9InNwYWNpbmciIHRleHRMZW5ndGg9IjI2IiB4PSIxOTIuNSIgeT0iNTA5LjI4OTEiPiYjMjEyNTM7JiMyMTU0Nzs8L3RleHQ+PC9nPjwhLS1TUkM9W1ZMQkJKaTkwNUR0dEFvUXA4SjdmM3gwcVJEcGgxbjFqSjZDNHFyT0pHcmR1QUZBcUEyZTk0ZkdPTmE0aDFXODJ1alZxcGoyX1M5WTJHNHJUcFphZHZ5b3p2bU9HTTJMeGMwQWhPYXlBemhXNlBYZ2kydGx5UVd5cEpoNTdJdlRXVDZidEI0V0hKVFBFNEdScGF2SDc2OExMNTVCYTRxYjFDRzZYM1JHTEdhNGFIcEpzNDRNRUdBQzAtSG4zTEtzSDhfaVNTcmhWcjZaR2htU20xcWljQllwajFwcnVRTkZ4cE1GTHJ0aXdnVERLVGlzNEh1dVF6WUg3eFprX1VlUExDZHZYcXNnTURaQ3lSNWtIWl9tZGtIZzFVR0ZicGRlUVZSSGMtXzcyaGZlSy1zbl9aRGFCUXY4YzdxZ2htUkpNWDdKTDNQUHQzb0pEVnozVTZuRUpPZXNLZC1QY0F2RnczS1JsY1lHdnVGdXh3WnlMa1JlX0JTNXhXWndWVVBleGp3WnJpUE9NTTFvRlVvN3BTejFyS09wNlU3ajFYNWRYSmdrRkZJSlZEY0YxSWY3aE1vcENuNXVnY04yQzcxUnVfblVTa29sNmloTk9tbXVNazNlVTVLTFROczRYUXEyLVpOeTBdLS0+PC9nPjwvc3ZnPg==;" vertex="1" parent="1">
            <mxGeometry x="1930" y="1400" width="394" height="640" as="geometry" />
          </mxCell>
        </UserObject>
      </root>
    </mxGraphModel>
  </diagram>
</mxfile>
